<?xml version="1.0" encoding="UTF-8"?><svg id="uuid-fe9aa071-4b9a-497e-b707-673e341c51f4" xmlns="http://www.w3.org/2000/svg" viewBox="0 0 125 31.53"><defs><style>.uuid-12da6abd-704a-464c-b344-d6c9e961ccfc{fill:#939598;}.uuid-3c83f175-43bd-441a-aa7d-bc5c259c8f60,.uuid-f342bc53-b0ff-44fa-a4b4-89d71bd0150b{fill:#ed1c24;}.uuid-3c83f175-43bd-441a-aa7d-bc5c259c8f60,.uuid-c1e9309c-9e1f-46fa-9b14-36e0c3b196ae{fill-rule:evenodd;}.uuid-498ee4af-2b30-4a60-8f42-b1806412f7c7,.uuid-c1e9309c-9e1f-46fa-9b14-36e0c3b196ae{fill:#034ea2;}</style></defs><g id="uuid-c52dad1e-1f66-4567-8ac1-52e77a282327"><path class="uuid-498ee4af-2b30-4a60-8f42-b1806412f7c7" d="m119.29,31.15l.29-.75c.45.29.81.44,1.09.44.5,0,.74-.21.74-.62,0-.3-.24-.55-.72-.76-.37-.17-.62-.29-.75-.38-.13-.09-.24-.18-.33-.29-.1-.11-.16-.23-.21-.35-.05-.12-.07-.26-.07-.4,0-.37.14-.66.41-.87.27-.21.63-.31,1.06-.31.33,0,.75.1,1.25.31l-.23.74c-.32-.25-.64-.38-.96-.38-.19,0-.35.05-.49.13-.13.09-.2.2-.2.34,0,.29.16.51.5.65l.58.26c.35.16.61.34.77.55.16.2.24.46.24.77,0,.4-.14.72-.43.95-.29.23-.68.34-1.19.34-.48,0-.93-.12-1.35-.35m-2.57-3.64c-.36,0-.66.12-.9.35-.23.22-.36.49-.39.81h2.51c0-.32-.1-.59-.31-.8-.22-.24-.53-.35-.91-.35Zm1.95,1.74h-3.27c0,.53.15.93.44,1.21.26.25.59.37.99.37.46,0,.84-.13,1.15-.4l.34.57c-.12.12-.32.23-.57.32-.32.12-.68.18-1.08.18-.57,0-1.05-.19-1.45-.58-.44-.42-.67-.99-.67-1.7s.23-1.34.68-1.78c.41-.4.89-.6,1.45-.6.65,0,1.15.18,1.52.54.36.35.53.81.53,1.38,0,.18-.02.34-.06.49Zm-4.7-1.96l-.4.56c-.08-.08-.23-.16-.43-.23-.21-.07-.41-.11-.61-.11-.44,0-.79.15-1.04.46-.26.3-.39.72-.39,1.25s.13.93.39,1.2c.26.28.63.41,1.09.41.36,0,.73-.14,1.09-.42l.32.67c-.43.28-.97.42-1.61.42s-1.13-.21-1.53-.62c-.4-.41-.61-.97-.61-1.67s.21-1.29.63-1.72c.42-.43,1-.65,1.72-.65.24,0,.49.05.76.15.27.1.48.2.61.3Zm-5.51,4.13v-3.82h-.62v-.67h1.43v4.49h-.81Zm.44-6.19c.14,0,.26.05.35.14.1.1.15.21.15.35s-.05.25-.15.35c-.1.1-.22.14-.35.14s-.25-.05-.35-.14c-.1-.1-.15-.21-.15-.35s.05-.25.14-.35c.1-.09.21-.14.35-.14Zm-3.45,6.28h-.21l-1.95-4.59h.88l1.2,3.15,1.22-3.15h.84l-1.99,4.59Zm-2.54-3.81c-.17-.12-.35-.18-.53-.18-.29,0-.53.13-.75.39-.21.26-.32.57-.32.94v2.58h-.81v-4.49h.81v.72c.29-.53.73-.8,1.31-.8.14,0,.35.02.62.07l-.33.78Zm-5.33-.18c-.36,0-.66.12-.9.35-.23.22-.36.49-.39.81h2.51c0-.32-.1-.59-.31-.8-.22-.24-.53-.35-.91-.35Zm1.95,1.74h-3.27c0,.53.15.93.44,1.21.26.25.59.37.99.37.46,0,.84-.13,1.15-.4l.34.57c-.12.12-.32.23-.57.32-.32.12-.68.18-1.08.18-.57,0-1.05-.19-1.45-.58-.44-.42-.67-.99-.67-1.7s.23-1.34.68-1.78c.41-.4.89-.6,1.45-.6.65,0,1.15.18,1.52.54.36.35.53.81.53,1.38,0,.18-.02.34-.06.49Zm-8.21,1.89l.31-.77c.16.11.36.21.59.29.24.08.45.12.63.12.33,0,.6-.09.8-.27.2-.18.3-.41.3-.68,0-.21-.05-.4-.17-.58-.11-.18-.39-.37-.84-.58l-.5-.23c-.42-.2-.72-.43-.89-.7-.17-.27-.25-.59-.25-.97,0-.46.16-.84.49-1.14.33-.3.75-.45,1.26-.45.69,0,1.16.11,1.43.33l-.25.73c-.11-.08-.29-.16-.52-.24-.23-.08-.45-.11-.64-.11-.29,0-.51.08-.68.24-.17.16-.25.37-.25.62,0,.16.03.3.09.43.06.13.14.24.25.32.11.09.32.21.65.37l.51.24c.42.2.72.44.89.71.17.28.26.63.26,1.05,0,.46-.19.85-.56,1.17-.37.32-.88.48-1.5.48-.55,0-1.02-.13-1.41-.39Zm-3.56-5.64l-.29.72c-.27-.2-.7-.29-1.28-.29-.55,0-.98.23-1.31.7-.33.47-.49,1.06-.49,1.8s.17,1.27.51,1.7c.34.44.77.65,1.31.65.58,0,1.03-.2,1.34-.61l.47.64c-.49.48-1.13.73-1.9.73s-1.45-.29-1.92-.87c-.47-.58-.7-1.34-.7-2.29s.25-1.68.75-2.29c.5-.61,1.14-.91,1.93-.91.68,0,1.2.11,1.59.33Zm-6.65,3.17v2.75h-.85v-2.75l-2-3.39h.87l1.55,2.69,1.55-2.69h.87l-1.99,3.39Zm-3.84,2.75l-1.75-2.83-.83,1.16v1.67h-.85v-6.15h.85v3.34l2.31-3.34h.94l-1.86,2.66,2.12,3.48h-.94Z"/><rect class="uuid-12da6abd-704a-464c-b344-d6c9e961ccfc" y="2.57" width="125" height=".11"/><rect class="uuid-12da6abd-704a-464c-b344-d6c9e961ccfc" y="5.02" width="125" height=".11"/><rect class="uuid-12da6abd-704a-464c-b344-d6c9e961ccfc" y="7.47" width="125" height=".11"/><rect class="uuid-12da6abd-704a-464c-b344-d6c9e961ccfc" y="9.92" width="125" height=".11"/><rect class="uuid-12da6abd-704a-464c-b344-d6c9e961ccfc" y="12.37" width="125" height=".11"/><rect class="uuid-12da6abd-704a-464c-b344-d6c9e961ccfc" y="14.82" width="125" height=".11"/><rect class="uuid-12da6abd-704a-464c-b344-d6c9e961ccfc" y="17.27" width="125" height=".11"/><rect class="uuid-12da6abd-704a-464c-b344-d6c9e961ccfc" y="19.72" width="125" height=".11"/><rect class="uuid-12da6abd-704a-464c-b344-d6c9e961ccfc" y="22.18" width="125" height=".11"/><rect class="uuid-12da6abd-704a-464c-b344-d6c9e961ccfc" x="26.96" width=".11" height="24.58"/><rect class="uuid-12da6abd-704a-464c-b344-d6c9e961ccfc" x="2.45" width=".11" height="24.58"/><rect class="uuid-12da6abd-704a-464c-b344-d6c9e961ccfc" x="4.9" width=".11" height="24.58"/><rect class="uuid-12da6abd-704a-464c-b344-d6c9e961ccfc" x="7.35" width=".11" height="24.58"/><rect class="uuid-12da6abd-704a-464c-b344-d6c9e961ccfc" x="9.8" width=".11" height="24.58"/><rect class="uuid-12da6abd-704a-464c-b344-d6c9e961ccfc" x="12.25" width=".11" height="24.58"/><rect class="uuid-12da6abd-704a-464c-b344-d6c9e961ccfc" x="14.7" width=".11" height="24.58"/><rect class="uuid-12da6abd-704a-464c-b344-d6c9e961ccfc" x="17.16" width=".11" height="24.58"/><rect class="uuid-12da6abd-704a-464c-b344-d6c9e961ccfc" x="19.61" width=".11" height="24.58"/><rect class="uuid-12da6abd-704a-464c-b344-d6c9e961ccfc" x="22.06" width=".11" height="24.58"/><rect class="uuid-12da6abd-704a-464c-b344-d6c9e961ccfc" x="24.51" width=".11" height="24.58"/><rect class="uuid-12da6abd-704a-464c-b344-d6c9e961ccfc" x="29.41" width=".11" height="24.58"/><rect class="uuid-12da6abd-704a-464c-b344-d6c9e961ccfc" x="31.86" width=".11" height="24.58"/><rect class="uuid-12da6abd-704a-464c-b344-d6c9e961ccfc" x="34.31" width=".11" height="24.58"/><rect class="uuid-12da6abd-704a-464c-b344-d6c9e961ccfc" x="36.76" width=".11" height="24.58"/><rect class="uuid-12da6abd-704a-464c-b344-d6c9e961ccfc" x="39.21" width=".11" height="24.58"/><rect class="uuid-12da6abd-704a-464c-b344-d6c9e961ccfc" x="41.66" width=".11" height="24.58"/><rect class="uuid-12da6abd-704a-464c-b344-d6c9e961ccfc" x="44.12" width=".11" height="24.58"/><rect class="uuid-12da6abd-704a-464c-b344-d6c9e961ccfc" x="46.57" width=".11" height="24.58"/><rect class="uuid-12da6abd-704a-464c-b344-d6c9e961ccfc" x="49.02" width=".11" height="24.58"/><rect class="uuid-12da6abd-704a-464c-b344-d6c9e961ccfc" x="51.47" width=".11" height="24.58"/><rect class="uuid-12da6abd-704a-464c-b344-d6c9e961ccfc" x="53.92" width=".11" height="24.58"/><rect class="uuid-12da6abd-704a-464c-b344-d6c9e961ccfc" x="56.37" width=".11" height="24.58"/><rect class="uuid-12da6abd-704a-464c-b344-d6c9e961ccfc" x="58.82" width=".11" height="24.58"/><rect class="uuid-12da6abd-704a-464c-b344-d6c9e961ccfc" x="61.27" width=".11" height="24.58"/><rect class="uuid-12da6abd-704a-464c-b344-d6c9e961ccfc" x="63.72" width=".11" height="24.58"/><rect class="uuid-12da6abd-704a-464c-b344-d6c9e961ccfc" x="66.17" width=".11" height="24.58"/><rect class="uuid-12da6abd-704a-464c-b344-d6c9e961ccfc" x="68.62" width=".11" height="24.58"/><rect class="uuid-12da6abd-704a-464c-b344-d6c9e961ccfc" x="71.07" width=".11" height="24.58"/><rect class="uuid-12da6abd-704a-464c-b344-d6c9e961ccfc" x="73.53" width=".11" height="24.58"/><rect class="uuid-12da6abd-704a-464c-b344-d6c9e961ccfc" x="75.98" width=".11" height="24.58"/><rect class="uuid-12da6abd-704a-464c-b344-d6c9e961ccfc" x="78.43" width=".11" height="24.58"/><rect class="uuid-12da6abd-704a-464c-b344-d6c9e961ccfc" x="80.88" width=".11" height="24.58"/><rect class="uuid-12da6abd-704a-464c-b344-d6c9e961ccfc" x="83.33" width=".11" height="24.58"/><rect class="uuid-12da6abd-704a-464c-b344-d6c9e961ccfc" x="85.78" width=".11" height="24.58"/><rect class="uuid-12da6abd-704a-464c-b344-d6c9e961ccfc" x="88.23" width=".11" height="24.58"/><rect class="uuid-12da6abd-704a-464c-b344-d6c9e961ccfc" x="90.68" width=".11" height="24.58"/><rect class="uuid-12da6abd-704a-464c-b344-d6c9e961ccfc" x="93.13" width=".11" height="24.58"/><rect class="uuid-12da6abd-704a-464c-b344-d6c9e961ccfc" x="95.58" width=".11" height="24.58"/><rect class="uuid-12da6abd-704a-464c-b344-d6c9e961ccfc" x="98.03" width=".11" height="24.58"/><rect class="uuid-12da6abd-704a-464c-b344-d6c9e961ccfc" x="100.49" width=".11" height="24.58"/><rect class="uuid-12da6abd-704a-464c-b344-d6c9e961ccfc" x="102.94" width=".11" height="24.58"/><rect class="uuid-12da6abd-704a-464c-b344-d6c9e961ccfc" x="105.39" width=".11" height="24.58"/><rect class="uuid-12da6abd-704a-464c-b344-d6c9e961ccfc" x="107.84" width=".11" height="24.58"/><rect class="uuid-12da6abd-704a-464c-b344-d6c9e961ccfc" x="110.29" width=".11" height="24.58"/><rect class="uuid-12da6abd-704a-464c-b344-d6c9e961ccfc" x="112.74" width=".11" height="24.58"/><rect class="uuid-12da6abd-704a-464c-b344-d6c9e961ccfc" x="115.19" width=".11" height="24.58"/><rect class="uuid-12da6abd-704a-464c-b344-d6c9e961ccfc" x="117.64" width=".11" height="24.58"/><rect class="uuid-12da6abd-704a-464c-b344-d6c9e961ccfc" x="120.09" width=".11" height="24.58"/><rect class="uuid-12da6abd-704a-464c-b344-d6c9e961ccfc" x="122.54" y="0" width=".11" height="24.58"/><path class="uuid-c1e9309c-9e1f-46fa-9b14-36e0c3b196ae" d="m1.22,11.3c.04-.37.1-.75.16-1.13.33-1.86,1.09-3.58,2.28-5.17,1.19-1.59,3.08-2.47,5.67-2.64.41,0,.88.05,1.41.14.53.1,1.07.26,1.63.51.86.4,1.67,1.04,2.45,1.93.78.89,1.35,2.15,1.71,3.78h-2.53c-.36-1.39-.98-2.42-1.84-3.1-.87-.68-1.79-1.02-2.79-1.02h-.19c-.06,0-.11,0-.16.03-1.3.1-2.51.78-3.6,2.02-1.1,1.24-1.68,3.03-1.74,5.36,0,2.8.55,4.81,1.66,6.06,1.11,1.24,2.32,1.87,3.64,1.89h.08c1.29,0,2.48-.48,3.57-1.45,1.09-.96,1.68-2.24,1.78-3.84h2.52c-.03.23-.07.46-.11.69-.04.24-.1.47-.16.72-.43,1.55-1.26,2.96-2.49,4.25-1.23,1.29-2.78,1.93-4.64,1.93-2.82.09-4.93-.86-6.31-2.85-1.39-1.99-2.08-4.31-2.08-6.97.02-.36.05-.73.09-1.11"/><polygon class="uuid-3c83f175-43bd-441a-aa7d-bc5c259c8f60" points="26.08 5.84 20.8 21.63 18.08 21.63 24.52 2.56 27.44 2.56 34.05 21.63 31.33 21.63 26.08 5.84"/><polygon class="uuid-c1e9309c-9e1f-46fa-9b14-36e0c3b196ae" points="36.42 2.56 40.04 2.56 45.3 18.56 50.56 2.56 54.2 2.56 54.2 21.63 51.56 21.63 51.56 6.44 46.5 21.63 44.09 21.63 39.04 6.65 39.04 21.63 36.42 21.63 36.42 2.56"/><path class="uuid-c1e9309c-9e1f-46fa-9b14-36e0c3b196ae" d="m59.26,15.48c0,1.55.49,2.69,1.47,3.42.98.74,2.07,1.13,3.26,1.19h.2c1.06,0,2.03-.26,2.91-.77.88-.51,1.39-1.24,1.52-2.2.02-.07.02-.13.02-.19v-.19c0-1.22-.48-2.04-1.45-2.46-.97-.43-2.07-.77-3.31-1.03-.15-.04-.29-.06-.42-.09-.13-.03-.26-.06-.4-.09-1.47-.33-2.8-.85-4-1.56-1.2-.71-1.72-2.12-1.57-4.22.1-1.34.69-2.49,1.76-3.46,1.07-.97,2.63-1.46,4.68-1.46s3.68.5,4.91,1.48c1.23.99,1.79,2.4,1.7,4.24h-2.33v-.29c0-1.08-.43-1.9-1.3-2.47-.87-.57-1.82-.88-2.86-.91h-.15c-1.01,0-1.93.26-2.76.8-.83.53-1.28,1.36-1.32,2.49.13.92.63,1.57,1.5,1.94.87.37,1.87.69,3.01.95.2.05.4.1.62.16.21.05.43.1.65.16,1.34.33,2.58.83,3.73,1.5,1.15.67,1.82,1.84,2.02,3.5.1,2.07-.61,3.64-2.13,4.71-1.52,1.08-3.2,1.63-5.05,1.67h-.07c-1.82,0-3.48-.55-4.99-1.65-1.51-1.1-2.24-2.82-2.19-5.14h2.35Z"/><path class="uuid-f342bc53-b0ff-44fa-a4b4-89d71bd0150b" d="m111.51,13.92l1.94-5.71c.42-1.22.71-2.48.93-3.73.27,1.06.69,2.42,1.25,4.05l1.84,5.39h-5.97Zm-5.07,8h2.46l1.94-5.91h7.35l2.06,5.91h2.63l-7.2-19.49h-2.51l-6.74,19.49Zm-13.46-10.89v-6.45h5.58c1.3,0,2.26.3,2.85.9.61.6.91,1.36.91,2.26,0,.65-.15,1.22-.47,1.77-.32.52-.76.93-1.35,1.17-.61.24-1.45.35-2.51.35h-5.01Zm-2.31,10.89h2.31v-8.66h2.7c.61,0,1.03.03,1.3.11.37.08.71.24,1.06.52.34.25.74.68,1.18,1.28.44.63,1.01,1.52,1.7,2.69l2.31,4.06h2.92l-3.05-5.31c-.59-1.03-1.25-1.9-1.94-2.58-.32-.33-.79-.65-1.4-.98,1.7-.24,2.95-.84,3.76-1.8.79-.95,1.2-2.12,1.2-3.51,0-1.06-.25-2.04-.74-2.91-.49-.9-1.13-1.52-1.94-1.88-.84-.33-2.01-.52-3.59-.52h-7.79v19.49Zm-16.54,0h2.33v-6.75l2.87-3.1,6.26,9.85h3.07l-7.69-11.6,7.37-7.89h-3.17l-8.72,9.66V2.44h-2.33v19.49Z"/><path class="uuid-3c83f175-43bd-441a-aa7d-bc5c259c8f60" d="m33.9,8.3c-.11-.07-.24-.05-.37-.03l-2.48.29c-.19.08-.27.3-.19.48.09.18.31.26.5.2l1.17-.11-1.61,1.77-2.97.19-.11.18-1.04,1.73h-3.4l-.11.15-1.03,1.36h-3.44l-.11.16-1.26,1.94c-.11.17-.07.39.1.5.17.11.41.07.52-.1l1.15-1.78h3.42l.11-.15,1.03-1.36h3.46l.11-.18,1.04-1.73,2.89-.23.09-.09,1.86-1.95-.04,1.47c-.02.2.14.37.34.39.21.02.39-.13.4-.33l.13-2.44c0-.13-.05-.25-.16-.33"/></g></svg>