<?xml version="1.0" encoding="UTF-8"?><svg id="uuid-1810413a-89e5-45d6-be9e-d2482e6808a0" xmlns="http://www.w3.org/2000/svg" viewBox="0 0 66 79.71"><g id="uuid-59372672-c214-4b84-94a5-5c3062d9170d"><path d="M49.33,23.17l8.22.03c-.26,2.35-1.33,4.57-3.01,6.23-.2.2-.42.39-.64.58l-4.57-6.84M47.3,22.08l6.34,9.48c.6-.4,1.15-.85,1.66-1.36,2.16-2.13,3.39-5.04,3.4-8.08l-11.4-.04h0Z" fill="#fff" stroke-width="0"/><path d="M24.67,22.44v5.5h-2.14v-5.5h2.14M25.33,21.44h-3.48c-.19,0-.33.15-.33.33v6.83c0,.18.15.33.33.33h3.48c.18,0,.33-.15.33-.33v-6.83c0-.18-.15-.33-.33-.33h0Z" fill="#fff" stroke-width="0"/><path d="M11.73,18.26v9.69h-2.14v-9.69s2.14,0,2.14,0M12.4,17.26h-3.48c-.19,0-.34.15-.33.33v11.02c0,.18.15.33.33.33h3.48c.18,0,.33-.15.33-.33v-11.02c0-.18-.15-.33-.33-.33h0Z" fill="#fff" stroke-width="0"/><path d="M18.2,15.91v12.04h-2.14v-12.04s2.14,0,2.14,0M18.87,14.91h-3.48c-.19,0-.34.15-.33.33v13.37c0,.18.15.33.33.33h3.48c.18,0,.33-.15.33-.33v-13.37c0-.18-.15-.33-.33-.33h0Z" fill="#fff" stroke-width="0"/><path d="M64.92,1.08v72.2c-.12,1.75-.63,3.05-1.49,3.87-.91.87-2.36,1.36-4.28,1.47H1.08V1.08h63.83M66,0H0v79.71h59.17c2.23-.12,3.89-.72,4.99-1.77,1.09-1.03,1.69-2.58,1.83-4.62V0h0Z" fill="#fff" stroke-width="0"/><path d="M47.56,9.17c2.33.21,4.53,1.18,6.27,2.78,1.63,1.5,2.74,3.46,3.21,5.6l-9.02.64-.45-9.03M46.42,8.03l.57,11.32,11.31-.8c-.32-2.93-1.7-5.52-3.73-7.39-2.11-1.94-4.92-3.12-7.98-3.12-.04,0-.09,0-.13,0h-.03Z" fill="#fff" stroke-width="0"/><path d="M42.08,10.74l1.61,10.97c.02.14.07.27.13.38l5.54,9.6c-1.44.65-3.01,1-4.6,1-6.14,0-11.14-5-11.14-11.14,0-5.13,3.57-9.6,8.46-10.81M42.99,9.46c-6,.87-10.45,6.03-10.45,12.09,0,6.75,5.47,12.22,12.22,12.22,2.14,0,4.25-.56,6.11-1.64l-6.11-10.59-1.78-12.09h0Z" fill="#fff" stroke-width="0"/><line x1="7.53" y1="5.49" x2="20.57" y2="5.49" fill="none" stroke="#fff" stroke-linecap="round" stroke-linejoin="round"/><line x1="7.53" y1="40.61" x2="27.51" y2="40.61" fill="none" stroke="#fff" stroke-linecap="round" stroke-linejoin="round"/><line x1="7.53" y1="49.62" x2="27.51" y2="49.62" fill="none" stroke="#fff" stroke-linecap="round" stroke-linejoin="round"/><line x1="7.53" y1="58.64" x2="58.29" y2="58.64" fill="none" stroke="#fff" stroke-linecap="round" stroke-linejoin="round"/><line x1="7.53" y1="69.83" x2="58.29" y2="69.83" fill="none" stroke="#fff" stroke-linecap="round" stroke-linejoin="round"/><line x1="33.76" y1="49.62" x2="58.7" y2="49.62" fill="none" stroke="#fff" stroke-linecap="round" stroke-linejoin="round"/></g></svg>