<?xml version="1.0" encoding="UTF-8"?><svg id="uuid-70aa43a2-779f-41f3-adf0-2235e52995f6" xmlns="http://www.w3.org/2000/svg" viewBox="0 0 300 162.54"><g id="uuid-500b6fa6-96d7-4475-aef9-1b69d482fb05"><path d="m281.24,94.56l-5.99.13-3.03.05c-1.01.02-2.03,0-3.05.03h-.2v-5.32s-.01-.23-.01-.23h.23l6.03.03c2.01,0,4.02.05,6.03.07h.12v.13c0,.87-.04,1.73-.06,2.58l-.06,2.53Zm0,0l-.06-2.57c0-.85-.05-1.69-.06-2.52l.12.13c-2.01.02-4.02.07-6.03.07l-6.03.03.23-.23-.03,5.1-.2-.2c.99,0,1.99,0,2.98.02l3,.05,6.08.12Z" fill="#ebebeb" stroke-width="0"/><path d="m274.51,100.99l-5.98.13-3.03.05c-1.01,0-2.03,0-3.05.03h-.2v-.2l-.02-5.1v-.23h.23l6.03.03c2.01,0,4.02.05,6.03.07h.12v.12c0,.87-.04,1.73-.06,2.58l-.06,2.52Zm0,0l-.06-2.57c0-.85-.05-1.69-.06-2.52l.13.13c-2.01.02-4.02.07-6.03.07l-6.03.03.23-.23-.03,5.1-.2-.2c.99,0,1.98,0,2.98.02l3,.05,6.08.12Z" fill="#ebebeb" stroke-width="0"/><path d="m30.82,94.56l-5.98.13-3.03.05c-1.02.02-2.04,0-3.05.03h-.2v-.2l-.03-5.11v-.23h.23l6.03.03c2.01,0,4.02.05,6.03.07h.13v.13c0,.87-.04,1.73-.06,2.58l-.07,2.53Zm0,0l-.06-2.57c-.02-.85-.05-1.69-.06-2.52l.12.13c-2.01.02-4.02.07-6.03.07l-6.03.03.23-.23v5.1l-.2-.2c.99,0,1.99,0,2.98.02l2.99.08,6.07.1Z" fill="#ebebeb" stroke-width="0"/><path d="m24.09,100.99l-5.98.13-3.03.05c-1.01,0-2.03,0-3.05.03h-.2v-.2l-.02-5.1v-.23h.23l6.03.03c2.01,0,4.02.05,6.03.07h.13v.12c0,.87-.04,1.73-.06,2.58l-.07,2.52Zm0,0l-.06-2.57c0-.85-.05-1.69-.06-2.52l.12.13c-2.01.02-4.02.07-6.03.07l-6.03.03.23-.23-.03,5.1-.2-.2c.99,0,1.99,0,2.98.02l3,.05,6.08.12Z" fill="#ebebeb" stroke-width="0"/><path d="m287.97,100.99l-5.98.13-3.03.05c-1.02,0-2.04,0-3.05.03h-.2v-5.53h.23l6.03.03c2.01,0,4.02.05,6.03.07h.13v.12c0,.87-.04,1.73-.06,2.58l-.09,2.52Zm0,0l-.06-2.57c0-.85-.05-1.69-.06-2.52l.12.13c-2.01.02-4.02.07-6.03.07l-6.03.03.23-.23-.02,5.1-.2-.2c.99,0,1.99,0,2.98.02l3,.05,6.08.12Z" fill="#ebebeb" stroke-width="0"/><path d="m47.38,67.64l-5.98.13-3.03.05c-1.01,0-2.03,0-3.05.02h-.2v-5.53h.23l6.03.03c2.01,0,4.02.05,6.03.07h.12v.12c0,.87-.04,1.72-.06,2.57l-.09,2.53Zm0,0l-.06-2.58c-.02-.85-.05-1.69-.06-2.52l.13.12c-2.01.02-4.02.07-6.03.07l-6.03.03.23-.23-.03,5.1-.2-.2c.99,0,1.99,0,2.98.03l3,.05,6.08.13Z" fill="#ebebeb" stroke-width="0"/><path d="m102.79,114.16l-5.98.13-3.03.05c-1.01.02-2.03,0-3.05.03h-.2v-5.53h.23l6.03.03c2.01,0,4.02.05,6.03.07h.12v.12c0,.87-.04,1.73-.06,2.58l-.09,2.52Zm0,0l-.06-2.57c-.02-.85-.05-1.69-.06-2.52l.12.13c-2.01,0-4.02.07-6.03.07l-6.03.03.23-.23-.03,5.1-.2-.2c.99,0,1.99,0,2.98.02l3.01.06,6.08.12Z" fill="#ebebeb" stroke-width="0"/><rect x="20.01" y="47.24" width="44.54" height="82.83" fill="#ebebeb" stroke-width="0"/><rect x="17.85" y="44.95" width="48.85" height="2.29" fill="#dbdbdb" stroke-width="0"/><rect x="2.49" y="44.95" width="15.36" height="2.29" fill="#ebebeb" stroke-width="0"/><rect x="4.92" y="47.24" width="15.09" height="82.83" fill="#dbdbdb" stroke-width="0"/><path d="m59.75,100.58H24.8v-19.76h34.95v19.76Zm-34.84-.11h34.72v-19.53H24.91v19.53Z" fill="#c7c7c7" stroke-width="0"/><rect x="40.35" y="86.59" width="6.8" height="3.91" fill="#c7c7c7" stroke-width="0"/><path d="m45.2,90.27h-6.92v-3.44h6.92v3.44Zm-6.78-.11h6.69v-3.21h-6.69v3.21Z" fill="#c7c7c7" stroke-width="0"/><path d="m59.75,125.39H24.8v-19.76h34.95v19.76Zm-34.84-.11h34.72v-19.53H24.91v19.53Z" fill="#c7c7c7" stroke-width="0"/><rect x="40.35" y="111.41" width="6.8" height="3.91" fill="#c7c7c7" stroke-width="0"/><path d="m45.2,115.08h-6.92v-3.43h6.92v3.43Zm-6.78-.13h6.69v-3.19h-6.69v3.19Z" fill="#c7c7c7" stroke-width="0"/><rect x="24.86" y="56.07" width="34.84" height="19.64" fill="#a6a6a6" stroke-width="0"/><rect x="28.25" y="51.04" width="26.52" height="19.22" fill="#c7c7c7" stroke-width="0"/><polygon points="45.4 49.04 54.77 49.04 54.77 51.04 44.86 51.04 45.4 49.04" fill="#c7c7c7" stroke-width="0"/><polygon points="28.32 70.26 54.84 70.26 56.88 52.63 30.36 52.63 28.32 70.26" fill="#a6a6a6" stroke-width="0"/><polygon points="47.73 50.81 57.09 50.81 56.88 52.63 46.97 52.63 47.73 50.81" fill="#a6a6a6" stroke-width="0"/><rect x="41.64" y="56.07" width="34.84" height="19.64" fill="#ebebeb" stroke-width="0"/><path d="m76.53,75.79h-34.93v-19.78h34.95l-.02,19.78Zm-34.84-.11h34.72v-19.55h-34.72v19.55Z" fill="#c7c7c7" stroke-width="0"/><rect x="57.13" y="61.78" width="6.8" height="3.91" fill="#c7c7c7" stroke-width="0"/><path d="m61.98,65.45h-6.92v-3.43h6.92v3.43Zm-6.8-.11h6.69v-3.19h-6.69v3.19Z" fill="#c7c7c7" stroke-width="0"/><rect x="24.86" y="59.01" width="16.7" height="16.7" fill="#dbdbdb" stroke-width="0"/><rect x="245.79" y="107.12" width="30.43" height="22.95" fill="#ebebeb" stroke-width="0"/><rect x="276.23" y="107.12" width="15.71" height="22.95" fill="#dbdbdb" stroke-width="0"/><path d="m290.85,128.62c-1.16-1.64-2.31-3.27-3.46-4.91l-3.41-4.94-3.37-4.96c-1.11-1.66-2.22-3.32-3.32-4.98,1.17,1.63,2.32,3.27,3.46,4.91l3.41,4.94,3.37,4.93c1.12,1.66,2.22,3.33,3.31,5.01Z" fill="#ebebeb" stroke-width="0"/><path d="m290.85,108.82c-1.09,1.67-2.2,3.33-3.32,4.98l-3.37,4.96-3.41,4.94c-1.14,1.65-2.3,3.28-3.46,4.91,1.1-1.67,2.2-3.34,3.32-5.01l3.37-4.96,3.41-4.94c1.14-1.63,2.29-3.26,3.46-4.89Z" fill="#ebebeb" stroke-width="0"/><rect x="254.5" y="110.75" width="13.02" height="2.99" fill="#c7c7c7" stroke-width="0"/><rect x="253.15" y="118.34" width="15.71" height="4.76" fill="#fff" stroke-width="0"/><rect x="244.31" y="103.77" width="49.09" height="3.31" fill="#c7c7c7" stroke-width="0"/><rect x="252.39" y="80.82" width="30.43" height="22.95" fill="#ebebeb" stroke-width="0"/><rect x="282.83" y="80.82" width="15.71" height="22.95" fill="#dbdbdb" stroke-width="0"/><path d="m297.46,102.31c-1.17-1.64-2.32-3.27-3.46-4.91l-3.41-4.93-3.37-4.96c-1.11-1.65-2.22-3.31-3.31-4.98,1.16,1.63,2.32,3.27,3.46,4.91l3.41,4.94,3.37,4.96c1.12,1.65,2.22,3.32,3.32,4.98Z" fill="#ebebeb" stroke-width="0"/><path d="m297.46,82.52c-1.1,1.67-2.2,3.33-3.32,4.98l-3.37,4.96-3.41,4.93c-1.14,1.65-2.29,3.28-3.46,4.91,1.09-1.67,2.2-3.33,3.31-4.98l3.37-4.96,3.41-4.94c1.14-1.64,2.3-3.28,3.46-4.91Z" fill="#ebebeb" stroke-width="0"/><rect x="261.1" y="84.45" width="13.02" height="2.99" fill="#c7c7c7" stroke-width="0"/><rect x="259.75" y="92.05" width="15.71" height="4.76" fill="#fff" stroke-width="0"/><rect x="250.91" y="77.49" width="49.09" height="3.31" fill="#c7c7c7" stroke-width="0"/><g id="uuid-8c04a37a-d1be-42d4-9993-ac7e700cfe04"><polygon points="0 130.07 37.5 129.96 75 129.92 150 129.84 225 129.92 262.5 129.96 300 130.07 262.5 130.18 225 130.22 150 130.29 75 130.22 37.5 130.18 0 130.07" fill="#263238" stroke-width="0"/></g><g id="uuid-c9578d12-9fb5-456d-83bb-4074a03b41e3"><ellipse cx="150" cy="152.39" rx="140.76" ry="10.14" fill="#ebebeb" stroke-width="0"/></g><g id="uuid-5b7a520b-789d-4703-b1cf-b3d1f96f2c25"><path d="m105.89,78.45c.14-2.3.46-4.58.97-6.83.48-2.02,1.17-4.1,2.44-5.76,1.17-1.53,2.84-2.73,4.79-2.98,1.88-.23,3.64.61,5.04,1.79,1.74,1.47,3.07,3.4,4.32,5.28,1.37,2.1,2.61,4.28,3.73,6.53.04.07-.07.14-.11.06-.97-1.91-2.08-3.73-3.34-5.47-1.14-1.66-2.42-3.22-3.84-4.65-1.28-1.26-2.92-2.43-4.78-2.49s-3.57.98-4.69,2.41c-1.25,1.6-1.88,3.59-2.36,5.54-.49,2.14-.81,4.32-.96,6.51-.36,4.5-.46,9.03-.56,13.54-.06,2.55-.1,5.11-.12,7.67,0,1.29,0,2.59-.03,3.88.05,1.25,0,2.5-.15,3.74-.05.25-.46.23-.5,0-.15-1.18-.21-2.36-.17-3.55-.02-1.21-.03-2.44-.05-3.68,0-2.39-.03-4.77,0-7.15,0-4.8.05-9.61.37-14.38Z" fill="#263238" stroke-width="0"/><path d="m112.33,75.05c.24-1.28.67-2.93,1.39-3.92,1.31-1.77,2.73-1,1.41.96-.96,1.46-1.58,3.11-1.82,4.84,0,0,2.19,3.13,4.84,4.67-.11-1.2-.46-3.05-.22-4.84.51-3.87,2.85-3.64,2.28-.58-.46,2.46-.66,5.08-.53,6.21.88.57,1.83,1.03,2.82,1.37-.15-.46-.31-.98-.49-1.64-.94-3.47,1.37-4.55,1.45-2.6.15,1.66.46,3.31.91,4.91,1.27.43,2.32.72,2.96.94,1.67.62,3.16,1.64,4.34,2.96,1.2-1.09,2.2-2.39,2.95-3.83-.81-.69-2.09-1.73-3.86-2.98-3.32-2.35-2.17-5.31.46-3.47,1.9,1.33,3.37,3.79,4.04,5.06.89-2.2,1.39-4.53,1.49-6.9-2.61-2.45-9.06-5.87-7.12-5.87,1.75,0,5.67,2.57,7.1,3.56-.04-.67-.11-1.34-.22-2.01-2.46-1.61-10.45-4.1-9.18-4.84,1.4-.79,6.97,1.79,8.65,2.61-.32-1.1-.82-2.13-1.48-3.06-3.4-4.55-9.52-6.11-12.2-5.25-1.89.61-1.34,5.41-1.74,5.25-7.59-3.06-11.04-.9-8.25,8.42Zm18.62-.53c.54-.65,3.03,1.27,2.31,2.31s-3.01-1.48-2.31-2.31h0Zm-13.03-4.1c.66.41-.31,2.84-1.33,2.1-.86-.61.66-2.52,1.33-2.1h0Z" fill="#407bff" stroke-width="0"/><path d="m118.92,71.18c.34-.68.7-1.37,1.09-2,.36-.64.78-1.25,1.25-1.82-.1-.13-.21-.27-.32-.4-.05-.05.03-.13.08-.08.13.15.25.29.37.46.03.01.05.04.05.06.46.56.91,1.14,1.33,1.73.75.17,1.48.38,2.2.64.75.25,1.48.51,2.21.82.07.03.04.16-.04.12-.72-.31-1.45-.62-2.19-.87s-1.42-.42-2.13-.62c.23.33.46.66.68.99,1.34.43,2.64.96,3.9,1.59,1.32.62,2.59,1.37,3.85,2.08.07.04,0,.15-.07.11-1.24-.74-2.53-1.37-3.83-1.98-1.22-.57-2.49-1.04-3.72-1.58,3.1,4.84,4.96,10.43,7.45,15.6.04.07-.08.14-.11.06-.76-1.82-1.64-3.58-2.46-5.37-.74-1.6-1.47-3.19-2.21-4.81-.22-.46-.46-.91-.67-1.4.14,2.59.08,5.22.51,7.77,0,.04-.03.06-.06.06-.04,0-.06-.03-.06-.06h0c-.18-2.76-.66-5.47-.65-8.26v-.04c-.52-1.06-1.08-2.1-1.69-3.12-1.03,2.42-2.11,4.88-2.59,7.48,0,.08-.15.04-.13-.04.7-2.6,1.37-5.21,2.61-7.62-.66-1.09-1.39-2.15-2.19-3.15-.35.64-.79,1.25-1.18,1.87s-.76,1.2-1.11,1.82c-.76,1.31-1.41,2.68-1.94,4.1-.03.08-.15.04-.12-.04.63-1.38,1.2-2.76,1.88-4.1Z" fill="#263238" stroke-width="0"/><path d="m94.46,77.06c1.99-1.99,4.3-4.61,7.38-4.61,2.97,0,5.15,2.4,6.41,4.86,1.31,2.58,1.79,5.5,2.15,8.34.44,3.4.7,6.82.79,10.25.05,1.9.05,3.81,0,5.72,0,1.93-.16,3.86-.46,5.77-.05.31-.55.32-.56,0-.09-1.6-.03-3.22,0-4.82s0-3.16-.07-4.74c-.12-3.19-.35-6.38-.72-9.56-.33-2.77-.59-5.62-1.42-8.3-.75-2.42-2.15-5.18-4.6-6.24-3.34-1.45-6.61,1.19-8.79,3.43-.06.05-.16-.03-.1-.09Z" fill="#263238" stroke-width="0"/><path d="m84.31,81.53h0c0,.41.04.81.07,1.2.96-.72,2.08-1.19,3.26-1.37,2.82-.3,2.65,1.82.76,1.94-1.33.02-2.64.28-3.88.78.46,3.73,1.49,6.73,1.64,6.77,2.51-.14,5-.45,7.46-.94-.71-1.5-2.3-3.48-1.49-3.64s1.71,1.61,2.16,3.51c1.85-.35,3.66-.85,5.43-1.49-1.24-1.07-3.16-2.41-2.43-2.98s2.28,1.31,3.19,2.68c.83-.34,1.62-.78,2.35-1.31-1.68-2.46-5.76-2.96-5.22-4.74s4.35.69,6.06,3.98c2.02-2.09,2.61-5.04,2.39-7.56-1.75-.2-5.12.16-4.88-1.09s2.68-1.02,4.68-.29c-.18-1-.58-1.94-1.17-2.77-1.87-2.36-7.52.68-7.52.68,0,0,.61-5.67-1.55-6.65-1.24-.56-3.42-.56-5.62.73,1.23.1,2.73.49,3.32,1.34.77,1.09-.46,1.69-1.21,1.18-.54-.36-1.55-1.48-3.37-1.63-.78.65-1.46,1.41-2.04,2.25-.21.3-.41.61-.6.94,2.11-.95,4.53-.91,6.6.12,2.45,1.22,1.08,3.76-1.02,2.77s-4.1-1.96-6.34-1.4c-.78,2.01-1.15,4.16-1.07,6.32,1.09-.8,2.32-1.39,3.62-1.74,2.43-.64,3.19.82.5,1.09-1.44.16-2.83.6-4.09,1.32Zm2.96-3.9c-.17-.79,1.55-1.02,1.82-.38.26.55-1.66,1.17-1.82.36h0Zm14.75,4.36c.16-.43,1.32.06,1.21.6-.14.72-1.37-.16-1.21-.6h0Zm-8.14,2.76c.84-.34,2.15,1.75,1.24,2.23s-1.93-1.95-1.24-2.23h0Z" fill="#407bff" stroke-width="0"/><path d="m86.49,90.44c1.27-2.12,2.52-4.25,3.85-6.33.62-.97,1.27-1.92,1.94-2.85l-.31-.07c-.16-.04-.33-.07-.5-.1-.39-.07-.78-.12-1.18-.16-.37-.04-.74-.06-1.12-.06-.4-.02-.8,0-1.19.06-.05,0-.05-.06,0-.06.4,0,.8-.04,1.2-.04s.77,0,1.16.03.72.06,1.07.11c.2.03.4.06.59.1.12.02.24.04.36.07.69-.94,1.4-1.87,2.14-2.77-2.19-1.07-4.53-1.81-6.94-2.21-.04,0,0-.07,0-.06,2.44.34,4.82,1.06,7.03,2.14.41-.5.82-.99,1.23-1.48s.95-1.09,1.37-1.68c.03-.04.08,0,.05.04-.57.63-1.11,1.29-1.61,1.97h0c.91.63,1.77,1.32,2.58,2.07.84.75,1.67,1.52,2.46,2.31.03.03,0,.07-.05.05-.79-.79-1.61-1.53-2.46-2.25s-1.76-1.37-2.62-2.07h0c-.2.26-.39.52-.59.78l-.3.39-.02.03-.98,1.29c.38.56.71,1.15.98,1.77.28.6.53,1.22.76,1.82.45,1.29.81,2.62,1.06,3.97,0,.04-.05.06-.06,0-.27-1.33-.66-2.63-1.15-3.89-.25-.65-.53-1.28-.82-1.91s-.58-1.12-.83-1.7c-.29.38-.57.76-.85,1.14-.08.11-.15.23-.24.34.01.02.01.04,0,.05,0,0-.01,0-.02,0h0c-.87,1.21-1.7,2.46-2.5,3.72.05.09.08.18.11.27.05.15.1.31.15.46.09.31.16.62.22.94.05.3.1.6.13.91,0,.34.03.68.07,1.02,0,.05-.07.05-.06,0,.02-.32,0-.64-.07-.96-.05-.33-.1-.65-.18-.97s-.15-.58-.23-.87c-.05-.15-.09-.29-.14-.43-.02-.07-.06-.15-.09-.23-.38.59-.75,1.19-1.12,1.78-.73,1.18-1.45,2.37-2.18,3.56-.04.08-.13.03-.1-.03Z" fill="#263238" stroke-width="0"/><path d="m106.03,106.7c.03-1.2.22-2.41.35-3.6s.27-2.4.4-3.6c.25-2.31.38-4.67.91-6.94.4-1.97,1.38-3.78,2.82-5.19.75-.74,1.72-1.21,2.77-1.32,1.05-.03,2.09.29,2.94.91.97.72,1.81,1.6,2.47,2.61.72,1,1.36,2.04,1.93,3.13.02.04-.05.07-.07.03-1.07-1.82-2.49-3.41-4.17-4.67-.75-.62-1.66-1-2.63-1.1-.95-.02-1.87.35-2.55,1.02-1.4,1.22-2.21,3.01-2.69,4.77-.57,2.08-.76,4.27-1.04,6.41-.17,1.27-.33,2.54-.5,3.81s-.27,2.56-.54,3.81c-.05.11-.17.15-.28.11-.07-.03-.12-.1-.13-.17Z" fill="#263238" stroke-width="0"/><path d="m111.93,97.38c.37.5.81.95,1.3,1.33-.2-1.17-.46-3.25.15-4.36.91-1.72,2.01-.87,1.46.63-.55,1.35-.85,2.79-.89,4.24,1.25.78,2.59,1.42,3.99,1.88-.15-.67-.19-1.37-.13-2.05.18-1.82,1.59-1.82,1.23.11-.13.74-.2,1.5-.19,2.25,2.03.63,4.11,1.09,6.21,1.4,1.08-1.39,1.94-2.94,2.57-4.58-1.5-.37-4.53-.46-4.46-1.53.09-1.44,3.02-.33,4.74.72.39-1.25.57-2.56.52-3.88-1.35-.38-2.73-.61-4.13-.68-3.08-.27-2.93-2.02-.7-1.98,1.65.03,3.73,1.04,4.72,1.57-.64-4.19-3.84-6.88-6.41-6.99-4.31-.17-2.76,5.19-2.76,5.19,0,0-2.92-2.05-5.68-2s-4.5,4.62-1.55,8.72Zm11.52-7.74c-.1-.61,1.82-.75,1.93.03.12.85-1.83.57-1.93-.04h0Zm3.1,6.29c-.04-.39.79-.46.98.04.12.31-.95.34-.98-.05h0Zm-10.36.37c.65.09,1.02,2.41-.1,2.37-.85-.05-.45-2.46.1-2.39v.02Z" fill="#407bff" stroke-width="0"/><path d="m117.09,98.87c.11-.29.2-.58.3-.88-.08.3-.16.6-.21.91,0,.02-.03.03-.06.03s-.03-.03-.03-.06h0Z" fill="#263238" stroke-width="0"/><path d="m118.23,95.13c.2-.59.43-1.18.66-1.77.13-.31.26-.62.39-.91.1-.27.23-.53.38-.78-.13-.24-.25-.49-.35-.75,0-.01,0-.03,0-.03.01,0,.03,0,.03,0,.32.41.6.85.84,1.3l.35.61c.24.02.49.06.72.11.26.05.51.1.77.15l.77.18c.26.06.51.14.77.18.06,0,.04.1,0,.08-.26-.09-.53-.16-.81-.21-.25-.05-.49-.1-.74-.14s-.51-.06-.76-.09l-.57-.05c.1.18.21.36.31.54.01.03.03.06.05.09.21,0,.42.02.62.07.22.04.46.08.66.13.46.1.91.2,1.34.33.93.26,1.85.56,2.77.86.05,0,0,.1-.03.08-.91-.31-1.84-.57-2.79-.77-.46-.1-.88-.2-1.33-.29l-.66-.14c-.17-.03-.35-.07-.51-.11.47.87.92,1.77,1.33,2.67.91,1.98,1.64,4.02,2.41,6.05,0,.05-.06.09-.08.04-.74-2.02-1.6-4-2.57-5.92l-.52-1.05c0,.07-.03.14-.05.21-.05.24-.09.46-.13.72-.08.48-.16.96-.24,1.44-.21.99-.32,1.99-.35,3,0,.06-.1.06-.08,0,.06-.48.09-.97.1-1.46.03-.51.07-1.01.13-1.51s.12-.97.2-1.45c.04-.24.08-.48.12-.72.01-.18.06-.36.14-.52-.25-.51-.5-1.02-.76-1.52s-.48-.95-.73-1.42c-.1-.2-.22-.4-.33-.6-.08.25-.18.49-.29.72-.11.27-.22.55-.33.82-.25.6-.48,1.21-.71,1.82-.32.87-.68,1.75-.95,2.65.25-.9.47-1.8.76-2.67Z" fill="#263238" stroke-width="0"/><path d="m117.39,97.99c0-.07.04-.14.06-.21-.02.07-.04.14-.06.21Z" fill="#263238" stroke-width="0"/><polygon points="98.82 104.37 99.12 110.79 99.9 127.33 116.97 127.33 117.75 110.79 118.06 104.37 98.82 104.37" fill="#37474f" stroke-width="0"/><polygon points="98.82 104.37 99.12 110.79 117.75 110.79 118.06 104.37 98.82 104.37" fill="#263238" stroke-width="0"/><rect x="97.61" y="101.77" width="21.67" height="5.19" fill="#37474f" stroke-width="0"/><rect x="112.59" y="127.33" width="3" height="2.72" fill="#37474f" stroke-width="0"/><rect x="112.59" y="127.33" width="3" height="1.36" fill="#263238" stroke-width="0"/><rect x="101.28" y="127.33" width="2.99" height="2.72" fill="#37474f" stroke-width="0"/><rect x="101.28" y="127.33" width="2.99" height="1.36" fill="#263238" stroke-width="0"/></g><g id="uuid-f103d7c3-1d6a-43c7-bccd-456c1a40cdfb"><rect x="148.99" y="54.44" width="121.69" height="81.4" fill="#dbdbdb" stroke-width="0"/><rect x="149.87" y="55.44" width="119.92" height="79.41" fill="#263238" stroke-width="0"/><rect x="133.14" y="141.94" width="153.38" height="5.59" fill="#c7c7c7" stroke-width="0"/><polygon points="133.14 141.94 148.99 135.84 270.67 135.84 286.52 141.94 133.14 141.94" fill="#dbdbdb" stroke-width="0"/><polygon points="150.41 139.78 160.63 135.84 259.03 135.84 269.26 139.78 150.41 139.78" fill="#263238" stroke-width="0"/><rect x="156.65" y="61.47" width="106.36" height="67.35" fill="#fff" stroke-width="0"/><rect x="156.65" y="61.47" width="106.36" height="2.59" fill="#455a64" stroke-width="0"/><path d="m159.11,62.77c0,.27-.22.49-.49.49s-.49-.22-.49-.49.22-.49.49-.49h0c.27,0,.49.22.49.49Z" fill="#c7c7c7" stroke-width="0"/><path d="m161.09,62.77c0,.27-.22.49-.49.49s-.49-.22-.49-.49.22-.49.49-.49h0c.27,0,.49.22.49.49Z" fill="#fff" stroke-width="0"/><path d="m163.09,62.77c0,.27-.22.49-.49.49-.27,0-.49-.22-.49-.49s.22-.49.49-.49c0,0,0,0,0,0,.27,0,.49.22.49.49Z" fill="#407bff" stroke-width="0"/><rect x="261.13" y="64.06" width="1.89" height="64.75" fill="#dbdbdb" stroke-width="0"/><path d="m262.07,86.51h0c-.27,0-.48-.21-.49-.48,0,0,0,0,0,0v-21.1c0-.27.21-.48.48-.49,0,0,0,0,0,0h0c.27,0,.49.22.49.49h0v21.1c0,.27-.22.49-.49.49Z" fill="#a6a6a6" stroke-width="0"/><path d="m239.95,123.93h-60.22v-3.89h60.22v3.89Zm-60-.23h59.77v-3.44h-59.77v3.44Z" fill="#407bff" stroke-width="0"/><rect x="180.53" y="120.85" width="1.36" height="2.27" fill="#407bff" stroke-width="0"/><rect x="182.41" y="120.85" width="1.36" height="2.27" fill="#407bff" stroke-width="0"/><rect x="184.29" y="120.85" width="1.36" height="2.27" fill="#407bff" stroke-width="0"/><rect x="186.16" y="120.85" width="1.36" height="2.27" fill="#407bff" stroke-width="0"/><rect x="188.04" y="120.85" width="1.36" height="2.27" fill="#407bff" stroke-width="0"/><rect x="189.91" y="120.85" width="1.36" height="2.27" fill="#407bff" stroke-width="0"/><rect x="191.79" y="120.85" width="1.36" height="2.27" fill="#407bff" stroke-width="0"/><rect x="193.67" y="120.85" width="1.36" height="2.27" fill="#407bff" stroke-width="0"/><rect x="195.55" y="120.85" width="1.36" height="2.27" fill="#407bff" stroke-width="0"/><rect x="197.43" y="120.85" width="1.36" height="2.27" fill="#407bff" stroke-width="0"/><rect x="199.3" y="120.85" width="1.36" height="2.27" fill="#407bff" stroke-width="0"/><rect x="201.18" y="120.85" width="1.36" height="2.27" fill="#407bff" stroke-width="0"/></g><g id="uuid-297df229-5feb-421a-97b9-9e850c16faaf"><rect x="192.62" y="90.08" width="37.25" height="24.08" fill="#407bff" stroke-width="0"/><polygon points="204.36 87.58 192.62 87.58 192.62 90.08 205.03 90.08 204.36 87.58" fill="#407bff" stroke-width="0"/><g opacity=".1"><rect x="192.62" y="90.08" width="37.25" height="24.08" stroke-width="0"/><polygon points="204.36 87.58 192.62 87.58 192.62 90.08 205.03 90.08 204.36 87.58" stroke-width="0"/></g><polygon points="192.74 97.01 215.86 104.27 225.18 74.61 208.02 69.21 200.29 73 192.74 97.01" fill="#ebebeb" stroke-width="0"/><polygon points="208.02 69.21 200.29 73 206.25 74.87 208.02 69.21" fill="#dbdbdb" stroke-width="0"/><rect x="214.42" y="70.5" width=".8" height="13.47" transform="translate(76.72 259.01) rotate(-72.55)" fill="#dbdbdb" stroke-width="0"/><rect x="213.82" y="72.42" width=".8" height="13.47" transform="translate(74.47 259.78) rotate(-72.55)" fill="#dbdbdb" stroke-width="0"/><rect x="213.22" y="74.34" width=".8" height="13.47" transform="translate(72.21 260.55) rotate(-72.55)" fill="#dbdbdb" stroke-width="0"/><rect x="209.62" y="72.19" width=".8" height="19.74" transform="translate(68.76 257.81) rotate(-72.55)" fill="#dbdbdb" stroke-width="0"/><rect x="209.02" y="74.11" width=".8" height="19.74" transform="translate(66.5 258.58) rotate(-72.55)" fill="#dbdbdb" stroke-width="0"/><rect x="208.41" y="76.03" width=".8" height="19.74" transform="translate(64.24 259.34) rotate(-72.55)" fill="#dbdbdb" stroke-width="0"/><rect x="207.81" y="77.96" width=".8" height="19.74" transform="translate(61.98 260.12) rotate(-72.55)" fill="#dbdbdb" stroke-width="0"/><rect x="207.2" y="79.88" width=".8" height="19.74" transform="translate(59.72 260.89) rotate(-72.55)" fill="#dbdbdb" stroke-width="0"/><rect x="205.68" y="81.33" width=".79" height="19.66" transform="translate(57.09 260.22) rotate(-72.47)" fill="#dbdbdb" stroke-width="0"/><rect x="206" y="83.73" width=".8" height="19.74" transform="translate(55.21 262.43) rotate(-72.55)" fill="#dbdbdb" stroke-width="0"/><rect x="205.39" y="85.66" width=".8" height="19.74" transform="translate(52.95 263.2) rotate(-72.55)" fill="#dbdbdb" stroke-width="0"/><rect x="204.79" y="87.58" width=".8" height="19.74" transform="translate(50.69 263.97) rotate(-72.55)" fill="#dbdbdb" stroke-width="0"/><polygon points="229.78 114.16 192.53 114.16 189.97 92.07 227.22 92.07 229.78 114.16" fill="#407bff" stroke-width="0"/><polygon points="201.44 89.79 189.7 89.79 189.97 92.07 202.38 92.07 201.44 89.79" fill="#407bff" stroke-width="0"/></g><g id="uuid-446fc9c0-3809-484a-9ccd-6a6fbe828cd9"><path d="m141.02,31.02c-1.68-9-3.36-17.91-5.03-26.71-11.18,1.33-22.28,7.17-33.48,7.06,1.68,9.01,3.35,17.91,5.01,26.71,11.2-1.33,22.3-7.17,33.51-7.06Z" fill="#dbdbdb" stroke-width="0"/><path d="m107.94,13.51c.94,4.88,1.87,9.74,2.79,14.57l.86-.17c-.93-4.82-1.86-9.66-2.79-14.51l-.86.11Z" fill="#c7c7c7" stroke-width="0"/><path d="m110.11,13.15c.93,4.86,1.86,9.68,2.79,14.47l.86-.2c-.93-4.8-1.86-9.61-2.79-14.44-.29.05-.57.11-.86.16Z" fill="#c7c7c7" stroke-width="0"/><path d="m112.28,12.71c.93,4.82,1.86,9.61,2.79,14.39l.86-.22-2.79-14.36c-.29.07-.57.14-.86.2Z" fill="#c7c7c7" stroke-width="0"/><path d="m114.48,12.2c1.36,7.01,2.73,13.99,4.1,20.95l.86-.25c-1.36-6.97-2.73-13.95-4.1-20.95l-.86.25Z" fill="#c7c7c7" stroke-width="0"/><path d="m116.62,11.63c1.36,6.98,2.73,13.95,4.1,20.91l.86-.25c-1.36-6.96-2.72-13.93-4.1-20.9l-.86.24Z" fill="#c7c7c7" stroke-width="0"/><path d="m118.79,11.02c1.36,6.98,2.73,13.95,4.1,20.89l.86-.25c-1.36-6.97-2.73-13.93-4.1-20.89l-.86.25Z" fill="#c7c7c7" stroke-width="0"/><path d="m120.96,10.39c1.36,6.96,2.73,13.93,4.1,20.89l.86-.25c-1.36-6.98-2.73-13.95-4.1-20.9l-.86.25Z" fill="#c7c7c7" stroke-width="0"/><path d="m123.13,9.75c1.36,6.96,2.73,13.93,4.1,20.92l.86-.23c-1.36-7-2.73-13.98-4.1-20.95l-.86.26Z" fill="#c7c7c7" stroke-width="0"/><path d="m125.29,9.13c1.36,6.98,2.73,13.98,4.1,20.98l.86-.2c-1.37-7.03-2.73-14.04-4.1-21.01l-.86.24Z" fill="#c7c7c7" stroke-width="0"/><path d="m127.46,8.54c1.36,6.98,2.73,14.01,4.1,21.07l.86-.18c-1.36-7.07-2.73-14.11-4.1-21.11l-.86.22Z" fill="#c7c7c7" stroke-width="0"/><path d="m129.63,7.99c1.36,7.03,2.73,14.09,4.1,21.19l.86-.14c-1.37-7.13-2.73-14.21-4.1-21.25l-.86.2Z" fill="#c7c7c7" stroke-width="0"/><path d="m131.78,7.5c1.36,7.07,2.73,14.18,4.1,21.34l.86-.1c-1.37-7.19-2.73-14.32-4.1-21.41l-.86.17Z" fill="#c7c7c7" stroke-width="0"/><path d="m136.82,20.74c-.11,7.87-.21,15.74-.31,23.61,12.59,12.26,25.19-8.28,37.8,3.58l.23-17.53c-1.91-3.64-4.31-7.01-7.12-10.02-10.21-1.8-20.41,9.86-30.6.36Z" fill="#ebebeb" stroke-width="0"/><path d="m174.52,30.4c-1.91-3.64-4.31-7.01-7.12-10.02l-.1,6.13c2.41.41,4.81,1.55,7.21,3.88Z" fill="#dbdbdb" stroke-width="0"/><path d="m167.98,42.08l.18-13.25c-.32-.08-.65-.14-.97-.2l-.18,13.27c.32.03.65.09.97.18Z" fill="#dbdbdb" stroke-width="0"/><path d="m165.53,41.77c.05-4.43.11-8.86.17-13.29h-.97c-.06,4.43-.12,8.86-.17,13.3.32-.02.65-.02.97,0Z" fill="#dbdbdb" stroke-width="0"/><path d="m163.08,41.9c.06-4.44.12-8.88.17-13.32-.32.04-.65.09-.97.14-.05,4.44-.11,8.88-.17,13.33.32-.06.65-.11.97-.15Z" fill="#dbdbdb" stroke-width="0"/><path d="m160.63,42.36l.26-19.54-.97.24-.26,19.55c.32-.07.65-.17.97-.26Z" fill="#dbdbdb" stroke-width="0"/><path d="m158.2,43.05c.08-6.52.17-13.04.26-19.56-.32.1-.65.2-.97.31-.09,6.52-.17,13.04-.26,19.56l.97-.31Z" fill="#dbdbdb" stroke-width="0"/><path d="m155.73,43.85c.09-6.52.17-13.05.26-19.58l-.97.33c-.09,6.52-.17,13.05-.26,19.58l.97-.33Z" fill="#dbdbdb" stroke-width="0"/><path d="m153.28,44.66l.26-19.58-.97.31c-.08,6.52-.17,13.04-.26,19.56l.97-.28Z" fill="#dbdbdb" stroke-width="0"/><path d="m150.84,45.37c.08-6.52.17-13.03.26-19.55-.32.09-.65.17-.97.24-.09,6.51-.17,13.03-.26,19.54.32-.07.65-.15.97-.23Z" fill="#dbdbdb" stroke-width="0"/><path d="m148.39,45.88c.09-6.51.17-13.01.26-19.52-.32.05-.65.1-.97.14-.09,6.5-.17,13.01-.26,19.51.32-.03.65-.07.97-.12Z" fill="#dbdbdb" stroke-width="0"/><path d="m145.94,46.08c.09-6.49.17-12.99.26-19.48h-.97c-.08,6.49-.17,12.97-.26,19.46.32.01.65.02.97.02Z" fill="#dbdbdb" stroke-width="0"/><path d="m143.49,45.87c.08-6.48.17-12.95.26-19.43-.32-.05-.65-.12-.97-.2-.09,6.47-.17,12.95-.26,19.42.32.08.65.16.97.22Z" fill="#dbdbdb" stroke-width="0"/><path d="m141.04,45.13c.09-6.46.17-12.92.26-19.37-.32-.13-.65-.27-.97-.46-.09,6.45-.17,12.9-.26,19.35.32.19.65.35.97.48Z" fill="#dbdbdb" stroke-width="0"/><path d="m177.45,38.9c-4.69,7.47-9.44,15.03-14.24,22.7,14.77-5.92,12.21,18.99,25.47,15.78l9.11-14.23c1.12-1.66,2.24-3.33,3.36-5.01-14.29,4.96-10.99-21.37-23.7-19.23Z" fill="#dbdbdb" stroke-width="0"/><path d="m184.33,75.07l9.77-15.18c-.24-.1-.46-.22-.68-.35-3.25,5.04-6.5,10.09-9.75,15.15.21.14.44.27.66.38Z" fill="#c7c7c7" stroke-width="0"/><path d="m182.72,73.97l9.73-15.11c-.2-.17-.4-.35-.58-.53-3.23,5.02-6.48,10.05-9.73,15.11.19.19.38.37.58.54Z" fill="#c7c7c7" stroke-width="0"/><path d="m181.32,72.51c3.25-5.06,6.49-10.09,9.73-15.11-.17-.22-.34-.46-.51-.67l-9.73,15.12c.16.23.34.45.51.66Z" fill="#c7c7c7" stroke-width="0"/><path d="m180.06,70.78l9.77-15.18c-.15-.25-.3-.51-.46-.77-3.25,5.04-6.51,10.11-9.79,15.21l.47.74Z" fill="#c7c7c7" stroke-width="0"/><path d="m178.93,68.85l9.82-15.28-.41-.84-9.85,15.31.44.81Z" fill="#c7c7c7" stroke-width="0"/><path d="m177.82,66.86c3.32-5.18,6.63-10.32,9.91-15.43l-.4-.87c-3.3,5.13-6.61,10.29-9.95,15.49l.44.81Z" fill="#c7c7c7" stroke-width="0"/><path d="m176.71,64.86c3.36-5.25,6.7-10.46,10.02-15.64-.13-.29-.26-.57-.4-.86-3.34,5.2-6.7,10.44-10.08,15.73.16.27.31.52.46.76Z" fill="#c7c7c7" stroke-width="0"/><path d="m175.54,63c3.42-5.34,6.81-10.64,10.17-15.89-.14-.27-.28-.54-.43-.81-3.39,5.29-6.8,10.63-10.23,16.01.16.22.32.46.49.69Z" fill="#c7c7c7" stroke-width="0"/><path d="m174.24,61.34l10.37-16.2c-.15-.25-.31-.48-.48-.72-3.46,5.4-6.95,10.84-10.45,16.34.2.19.38.38.56.58Z" fill="#c7c7c7" stroke-width="0"/><path d="m172.77,59.99c3.55-5.58,7.07-11.1,10.55-16.57-.18-.2-.36-.41-.55-.59-3.52,5.52-7.06,11.1-10.64,16.73.22.13.43.28.64.43Z" fill="#c7c7c7" stroke-width="0"/><path d="m171.09,59.03c3.64-5.73,7.24-11.39,10.79-16.99-.21-.15-.42-.3-.64-.43-3.6,5.67-7.23,11.39-10.89,17.17.25.07.5.15.74.25Z" fill="#c7c7c7" stroke-width="0"/><path d="m169.13,58.57c3.72-5.88,7.4-11.7,11.05-17.46-.25-.09-.5-.17-.76-.23l-11.17,17.67c.29,0,.58,0,.87.02Z" fill="#c7c7c7" stroke-width="0"/></g><g id="uuid-8d281b1b-cb8e-446f-8833-82d611cb5463"><path d="m51.87.89c-3.26,2.14-4.94,6.42-4.94,6.42,0,0-3.51,3.94-3.28,6.5.1,1.48.93,2.81,2.2,3.56v-1.39s.52,1.9,3.29,3.19,6.8,1.18,9,.57c1.31-.35,2.5-1.04,3.47-1.99l-1.15,1.8c1.97.17,3.89-.65,5.13-2.19,2.28-2.66-1.64-7.96-1.86-8.97s.64-7.89-6.72-8.2c.01.02-2.9-.78-5.14.7Z" fill="#c7c7c7" stroke-width="0"/><path d="m44.86,16.99c-.72-.62-1.24-1.44-1.48-2.36-.28-.9-.24-1.88.1-2.76.48-1.02,1.14-1.95,1.95-2.73.78-.86,1.63-1.66,2.39-2.53.04-.05-.03-.11-.08-.07-.79.61-1.54,1.27-2.25,1.97-.71.63-1.34,1.34-1.89,2.11-.51.71-.8,1.55-.84,2.43,0,.72.17,1.42.51,2.05.42.71.93,1.36,1.52,1.93.05.05.1,0,.06-.04Z" fill="#c7c7c7" stroke-width="0"/><path d="m66.85,14.41c-.35-2.67-2.28-4.71-3.19-7.16-.5-1.33-.81-2.73-1.56-3.97,0-.03-.08,0-.06.04.6,1.08.83,2.28,1.19,3.45.39,1.17.9,2.3,1.52,3.37,1.07,1.99,2.35,4.33,1.54,6.64-.37,1.07-1.27,2.15-2.45,2.28-.02,0-.04,0-.05.02s0,.04.02.05c0,0,.02,0,.03,0,.97-.18,1.83-.75,2.36-1.58.58-.93.81-2.04.65-3.13Z" fill="#c7c7c7" stroke-width="0"/><path d="m66.81,15.1c.27-.93.25-1.92-.07-2.83-.38-.88-.94-1.67-1.65-2.32-.77-.77-1.59-1.53-1.97-2.58,0-.05-.08,0-.07.03.58,1.74,2.15,2.81,3.03,4.34,1.02,1.76.57,3.94-.68,5.47-.79.92-1.79,1.64-2.91,2.1,0,0,0,.04,0,.03,1.93-.77,3.76-2.17,4.32-4.24Z" fill="#c7c7c7" stroke-width="0"/><path d="m84.34,156.66c-1.01.33-29.87-.05-30.97-.76-.41-.26-.61-4.47-.69-9.56v-.16c0-1.05-.03-2.13-.04-3.22v-.46c-.04-7.35.08-14.97.08-14.97l19.31.19-.58,14.83-.02.59-.11,3.07v.31s10.99,5.08,12.1,5.99,1.95,3.82.93,4.14Z" fill="#d3766a" stroke-width="0"/><path d="m75.67,148.5c-.07,0-.11-.04-.12-.06l.12.06Z" fill="#407bff" stroke-width="0"/><path d="m84.34,156.66c-1.01.33-29.87-.05-30.97-.76-.37-.23-.56-3.58-.66-7.9,5.29,1.11,25.78,5.25,26.35,3.5.22-.69-1.53-1.88-2.64-2.56,3.03,1.44,6.38,3.1,6.98,3.58,1.1.91,1.96,3.82.94,4.14Z" fill="#263238" stroke-width="0"/><path d="m46.8,44.4s4.34,48.77,5.04,52.49c.16.85.26,5.47.33,11.39.15,12.93.06,36.24.06,36.24h20.34s-.6-40.4-1.5-47.82-6.66-52.28-6.66-52.28l-17.61-.02Z" fill="#263238" stroke-width="0"/><path d="m71.66,140.97c-3.19-.06-2.28-.09-5.44-.12-1.55,0-11.76-.1-13.21.14-.02,0-.03.03-.02.05,0,0,.01.02.02.02,1.45.24,11.66.15,13.21.14,3.19-.03,2.28-.06,5.44-.12.03,0,.04-.04.03-.06,0-.02-.02-.03-.03-.03Z" fill="#37474f" stroke-width="0"/><path d="m56.1,117.87c-.02-2.95-.04-5.9-.06-8.85-.02-2.86,0-5.72-.15-8.57-.27-5.78-1.45-11.47-2.28-17.18s-1.53-11.45-2.16-17.2c-.71-6.44-1.33-12.9-1.99-19.35,0-.05-.07-.05-.07,0,.96,11.52,2.03,23.03,3.62,34.48.4,2.85.83,5.69,1.3,8.53.46,2.87.95,5.74,1.17,8.65s.26,5.69.29,8.54c.03,2.95.06,5.9.09,8.85.06,6.55.13,16.63.19,23.18,0,.06.04.1.1.1s.1-.04.1-.1c-.06-5.85-.1-15.23-.14-21.07Z" fill="#37474f" stroke-width="0"/><path d="m42.52,44.4s8.63,48.77,9.33,52.49c.16.85.26,5.47.33,11.39h0l9.7-63.88h-19.36Z" fill="#37474f" stroke-width="0"/><path d="m36.24,158.3c-1.05-.16-26.63-13.53-27.28-14.66-.25-.42,1.48-4.26,3.7-8.84l.07-.15c.46-.94,9.59-16.35,9.59-16.35l15.74,9.24-8.74,15.55-.15.27s7.5,9.5,8.08,10.81.05,4.29-1.01,4.12Z" fill="#d3766a" stroke-width="0"/><path d="m36.24,158.3c-1.05-.16-26.63-13.53-27.28-14.66-.21-.36,1.02-3.22,2.76-6.9,3.67,2.77,21.37,16.07,22.66,14.69.27-.3.07-.98-.29-1.72,1.55,2.05,2.93,3.93,3.19,4.47.56,1.31,0,4.29-1.04,4.12Z" fill="#263238" stroke-width="0"/><path d="m31.58,142.53l-18.64-11.52s21.57-30.86,21.67-33.6c.15-4.1,2.11-20.9,3.75-34.51,0,0-3.11-7.37,2.73-18.51h23.36s-1.56,10.6-4.24,17.31c-1.8.63-3.54,1.42-5.19,2.37,0,0-2.33,30.36-2.41,34.16-.19,7.49-21.01,44.31-21.01,44.31Z" fill="#263238" stroke-width="0"/><path d="m32.73,138.22c-2.69-1.69-1.89-1.24-4.6-2.9-1.33-.81-10.02-6.13-11.39-6.67-.02,0-.04.01-.04.03,0,0,0,.02,0,.02,1.12.95,9.93,6.12,11.27,6.9,2.73,1.61,1.97,1.12,4.73,2.69.02.02.05.02.06,0s.02-.05,0-.06c-.01-.01-.03-.01-.04-.01Z" fill="#37474f" stroke-width="0"/><path d="m61.07,61.24c-2.11.77-4.14,1.71-6.08,2.83-.03.02-.04.06-.02.09.02.02.05.04.07.03,2.05-.88,4.14-1.72,6.13-2.73.05-.06.04-.14-.02-.19-.03-.02-.06-.03-.09-.03Z" fill="#37474f" stroke-width="0"/><path d="m58.21,57.86c.2-1.22.37-2.44.46-3.68.21-2.29.19-4.61-.08-6.9,0-.03-.03-.06-.06-.06-.03,0-.06.03-.06.06.06,3.18-.13,6.37-.56,9.52-.23,1.51-.99,3.8.59,4.03s2.66-3.58,2.86-4.63c.5-2.98.62-6.01.34-9.02,0-.07-.13-.09-.13,0,0,2.28-.11,4.56-.34,6.83-.1,1.05-.94,6.89-2.77,6.46-.31-.07-.46-.37-.51-.83,0-.6.09-1.21.24-1.79" fill="#37474f" stroke-width="0"/><path d="m58.53,60.64c-.17.39-.3.8-.41,1.21-.12.32-.17.65-.17.99,0,.06.09.07.13.03.19-.3.33-.62.42-.97.14-.37.29-.75.41-1.12.02-.11-.05-.22-.16-.24-.09-.02-.18.02-.22.11Z" fill="#37474f" stroke-width="0"/><path d="m43.82,45.86c-.71,1.22-1.29,2.51-1.75,3.84-.47,1.33-.82,2.7-1.04,4.1-.14.69-.18,1.39-.26,2.09s-.09,1.41-.05,2.11c.03,1.4.19,2.8.49,4.18v.05c-.54,5.89-1.1,11.78-1.68,17.66-.58,5.88-1.16,11.77-1.74,17.66l-.05.55-.03.28c0,.1-.02.2-.06.3-.16.35-.34.7-.54,1.02-.37.64-.76,1.28-1.14,1.9-.77,1.26-1.57,2.51-2.35,3.76-1.58,2.5-3.19,4.97-4.81,7.45-3.22,4.96-6.5,9.88-9.78,14.8l9.53-14.97,4.74-7.5c.79-1.25,1.57-2.5,2.34-3.76.38-.63.77-1.27,1.13-1.9.18-.29.35-.6.5-.91.03-.08.05-.16.05-.24l.03-.28.05-.55c.56-5.88,1.14-11.77,1.74-17.65s1.21-11.76,1.82-17.64v.04c-.29-1.39-.44-2.81-.46-4.23-.01-.71.01-1.42.07-2.13.09-.71.15-1.41.3-2.11.25-1.4.63-2.77,1.12-4.1.48-1.33,1.1-2.62,1.83-3.83Z" fill="#37474f" stroke-width="0"/><path d="m63.99,40.12l.71,5.51-23.87-.75s1.2-17.59,8.08-24.23c3.44-3.32,7.22-2.83,9.49-.23.58.66,7.34,9.5,7.89,13.24.48,3.29-2.3,6.47-2.3,6.47Z" fill="#455a64" stroke-width="0"/><path d="m60.36,38.26c-1.15.09-2.29.28-3.41.56-.56.15-1.11.32-1.65.51-.27.09-.55.18-.82.26-.28.09-.58.15-.88.16-.01,0-.02.01-.02.02s.01.02.02.02h0c.28.02.56.02.84,0,.27-.03.54-.08.81-.15.57-.14,1.13-.31,1.69-.46,1.14-.3,2.28-.6,3.43-.81.05-.02.04-.12-.01-.11Z" fill="#263238" stroke-width="0"/><path d="m63.16,39.44c-.94-.13-1.89-.2-2.84-.21-.46,0-.94.03-1.42.07-.23,0-.46.05-.68.07s-.49.1-.74.12c-.01,0-.02.01-.02.02s.01.02.02.02h2.85c.95,0,1.89-.02,2.84,0,.04-.01.04-.1,0-.1Z" fill="#263238" stroke-width="0"/><path d="m51.31,44.94c.05.09.1.18.16.26h.4c-.17-.11-.36-.2-.56-.26Zm6.77-24.35c-.27-.23-.58-.42-.91-.54.35.63.91,1.11,1.58,1.37-.17-.32-.39-.6-.67-.83Zm-14.57,13.7c-.23.27-.42.58-.54.91.31-.17.59-.39.82-.66.23-.27.42-.58.54-.91-.32.16-.6.39-.83.66h.02Zm5.2-12.56c-.23.27-.41.58-.53.91.31-.17.58-.4.81-.67.24-.27.42-.58.54-.91-.32.17-.6.4-.84.67h.02Zm7.68,11.14c-.23.27-.42.58-.54.91.31-.17.59-.4.82-.67.23-.27.41-.58.53-.91-.31.17-.6.4-.83.67h.02Zm-6,3.95c-.35.02-.7.11-1.02.26.34.1.7.13,1.05.1.35-.02.7-.11,1.02-.26-.35-.1-.71-.13-1.07-.1h.02Zm14.12-2.79c-.35.02-.7.11-1.02.26.69.19,1.42.13,2.07-.16-.35-.11-.71-.14-1.07-.1h.03Zm-8.87-8.65c-.35.02-.7.11-1.02.27.34.1.7.13,1.05.1.35-.02.7-.11,1.02-.26-.35-.1-.71-.13-1.07-.09h.03Zm4.13,15.73c-.02-.35-.11-.7-.26-1.02-.2.69-.14,1.42.16,2.07.09-.34.11-.69.07-1.03h.03Zm-15.22.79c-.03-.35-.12-.7-.27-1.02-.18.69-.13,1.42.16,2.07.09-.34.11-.69.08-1.03h.03Zm18.47-14.36c0-.09,0-.17-.03-.26h0c-.09-.22-.17-.46-.26-.66-.08.31-.1.64-.08.96.02.35.11.7.26,1.02.1-.34.13-.7.1-1.06Zm-13.41,2.1c-.02-.36-.11-.7-.26-1.02-.19.69-.13,1.42.16,2.07.1-.34.14-.69.12-1.05h-.02Z" fill="#fff" stroke-width="0"/><path d="m52.93,20.28c.12.46,2.46,3.45,4.61,3.28.7-.06.56-3.88.56-3.88l.05-.28.77-3.99-4.74-2.84-.69-.37s-.14,1.1-.29,2.48c0,.06,0,.13-.02.2s0,.15-.03.22c-.02.2-.05.41-.07.62s-.03.31-.05.48l-.04.5c-.1,1.19-.12,2.39-.06,3.58Z" fill="#d3766a" stroke-width="0"/><path d="m58.91,15.4l-.73,3.83c-2.16-.68-3.97-2.18-5.04-4.18l.05-.39c.16-1.37.3-2.48.3-2.48l.68.37,4.74,2.84Z" fill="#263238" stroke-width="0"/><path d="m64.35,9.81c.14,7.12-4.1,8.01-5.64,8.04-1.39.03-6.14-.06-7.02-7.13s2.39-9.39,5.57-9.62,6.95,1.59,7.09,8.71Z" fill="#d3766a" stroke-width="0"/><path d="m63.27,8.72c-.16-.03-.31-.08-.46-.12-.17-.02-.33-.09-.46-.21-.07-.09-.07-.22,0-.31.17-.15.41-.2.62-.12.23.04.43.16.57.35.09.12.06.29-.06.38-.06.05-.15.06-.22.04Z" fill="#c7c7c7" stroke-width="0"/><path d="m58.46,8.55c.17,0,.32-.05.49-.08.17,0,.34-.07.48-.18.07-.09.07-.22,0-.31-.16-.16-.39-.23-.61-.17-.23.03-.44.14-.59.31-.09.12-.07.29.05.38.05.04.12.06.19.05Z" fill="#c7c7c7" stroke-width="0"/><path d="m59.43,9.87s-.04,0-.04.04c0,.49-.06,1.04-.5,1.2,0,0,0,.03,0,.03.54-.07.62-.81.54-1.27Z" fill="#263238" stroke-width="0"/><path d="m59,9.35c-.78-.07-.86,1.5-.14,1.56s.79-1.5.14-1.56Z" fill="#263238" stroke-width="0"/><path d="m58.69,9.42c-.14.08-.28.23-.46.24s-.33-.16-.46-.33h-.03c0,.3.08.61.4.67s.51-.2.61-.5c.03-.04,0-.12-.07-.09Z" fill="#263238" stroke-width="0"/><path d="m62.15,9.94s.04.03.04.05c-.04.48,0,1.04.46,1.23m0,.02c-.54-.1-.6-.84-.49-1.29l.49,1.29Z" fill="#263238" stroke-width="0"/><path d="m62.6,9.45c.78-.03.78,1.53.06,1.56s-.72-1.54-.06-1.56Z" fill="#263238" stroke-width="0"/><path d="m62.92,9.56c.12.08.25.23.4.24s.3-.16.41-.32h.02c0,.3-.09.61-.38.67s-.46-.2-.52-.5c-.01-.04.03-.13.08-.09Z" fill="#263238" stroke-width="0"/><path d="m59.59,13.85c.12.11.24.26.41.28.18,0,.36-.06.52-.14m0,.03c-.14.2-.37.3-.61.28-.2-.05-.35-.22-.39-.42,0-.02.05-.02.06-.02l.93.17Z" fill="#263238" stroke-width="0"/><path d="m59.4,12.56c.26.37.66.62,1.1.68.19.03.39.03.58,0h.21c.05-.01.09-.06.09-.11h0s0-.03,0-.05h0v-.04c0-.36-.06-.91-.06-.91.14.06.83.35.81.15-.1-1.64-.37-3.27-.8-4.86,0-.02-.03-.04-.06-.03-.01,0-.02.02-.03.03.09,1.52.46,3.02.55,4.55-.25-.1-.51-.17-.77-.2-.05,0,.13,1.07.11,1.23h0c-.6.08-1.21-.08-1.69-.46-.05-.06-.09-.02-.05.02Z" fill="#263238" stroke-width="0"/><g opacity=".2"><path d="m59.98,6.87c.31,0,.61-.03.91-.07.31-.05.59-.17.91-.22.58-.07,1.17-.04,1.74.1.05,0,.05.05,0,.04-.6-.12-1.22-.11-1.82.03-.48.15-.98.24-1.48.26-1.15-.07-2.29.23-3.26.85h0c.88-.61,1.93-.95,3.01-.98Z" stroke-width="0"/><path d="m59.82,6.07c.29,0,.58-.03.86-.07.29-.06.56-.17.85-.22.55-.06,1.11-.03,1.65.1.05,0,.05.04,0,.03-.57-.11-1.16-.1-1.73.03-.46.14-.93.23-1.41.24-1.09-.07-2.17.22-3.09.81h0c.84-.59,1.84-.91,2.87-.93Z" stroke-width="0"/></g><path d="m51.98,11.62c1.2.04,1.37-2.47,1.37-2.47,0,0,2.42-.1,3.07-3.61-.02,1.05-.35,2.06-.95,2.92,0,0,4.25-.64,5.92-4.29,0,0-.64,1.85-1.28,2.53,1.07-.38,1.98-1.11,2.58-2.07,0,0,.83,2.03,1.43,2.57,0,0,.91-9.78-8.5-6.22,0,0-3.93.15-5.33,3.64s1.69,6.99,1.69,6.99Z" fill="#c7c7c7" stroke-width="0"/><path d="m52.83,11.24s-1.41-2.32-2.45-1.82-.09,3.78,1.06,4.3c.59.31,1.32.09,1.63-.49,0-.02.02-.03.02-.05l-.27-1.94Z" fill="#d3766a" stroke-width="0"/><path d="m50.67,10.34v.03c.81.39,1.19,1.19,1.44,2.01-.16-.33-.57-.47-.9-.3-.03.01-.06.03-.09.05,0,0,0,.05.02.05.3-.08.62.05.79.31.14.21.26.44.35.68.04.08.17.05.15-.04h0c.09-1.07-.64-2.61-1.77-2.79Z" fill="#263238" stroke-width="0"/><path d="m52.28,13.43c0,.19-.17.34-.37.33,0,0,0,0,0,0-.19-.01-.34-.18-.33-.37.01-.19.18-.34.37-.33,0,0,0,0,0,0,.19,0,.34.17.33.36,0,0,0,0,0,0Z" fill="#fff" stroke-width="0"/><polygon points="67.66 50.71 99.9 50.71 91.24 26.92 59 26.92 67.66 50.71" fill="#407bff" stroke-width="0"/><polygon points="78.75 24.45 90.34 24.45 91.24 26.92 78.98 26.92 78.75 24.45" fill="#407bff" stroke-width="0"/><g opacity=".2"><polygon points="67.66 50.71 99.9 50.71 91.24 26.92 59 26.92 67.66 50.71" stroke-width="0"/><polygon points="78.75 24.45 90.34 24.45 91.24 26.92 78.98 26.92 78.75 24.45" stroke-width="0"/></g><polygon points="65.32 35.34 88.23 48.22 104.76 18.81 87.75 9.25 78.7 11.54 65.32 35.34" fill="#ebebeb" stroke-width="0"/><polygon points="87.75 9.25 78.7 11.54 84.6 14.85 87.75 9.25" fill="#dbdbdb" stroke-width="0"/><rect x="92.74" y="11.98" width=".87" height="14.61" transform="translate(30.71 91.06) rotate(-60.66)" fill="#dbdbdb" stroke-width="0"/><rect x="91.67" y="13.88" width=".87" height="14.61" transform="translate(28.5 91.09) rotate(-60.66)" fill="#dbdbdb" stroke-width="0"/><rect x="90.6" y="15.79" width=".87" height="14.61" transform="translate(26.29 91.13) rotate(-60.66)" fill="#dbdbdb" stroke-width="0"/><rect x="86.56" y="12.64" width=".87" height="21.41" transform="translate(24.02 87.74) rotate(-60.66)" fill="#dbdbdb" stroke-width="0"/><rect x="85.49" y="14.54" width=".87" height="21.41" transform="translate(21.82 87.78) rotate(-60.66)" fill="#dbdbdb" stroke-width="0"/><rect x="84.24" y="16.34" width=".86" height="21.37" transform="translate(19.57 87.54) rotate(-60.61)" fill="#dbdbdb" stroke-width="0"/><rect x="83.35" y="18.35" width=".87" height="21.41" transform="translate(17.4 87.86) rotate(-60.66)" fill="#dbdbdb" stroke-width="0"/><rect x="82.28" y="20.26" width=".87" height="21.41" transform="translate(15.19 87.89) rotate(-60.66)" fill="#dbdbdb" stroke-width="0"/><rect x="81.2" y="22.17" width=".87" height="21.41" transform="translate(12.98 87.93) rotate(-60.66)" fill="#dbdbdb" stroke-width="0"/><rect x="80.14" y="24.07" width=".87" height="21.41" transform="translate(10.78 87.97) rotate(-60.66)" fill="#dbdbdb" stroke-width="0"/><rect x="79.06" y="25.98" width=".87" height="21.41" transform="translate(8.57 88.01) rotate(-60.66)" fill="#dbdbdb" stroke-width="0"/><rect x="78" y="27.88" width=".87" height="21.41" transform="translate(6.36 88.05) rotate(-60.66)" fill="#dbdbdb" stroke-width="0"/><polygon points="67.53 50.71 99.77 50.71 102.3 28.89 70.06 28.89 67.53 50.71" fill="#407bff" stroke-width="0"/><polygon points="67.53 50.71 99.77 50.71 102.3 28.89 70.06 28.89 67.53 50.71" isolation="isolate" opacity=".1" stroke-width="0"/><polygon points="90.97 26.63 102.56 26.63 102.3 28.89 90.04 28.89 90.97 26.63" fill="#407bff" stroke-width="0"/><polygon points="90.97 26.63 102.56 26.63 102.3 28.89 90.04 28.89 90.97 26.63" isolation="isolate" opacity=".1" stroke-width="0"/><path d="m47.13,27.29c.49,3.76,4.1,18.16,7.29,21.75,2.08,2.34,15.59,5.59,19.23,6.7,1.57.46,5.38-11.32,3.64-11.34-1.28,0-15.31-3.87-16.53-4.35,0,0-5.12-8.28-8.4-13.71-3.09-5.13-6.15-6.07-5.23.96Z" fill="#d3766a" stroke-width="0"/><path d="m82.31,47.25c-.62-.46-.38-.79.99-.83s6.87.98,7.06-.97-7.57-3.27-9.86-3.03-5.92,1.43-5.92,1.43c1.47.56,4.88,2.26,7.73,3.39Z" fill="#d3766a" stroke-width="0"/><path d="m71.66,54.99c4.17,1.43,9.27,3.46,14.12,2.46.54-.09,1.04-.37,1.41-.78,2.19-.41,2.66-1.57,2.66-1.57,1.93-1,2.24-2.25,2.24-2.25,0,0,2.56-.51,2.52-2.11-.05-1.82-3.64-.73-5.98-1.37-5.35-1.43-12.55-4.96-14.05-5.52l-2.91,11.14Z" fill="#d3766a" stroke-width="0"/><path d="m81.99,51.83c1.56.44,3.15.77,4.75.99,1.77.13,3.55.13,5.32,0,.02,0,.04.03.03.06,0,.01-.02.02-.03.03-3.4.59-6.89.25-10.1-1-.06-.03-.05-.09.03-.07Z" fill="#263238" stroke-width="0"/><path d="m80.65,54.93c1.56.3,4.31.79,9.21.13v.03c-3.02.83-6.22.8-9.23-.08-.09-.02-.08-.09.02-.07Z" fill="#263238" stroke-width="0"/><path d="m79.97,56.61c2.67.4,4.41.31,7.23.05v.03c-3.19.63-4.4.5-7.26,0-.08,0-.08-.1.03-.08Z" fill="#263238" stroke-width="0"/><path d="m57.44,33.1l-8.38,6.94s-2.49-11.7-2.25-15.35c.27-4.1,2.31-3.07,4.91-.15s5.71,8.56,5.71,8.56Z" fill="#455a64" stroke-width="0"/><path d="m49.62,29.65c-.02-.36-.11-.7-.26-1.02-.19.69-.13,1.42.16,2.07.1-.34.13-.7.1-1.05Zm.75,7.19c-.35.02-.7.11-1.02.26.34.1.7.13,1.05.1.35-.02.7-.11,1.02-.26-.34-.1-.7-.13-1.05-.1Zm6.63-4.51c-.24.16-.45.35-.63.56-.23.27-.42.58-.54.91.31-.17.59-.4.82-.67.18-.2.33-.42.46-.66h0l-.1-.14Zm-8.51-10.32c-.15.2-.26.42-.34.65.26-.14.49-.33.69-.55-.11-.05-.23-.08-.36-.1Z" fill="#fff" stroke-width="0"/><path d="m49.01,37.58c.26-.29,2.83-2.49,3.4-2.96s2.88-2.4,3.51-2.83c.03,0,.06,0,.04.04-.53.54-2.86,2.5-3.43,2.98s-3.19,2.61-3.48,2.81c-.03.02-.05-.02-.03-.04Z" fill="#263238" stroke-width="0"/><path d="m56.78,33.65c.24-.23.62-.57.62-.57-.6-1.11-4.14-6.46-4.96-7.74,0-.02,0-.04.03-.02.51.71,1.03,1.42,1.53,2.13-.05-.1-.1-.2-.14-.3-.17-.36-.33-.72-.51-1.07,0-.03.03-.05.05-.03.22.33.41.68.59,1.04.12.26.21.51.31.77.29.41.58.82.86,1.24.85,1.29,1.79,2.59,2.54,3.94-.27.25-.56.48-.87.68-.02.01-.05,0-.06-.02s0-.05.02-.06h0Z" fill="#263238" stroke-width="0"/><path d="m49.88,39.37c-.25.25-.51.48-.77.73l-.08.08-.04-.12c-.42-1.38-.75-2.78-1-4.2-.12-.71-.24-1.42-.31-2.14s-.15-1.43-.19-2.15c.15.7.29,1.41.42,2.11l.41,2.11.82,4.22-.12-.04c.28-.18.56-.42.86-.61Z" fill="#263238" stroke-width="0"/><path d="m47.88,34.27c-.22-.21-.39-.46-.49-.74-.05-.14-.1-.28-.12-.42-.03-.15-.04-.3-.03-.46.14.25.26.52.36.79.11.27.2.55.28.83Z" fill="#263238" stroke-width="0"/><path d="m58.14,19.58l-1.05,3.31-4.28-3.78-1.04,1.37s4.36,6.18,4.37,5.88l1.12-2.86,2.05,1.79-.5-4.82-.68-.88Z" fill="#455a64" stroke-width="0"/><path d="m59.19,22.9c-.11-.79-.2-1.6-.35-2.39,0-.03-.05-.04-.05,0-.1.78.33,3.81.38,4.55h0c-.09-.08-1.89-1.57-1.91-1.54-.26.46-1.08,2.55-1.13,2.73-.69-.98-3.6-4.84-4.4-5.76,0,0-.06,0-.05.03.62,1.05,4.39,6.14,4.44,6.12.44-.99.84-2,1.18-3.02.31.33,2.15,2.03,2.15,1.91-.03-.82-.14-1.84-.25-2.64Z" fill="#263238" stroke-width="0"/></g></g></svg>