<?xml version="1.0" encoding="UTF-8"?><svg id="uuid-6eee47e3-a6a2-4b74-9215-e1774d537ad2" xmlns="http://www.w3.org/2000/svg" viewBox="0 0 66 65.33"><g id="uuid-511e1a32-a432-4582-b92b-fd3da27d73c3"><path d="m17.43,65.33c-.73,0-1.33-.59-1.33-1.32v-4.47c0-.34.12-.68.36-.93.24-.26.57-.4.93-.41h.21s.15,0,.26,0h.09s.1.01.16.02h12.33c.73,0,1.33.59,1.33,1.32v4.47c0,.35-.13.68-.38.94-.25.25-.58.39-.93.39h-13.02Zm-.12-6.12s-.09.04-.12.08c-.06.06-.09.15-.09.23v4.48c0,.18.15.33.33.33h13.01c.09,0,.17-.04.23-.1.06-.06.09-.14.09-.23v-4.47c0-.18-.15-.33-.33-.33h-13.12Z" fill="#fff" stroke-width="0"/><path d="m33.01,39.78l-.17-.06c-12.34-4.51-18.35-15.86-17.88-33.73v-.51s.53.03.53.03c6.53.35,12.14-1.38,17.16-5.28l.28-.21.3.19c6.58,4.15,12.38,6.02,17.24,5.58l.52-.05.03.52c.86,17.43-5.13,28.7-17.82,33.47l-.17.07ZM15.94,6.51c-.34,17.26,5.25,27.79,17.07,32.2,11.99-4.6,17.71-15.33,17.02-31.91-4.91.29-10.63-1.59-17.05-5.58-5.01,3.8-10.59,5.53-17.03,5.3Z" fill="#fff" stroke-width="0"/><path d="m43.4,27.14c-.87-1-2.26-1.4-3.72-1.83-1.6-.46-3.26-.94-4.24-2.29-.12-.14-.2-.34-.23-.56q0-.21.33-.68c.42-.59,1.29-1.82,1.59-2.31.08-.13.17-.27.27-.42.37-.56.88-1.32.76-1.81-.03-.07-.14-.16-.27-.19l-.41-.08.07-3.14c-.04-.77-.36-1.55-.9-2.14-.95-1.03-3.32-2.3-4.67-2.3-.02,0-.04,0-.06,0,.01,0-.03.14-.06.23-.09.32-.24.8-.77,1-.3.11-.59.24-.87.41-.75.45-1.3,1.14-1.55,1.97-.05.18-.09.38-.11.58v1.07c0,.61.03,1.24.06,1.85l.02.38-.36.12c-.27.09-.45.33-.46.61,0,.4.42,1,.76,1.48.11.15.21.3.3.44.05.08.33.47.64.92q1.26,1.8,1.26,1.99v.1c-.05.2-.14.39-.28.55-.95,1.31-2.6,1.79-4.2,2.25-1.45.42-2.81.82-3.68,1.79l-.75-.66c1.06-1.19,2.63-1.65,4.15-2.09,1.5-.44,2.91-.85,3.69-1.9-.23-.33-.68-.99-1.01-1.45-.33-.47-.61-.87-.67-.96-.08-.13-.18-.26-.28-.41-.42-.6-.94-1.34-.94-2.08.03-.58.33-1.07.78-1.36-.03-.53-.05-1.06-.05-1.58v-1.11c.03-.3.07-.57.15-.82.33-1.07,1.04-1.97,1.99-2.54.33-.2.68-.37,1.05-.5.05-.02.1-.2.14-.34.09-.3.28-.94.99-.95,1.82-.07,4.49,1.55,5.48,2.63.71.77,1.12,1.76,1.16,2.81l-.06,2.41c.28.16.5.41.62.72.24.98-.41,1.95-.88,2.66-.09.14-.18.27-.25.39-.32.52-1.2,1.77-1.62,2.37-.03.05-.06.09-.09.13.82,1.04,2.21,1.44,3.68,1.87,1.54.45,3.13.91,4.2,2.13l-.75.66Z" fill="#fff" stroke-width="0"/><path d="m47.74,57.25h-12.16c-.75-.03-1.31-.64-1.29-1.37l.03-1.08c0-.22.03-.49.06-.79l.03-.28c.04-.4.07-.78.11-1.07.1-.92.19-1.68.32-2.36.11-.69.3-1.37.56-2.03.26-.66.62-1.26,1.06-1.81.52-.64,1.11-1.23,1.75-1.75,0,0,.41-.34.45-.36.14-.12.3-.25.44-.35.2-.15.34-.25.48-.34.15-.11.33-.21.52-.31,1.52-.83,3.47-2.88,5.19-4.69l.17-.18c.76-.8,1.47-1.56,2.14-2.17l2.77-2.73c.36-.43.74-.81,1.15-1.14.39-.32.83-.58,1.29-.78.66-.28,1.4-.33,2.09-.16.36.1.69.26.99.48.33.26.59.59.75.97.22.57.25,1.19.08,1.76-.1.38-.27.74-.49,1.07-.21.32-.46.63-.75.9-1.35,1.3-2.69,3-3.99,4.63-.33.42-.66.83-1,1.25l5.56-5.29c.17-.15.32-.31.45-.48.12-.16.24-.33.34-.51.04-.07.08-.13.13-.18.6-.89,2.2-4.96,3.25-7.65.43-1.09.79-2.02,1.03-2.58.06-.15.15-.28.26-.4.24-.27.55-.53.89-.73.34-.21.73-.34,1.13-.38.19-.03.41-.03.62,0,.22.05.42.12.6.22.27.17.45.34.59.54.19.27.29.48.37.71.27.82.34,1.7.21,2.54-.13,1-.37,2.01-.71,2.97l-1.46,5.1c-.14.49-.23.83-.3,1.07l-.27,1c-.3,1.34-.75,2.68-1.32,3.95-.8,1.5-1.78,2.86-2.91,4.08-1.11,1.28-2.27,2.52-3.67,3.92-1.13,1.13-2.29,2.24-3.53,3.39l-1.58,1.47c-.46.43-.85.82-1.22,1.19l-.28.27s-.02.02-.03.03l.51.4-1.43.02Zm6.35-24.87c-.3,0-.61.06-.89.18-.38.16-.73.38-1.05.64-.36.29-.69.63-.99.99l-.15.14-2.73,2.69c-.66.6-1.36,1.34-2.1,2.13l-.17.18c-1.77,1.86-3.78,3.97-5.44,4.88-.16.08-.3.17-.44.26-.14.09-.26.18-.4.28-.18.13-.32.25-.47.37-.08.06-.42.34-.42.34-.59.48-1.13,1.03-1.61,1.61-.38.47-.68.99-.91,1.55-.23.58-.4,1.2-.5,1.82-.12.67-.21,1.41-.31,2.31-.04.29-.07.66-.11,1.05l-.03.29c-.03.26-.05.5-.05.72l-.03.56v.5c0,.11.03.19.09.25.06.06.14.1.22.1h10.69l-.03-.02h1.46c.09,0,.18-.04.25-.11l.3-.3c.39-.38.78-.78,1.21-1.17l1.62-1.52c1.23-1.14,2.37-2.24,3.5-3.36,1.37-1.37,2.53-2.61,3.63-3.88,1.09-1.17,2.02-2.46,2.76-3.85.53-1.18.96-2.46,1.25-3.75l.26-.97c.08-.29.17-.64.31-1.14l1.46-5.13c.33-.93.55-1.86.67-2.81.11-.7.05-1.42-.17-2.08-.05-.14-.12-.28-.2-.4-.1-.14-.19-.22-.3-.29-.11-.06-.2-.1-.3-.12-.09-.01-.2-.01-.3,0-.28.03-.54.12-.76.25-.25.15-.48.33-.67.55l-.07.1c-.23.55-.59,1.48-1.02,2.56-1.2,3.06-2.69,6.86-3.38,7.89-.18.3-.32.52-.49.72-.17.21-.36.41-.55.59l-8.69,8.29c-.14.13-.33.2-.52.21-.2.01-.4-.06-.56-.19-.17-.16-.27-.36-.28-.57-.01-.21.06-.41.19-.57,1.31-1.31,2.59-2.92,3.82-4.47,1.32-1.66,2.69-3.38,4.08-4.73.23-.22.43-.46.6-.72.16-.25.29-.52.36-.81.11-.37.09-.76-.05-1.1-.09-.21-.24-.41-.44-.56-.19-.14-.4-.25-.63-.31-.18-.05-.37-.07-.55-.07Z" fill="#fff" stroke-width="0"/><path d="m35.56,65.33c-.73,0-1.33-.59-1.33-1.32v-4.47c0-.73.59-1.33,1.33-1.33h12.4s.13,0,.24,0h0s.04,0,.04,0c.04,0,.15,0,.25,0h.12c.73,0,1.33.59,1.33,1.32v4.47c0,.73-.59,1.33-1.32,1.33h-13.04Zm0-6.12c-.18,0-.33.15-.33.33v4.47c0,.18.15.33.33.33h13.03c.18,0,.33-.15.33-.33v-4.47c0-.18-.15-.33-.33-.33h-13.03Z" fill="#fff" stroke-width="0"/><path d="m30.47,57.28l-12.22-.03h0c-.38,0-.75-.17-1-.46-.44-.43-.94-.91-1.44-1.4l-1.59-1.54c-1.16-1.08-2.32-2.19-3.52-3.39-1.23-1.23-2.44-2.45-3.69-3.91-1.12-1.2-2.09-2.57-2.88-4.04-.59-1.3-1.03-2.64-1.34-4l-.25-.93c-.06-.24-.16-.58-.31-1.12l-1.46-5.14c-.33-.93-.57-1.94-.7-2.96-.13-.84-.06-1.72.21-2.54.08-.24.19-.46.33-.66l.21-.22c.11-.11.23-.21.36-.3.24-.14.43-.22.64-.26.24-.04.46-.04.67,0,.37.04.77.17,1.12.38.33.2.63.45.9.74.1.1.19.23.25.39.23.55.6,1.5,1.04,2.6,1.05,2.67,2.64,6.72,3.27,7.66.02.01.06.07.09.13.1.15.22.31.35.46.15.19.3.34.46.49l6.07,5.78c-.2-.24-.4-.49-.6-.74-1.66-2.03-3.38-4.14-4.91-5.62-.28-.26-.53-.56-.75-.89-.22-.34-.38-.7-.48-1.08-.17-.56-.14-1.18.08-1.74.17-.39.42-.73.75-.98.3-.23.63-.39.99-.49.69-.18,1.43-.12,2.09.15.47.2.9.46,1.29.78.41.34.79.72,1.13,1.13.53.59,1.22,1.24,1.9,1.87.33.31.66.62.96.91.46.44.97.97,1.53,1.54l.59.61c1.69,1.79,3.78,4,5.37,4.88.18.09.35.2.53.32.13.08.28.19.45.32.14.1.27.21.41.32l.04.04c.09.06.2.15.36.29l.1.09c.63.52,1.22,1.11,1.75,1.75.44.55.8,1.16,1.06,1.81.26.66.45,1.34.56,2.04.12.68.21,1.44.32,2.36.04.3.07.67.11,1.07.04.4.06.76.08,1.07l.06,1.07c.03.7-.49,1.3-1.18,1.38h-.11ZM1.31,25.95c-.03.07-.06.14-.09.21-.22.66-.28,1.38-.17,2.08.12.96.34,1.89.66,2.79l1.47,5.17c.16.55.26.89.32,1.13l.25.95c.3,1.32.72,2.59,1.27,3.8.73,1.36,1.65,2.66,2.72,3.81,1.24,1.44,2.44,2.65,3.65,3.87,1.19,1.19,2.34,2.3,3.5,3.37l1.55,1.5c.55.53,1.05,1.01,1.52,1.48.09.1.18.14.27.14h12.33c.11-.05.19-.17.18-.3l-.06-1.05c-.02-.3-.05-.65-.08-1.04-.04-.39-.07-.74-.11-1.04-.1-.91-.19-1.65-.31-2.31-.1-.63-.27-1.25-.5-1.84-.22-.56-.53-1.08-.91-1.55-.48-.58-1.02-1.13-1.61-1.61h0s-.08-.07-.13-.11c-.04-.04-.09-.08-.14-.12h-.01l-.22-.18c-.12-.1-.24-.19-.35-.27-.17-.13-.3-.22-.43-.3-.16-.11-.3-.19-.45-.27-1.74-.95-3.89-3.23-5.62-5.06l-.59-.61c-.54-.56-1.05-1.08-1.5-1.52-.3-.29-.62-.59-.95-.9-.69-.65-1.4-1.31-1.97-1.95-.31-.38-.64-.71-1-1.01-.32-.26-.67-.47-1.05-.63-.45-.19-.97-.23-1.45-.11-.23.06-.44.16-.63.31-.19.15-.34.35-.44.57-.13.34-.15.73-.04,1.08.08.3.2.57.36.82.17.25.37.5.6.71,1.58,1.53,3.32,3.66,5,5.71,1.03,1.26,2,2.45,2.91,3.47.14.16.22.37.2.59,0,.2-.11.41-.27.55-.17.14-.37.21-.58.2-.18,0-.36-.08-.5-.21l-.08-.1-8.59-8.18c-.19-.17-.38-.37-.54-.58-.15-.17-.3-.37-.44-.58l-.07-.1c-.69-1.03-2.18-4.81-3.37-7.85-.43-1.09-.8-2.03-1.03-2.59l-.07-.1c-.19-.22-.42-.4-.67-.55-.23-.14-.47-.22-.73-.25-.14-.02-.24-.02-.35,0-.08.02-.17.05-.26.1-.13.08-.22.17-.29.26l-.14.19Zm17.03,19.85s0,0,0,0c0,0,0,0,0,0Z" fill="#fff" stroke-width="0"/></g></svg>