<?xml version="1.0" encoding="UTF-8"?>
<!DOCTYPE svg PUBLIC "-//W3C//DTD SVG 1.1//EN" "http://www.w3.org/Graphics/SVG/1.1/DTD/svg11.dtd">
<!-- Creator: CorelDRAW 2021 (64-Bit) -->
<svg xmlns="http://www.w3.org/2000/svg" xml:space="preserve" width="1.90401in" height="1.90401in" version="1.1" style="shape-rendering:geometricPrecision; text-rendering:geometricPrecision; image-rendering:optimizeQuality; fill-rule:evenodd; clip-rule:evenodd"
viewBox="0 0 226.18 226.18"
 xmlns:xlink="http://www.w3.org/1999/xlink"
 xmlns:xodm="http://www.corel.com/coreldraw/odm/2003">
 <defs>
  <style type="text/css">
   <![CDATA[
    .str1 {stroke:#FEFEFE;stroke-width:3.96;stroke-linecap:round;stroke-linejoin:round;stroke-miterlimit:2.61313}
    .str0 {stroke:#FEFEFE;stroke-width:4.75;stroke-linecap:round;stroke-linejoin:round;stroke-miterlimit:2.61313}
    .fil1 {fill:none}
    .fil0 {fill:url(#id0)}
   ]]>
  </style>
  <linearGradient id="id0" gradientUnits="userSpaceOnUse" x1="113.09" y1="226.18" x2="113.09" y2="0">
   <stop offset="0" style="stop-opacity:1; stop-color:#34A6A8"/>
   <stop offset="1" style="stop-opacity:1; stop-color:#96E7ED"/>
  </linearGradient>
 </defs>
 <g id="Layer_x0020_1">
  <metadata id="CorelCorpID_0Corel-Layer"/>
  <g id="_1777110323120">
   <rect class="fil0" width="226.18" height="226.18" rx="23.95" ry="23.95"/>
   <g>
    <path class="fil1 str0" d="M139.82 131.75c7.33,1.47 11.61,-1.21 11.04,-10.5m-47.14 -20.47c19.93,0 36.09,13.87 36.09,30.97 0,9.01 -4.49,17.12 -11.64,22.78l0.04 0.11 2.91 8.11c1.47,4.12 -0.68,8.69 -4.8,10.16 -4.11,1.47 -8.69,-0.68 -10.16,-4.8l-2.37 -6.62c-3.2,0.8 -6.57,1.22 -10.07,1.22 -3.57,0 -7.01,-0.45 -10.27,-1.27l-2.64 7.37c-1.48,4.12 -6.05,6.27 -10.16,4.8 -4.12,-1.47 -6.27,-6.05 -4.8,-10.16l2.91 -8.11c0.11,-0.32 0.24,-0.62 0.39,-0.91 -4.17,-3.33 -7.42,-7.49 -9.39,-12.18l-4.02 0c-2.07,0 -3.77,-1.7 -3.77,-3.77l0 -12.66c0,-2.08 1.7,-3.77 3.77,-3.77l3.69 0c1.92,-5.01 5.3,-9.46 9.69,-12.97l-0 0c-0.06,-4.12 -0.12,-8.23 -0.18,-12.35 0.19,-1.82 2,-2.45 4.04,-1.89l8.38 7.79c3.86,-1.21 8.02,-1.87 12.36,-1.87z"/>
    <path class="fil1 str0" d="M104.26 91.18c-0.8,-2.77 -1.21,-5.63 -1.21,-8.51 0,-16.89 13.69,-30.58 30.58,-30.58 16.89,0 30.58,13.69 30.58,30.58 0,13.05 -8.28,24.66 -20.62,28.91"/>
    <circle class="fil1 str0" cx="84.02" cy="126.52" r="3.04"/>
    <g>
     <path class="fil1 str1" d="M129.7 68.1c4.12,0.17 7.38,3.57 7.38,7.69 0,4.17 -3.33,7.59 -7.5,7.7"/>
     <line class="fil1 str1" x1="124.65" y1="68.1" x2="143.58" y2= "68.1" />
     <line class="fil1 str1" x1="124.65" y1="74.8" x2="143.58" y2= "74.8" />
     <line class="fil1 str1" x1="137.81" y1="100.17" x2="125.67" y2= "83.49" />
     <line class="fil1 str1" x1="129.58" y1="83.49" x2="125.67" y2= "83.49" />
    </g>
   </g>
  </g>
 </g>
</svg>
