<?xml version="1.0" encoding="UTF-8"?>
<!DOCTYPE svg PUBLIC "-//W3C//DTD SVG 1.1//EN" "http://www.w3.org/Graphics/SVG/1.1/DTD/svg11.dtd">
<!-- Creator: CorelDRAW 2021 (64-Bit) -->
<svg xmlns="http://www.w3.org/2000/svg" xml:space="preserve" width="1.90401in" height="1.90401in" version="1.1" style="shape-rendering:geometricPrecision; text-rendering:geometricPrecision; image-rendering:optimizeQuality; fill-rule:evenodd; clip-rule:evenodd"
viewBox="0 0 357.29 357.29"
 xmlns:xlink="http://www.w3.org/1999/xlink"
 xmlns:xodm="http://www.corel.com/coreldraw/odm/2003">
 <defs>
  <style type="text/css">
   <![CDATA[
    .str4 {stroke:#FEFEFE;stroke-width:7.51;stroke-linecap:round;stroke-miterlimit:2.61313}
    .str5 {stroke:#FEFEFE;stroke-width:7.51;stroke-linecap:round;stroke-linejoin:round;stroke-miterlimit:2.61313}
    .str0 {stroke:#FEFEFE;stroke-width:7.51;stroke-linecap:round;stroke-linejoin:round;stroke-miterlimit:2.61313}
    .str1 {stroke:#FEFEFE;stroke-width:7.51;stroke-linecap:round;stroke-linejoin:round;stroke-miterlimit:2.61313}
    .str3 {stroke:#FEFEFE;stroke-width:7.51;stroke-linecap:round;stroke-linejoin:round;stroke-miterlimit:2.61313}
    .str2 {stroke:#FEFEFE;stroke-width:7.51;stroke-linecap:round;stroke-linejoin:round;stroke-miterlimit:2.61313}
    .fil2 {fill:none}
    .fil1 {fill:#FEFEFE;fill-rule:nonzero}
    .fil0 {fill:url(#id0)}
   ]]>
  </style>
  <linearGradient id="id0" gradientUnits="userSpaceOnUse" x1="178.64" y1="357.29" x2="178.64" y2="0">
   <stop offset="0" style="stop-opacity:1; stop-color:#5E91C4"/>
   <stop offset="1" style="stop-opacity:1; stop-color:#C0B0EB"/>
  </linearGradient>
 </defs>
 <g id="Layer_x0020_1">
  <metadata id="CorelCorpID_0Corel-Layer"/>
  <g id="_1777409864048">
   <rect class="fil0" width="357.29" height="357.29" rx="37.83" ry="37.83"/>
   <g>
    <g>
     <path class="fil1" d="M190.58 149.62l-52.45 0 0 -7.51 52.45 0 0 0 0 7.51zm0 -7.51c2.07,0 3.74,1.68 3.74,3.75 0,2.07 -1.67,3.75 -3.74,3.75l0 -7.51zm11.91 11.92l-7.48 0 0 0 -0.01 -0.23 -0.02 -0.22 -0.03 -0.22 -0.04 -0.21 -0.05 -0.21 -0.06 -0.2 -0.07 -0.2 -0.08 -0.2 -0.09 -0.19 -0.1 -0.19 -0.1 -0.18 -0.12 -0.18 -0.13 -0.18 -0.13 -0.17 -0.14 -0.16 -0.15 -0.15 -0.15 -0.15 -0.16 -0.14 -0.17 -0.14 -0.18 -0.12 -0.18 -0.12 -0.18 -0.1 -0.19 -0.1 -0.2 -0.09 -0.2 -0.08 -0.2 -0.07 -0.21 -0.06 -0.21 -0.05 -0.22 -0.04 -0.22 -0.03 -0.22 -0.02 -0.23 -0.01 0 -7.51 0.61 0.02 0.61 0.05 0.6 0.08 0.59 0.11 0.57 0.13 0.57 0.16 0.55 0.19 0.54 0.21 0.53 0.24 0.51 0.26 0.5 0.29 0.48 0.31 0.46 0.33 0.45 0.35 0.43 0.37 0.41 0.4 0.39 0.41 0.37 0.43 0.35 0.45 0.33 0.46 0.31 0.48 0.29 0.5 0.26 0.51 0.24 0.53 0.21 0.54 0.19 0.55 0.16 0.57 0.13 0.57 0.11 0.59 0.08 0.6 0.05 0.61 0.02 0.61 0 0zm0 0c0,2.07 -1.67,3.75 -3.74,3.75 -2.07,0 -3.74,-1.68 -3.74,-3.75l7.48 0zm-7.48 100.35l0 -100.35 7.48 0 0 100.35 0 0 -7.48 0zm7.48 0c0,2.07 -1.67,3.75 -3.74,3.75 -2.07,0 -3.74,-1.68 -3.74,-3.75l7.48 0zm-11.91 11.92l0 -7.51 0 0 0.23 -0.01 0.22 -0.02 0.22 -0.03 0.22 -0.04 0.21 -0.05 0.21 -0.06 0.2 -0.07 0.2 -0.08 0.2 -0.09 0.19 -0.1 0.18 -0.1 0.18 -0.12 0.18 -0.12 0.17 -0.14 0.16 -0.14 0.15 -0.15 0.15 -0.15 0.14 -0.16 0.13 -0.17 0.13 -0.18 0.12 -0.18 0.1 -0.18 0.1 -0.19 0.09 -0.19 0.08 -0.2 0.07 -0.2 0.06 -0.2 0.05 -0.21 0.04 -0.21 0.03 -0.22 0.02 -0.22 0.01 -0.23 7.48 0 -0.02 0.61 -0.05 0.61 -0.08 0.6 -0.11 0.59 -0.13 0.57 -0.16 0.57 -0.19 0.55 -0.21 0.54 -0.24 0.53 -0.26 0.51 -0.29 0.5 -0.31 0.48 -0.33 0.46 -0.35 0.45 -0.37 0.43 -0.39 0.41 -0.41 0.4 -0.43 0.37 -0.45 0.35 -0.46 0.33 -0.48 0.31 -0.5 0.29 -0.51 0.26 -0.53 0.24 -0.54 0.21 -0.55 0.19 -0.57 0.16 -0.57 0.13 -0.59 0.11 -0.6 0.08 -0.61 0.05 -0.61 0.02 0 0zm0 0c-2.07,0 -3.74,-1.68 -3.74,-3.75 0,-2.07 1.67,-3.75 3.74,-3.75l0 7.51zm-52.45 -7.51l52.45 0 0 7.51 -52.45 0 0 0 0 -7.51zm0 7.51c-2.07,0 -3.74,-1.68 -3.74,-3.75 0,-2.07 1.67,-3.75 3.74,-3.75l0 7.51zm-11.91 -11.92l7.48 0 0 0 0.01 0.23 0.02 0.22 0.03 0.22 0.04 0.21 0.05 0.21 0.06 0.2 0.07 0.2 0.08 0.2 0.09 0.19 0.1 0.19 0.11 0.18 0.12 0.18 0.12 0.18 0.13 0.17 0.14 0.16 0.15 0.16 0.16 0.15 0.16 0.14 0.17 0.13 0.18 0.12 0.18 0.12 0.18 0.11 0.19 0.1 0.2 0.09 0.2 0.08 0.21 0.07 0.21 0.06 0.21 0.05 0.22 0.04 0.22 0.03 0.22 0.02 0.23 0.01 0 7.51 -0.61 -0.02 -0.61 -0.05 -0.6 -0.08 -0.59 -0.11 -0.57 -0.13 -0.57 -0.16 -0.55 -0.19 -0.54 -0.21 -0.53 -0.24 -0.51 -0.26 -0.5 -0.29 -0.48 -0.31 -0.47 -0.33 -0.45 -0.35 -0.43 -0.38 -0.41 -0.39 -0.39 -0.41 -0.38 -0.43 -0.35 -0.45 -0.33 -0.47 -0.31 -0.48 -0.29 -0.5 -0.26 -0.51 -0.24 -0.53 -0.21 -0.54 -0.19 -0.55 -0.16 -0.57 -0.13 -0.57 -0.11 -0.59 -0.08 -0.6 -0.05 -0.61 -0.02 -0.61 0 0zm0 0c0,-2.07 1.67,-3.75 3.74,-3.75 2.07,0 3.74,1.68 3.74,3.75l-7.48 0zm7.48 -100.35l0 100.35 -7.48 0 0 -100.35 0 0 7.48 0zm-7.48 0c0,-2.07 1.67,-3.75 3.74,-3.75 2.07,0 3.74,1.68 3.74,3.75l-7.48 0zm11.91 -11.92l0 7.51 0 0 -0.23 0.01 -0.22 0.02 -0.22 0.03 -0.22 0.04 -0.21 0.05 -0.21 0.06 -0.21 0.07 -0.2 0.08 -0.2 0.09 -0.19 0.1 -0.18 0.11 -0.18 0.12 -0.18 0.12 -0.17 0.13 -0.16 0.14 -0.16 0.15 -0.15 0.16 -0.14 0.16 -0.13 0.17 -0.12 0.18 -0.12 0.18 -0.11 0.18 -0.1 0.19 -0.09 0.19 -0.08 0.2 -0.07 0.2 -0.06 0.2 -0.05 0.21 -0.04 0.21 -0.03 0.22 -0.02 0.22 -0.01 0.23 -7.48 0 0.02 -0.61 0.05 -0.61 0.08 -0.6 0.11 -0.59 0.13 -0.57 0.16 -0.57 0.19 -0.55 0.21 -0.54 0.24 -0.53 0.26 -0.51 0.29 -0.5 0.31 -0.48 0.33 -0.47 0.35 -0.45 0.38 -0.43 0.39 -0.41 0.41 -0.39 0.43 -0.38 0.45 -0.35 0.47 -0.33 0.48 -0.31 0.5 -0.29 0.51 -0.26 0.53 -0.24 0.54 -0.21 0.55 -0.19 0.57 -0.16 0.57 -0.13 0.59 -0.11 0.6 -0.08 0.61 -0.05 0.61 -0.02 0 0zm0 0c2.07,0 3.74,1.68 3.74,3.75 0,2.07 -1.67,3.75 -3.74,3.75l0 -7.51z"/>
    </g>
    <g>
     <path class="fil1" d="M154.49 253.54c-2.05,0 -3.72,-1.68 -3.72,-3.75 0,-2.07 1.66,-3.75 3.72,-3.75l0 7.49zm18.73 0l-18.73 0 0 -7.49 18.73 0 0 7.49zm0 -7.49c2.05,0 3.72,1.68 3.72,3.75 0,2.07 -1.66,3.75 -3.72,3.75l0 -7.49z"/>
    </g>
    <g>
     <path class="fil1" d="M131.74 239.33c-2.06,0 -3.72,-1.68 -3.72,-3.75 0,-2.07 1.67,-3.75 3.72,-3.75l0 7.51zm65.59 0l-65.59 0 0 -7.51 65.59 0 0 7.51zm0 -7.51c2.06,0 3.72,1.68 3.72,3.75 0,2.07 -1.67,3.75 -3.72,3.75l0 -7.51z"/>
    </g>
    <g>
     <polyline class="fil2 str0" points="228.03,165.91 237.51,175.39 228.03,184.87 "/>
     <line class="fil2 str1" x1="217.23" y1="175.39" x2="237.33" y2= "175.39" />
    </g>
    <g>
     <polyline class="fil2 str2" points="230.72,218.48 221.24,209 230.72,199.53 "/>
     <line class="fil2 str3" x1="241.52" y1="209" x2="221.42" y2= "209" />
    </g>
    <path class="fil2 str4" d="M123.7 234.73c-23.6,-0.82 -42.48,-20.2 -42.48,-44 0,-18.33 11.21,-34.05 27.14,-40.67 -0.02,-0.53 -0.03,-1.06 -0.03,-1.6 0,-29.68 24.06,-53.73 53.73,-53.73 20.32,0 38,11.28 47.13,27.91 4.18,-2.77 9.19,-4.38 14.58,-4.38 14.62,0 26.47,11.85 26.47,26.47 0,5.64 -1.77,10.87 -4.78,15.17 17.42,3.36 30.58,18.69 30.58,37.09 0,20.65 -16.58,37.43 -37.15,37.76l0 0.01 -0.62 0 -113.04 0 -1.55 0 0 -0.03z"/>
    <g>
     <path class="fil2 str5" d="M163.79 169.09c-4.5,4.8 -10.45,8.02 -18.95,8.44 1.05,23.39 9.3,31.24 18.95,35.14"/>
     <path class="fil2 str5" d="M163.14 169.09c4.5,4.8 10.45,8.02 18.95,8.44 -1.05,23.39 -9.3,31.24 -18.95,35.14"/>
    </g>
   </g>
  </g>
 </g>
</svg>
