<?xml version="1.0" encoding="UTF-8"?>
<!DOCTYPE svg PUBLIC "-//W3C//DTD SVG 1.1//EN" "http://www.w3.org/Graphics/SVG/1.1/DTD/svg11.dtd">
<!-- Creator: CorelDRAW 2021 (64-Bit) -->
<svg xmlns="http://www.w3.org/2000/svg" xml:space="preserve" width="1.90401in" height="1.90401in" version="1.1" style="shape-rendering:geometricPrecision; text-rendering:geometricPrecision; image-rendering:optimizeQuality; fill-rule:evenodd; clip-rule:evenodd"
viewBox="0 0 819.58 819.58"
 xmlns:xlink="http://www.w3.org/1999/xlink"
 xmlns:xodm="http://www.corel.com/coreldraw/odm/2003">
 <defs>
  <style type="text/css">
   <![CDATA[
    .str0 {stroke:#FEFEFE;stroke-width:17.22;stroke-linecap:round;stroke-linejoin:round;stroke-miterlimit:2.61313}
    .fil1 {fill:none}
    .fil0 {fill:url(#id0)}
   ]]>
  </style>
  <linearGradient id="id0" gradientUnits="userSpaceOnUse" x1="409.79" y1="819.58" x2="409.79" y2="0">
   <stop offset="0" style="stop-opacity:1; stop-color:#2C7EB8"/>
   <stop offset="1" style="stop-opacity:1; stop-color:#6DCCDB"/>
  </linearGradient>
 </defs>
 <g id="Layer_x0020_1">
  <metadata id="CorelCorpID_0Corel-Layer"/>
  <g id="_1777938704880">
   <rect class="fil0" width="819.58" height="819.58" rx="86.78" ry="86.78"/>
   <g>
    <path class="fil1 str0" d="M319.66 374.16c15.47,7.81 26.08,23.85 26.08,42.37 0,26.2 -21.24,47.44 -47.44,47.44 -26.2,0 -47.44,-21.24 -47.44,-47.44 0,-8.8 2.39,-17.03 6.56,-24.09"/>
    <path class="fil1 str0" d="M326.03 359.46c0,0 -2.67,-7.99 -15.46,-11.73 -12.79,-3.73 -22.92,-2.66 -33.58,5.33 -10.66,7.99 -17.06,16.52 -25.59,16.52 -8.53,0 -12.79,0 -12.79,0 0,0 6.39,15.46 13.32,21.86 6.93,6.4 42.11,4.26 52.77,-0.53 10.66,-4.8 21.32,-12.79 21.32,-12.79l19.72 24.52c0,0 6.93,-9.6 4.8,-22.92 -2.13,-13.33 -5.86,-17.59 -12.79,-19.19 -6.93,-1.6 -11.73,-1.07 -11.73,-1.07z"/>
    <path class="fil1 str0" d="M444.36 460.74c0,0 -1.6,-31.45 1.07,-49.04 2.67,-17.59 7.99,-23.45 18.66,-35.18 10.66,-11.73 23.99,-14.39 37.84,-13.32 13.86,1.07 27.19,10.66 27.19,10.66 0,0 12.79,-4.26 23.45,-1.6 10.66,2.67 14.39,5.33 22.39,15.46 7.99,10.13 13.86,20.79 14.92,46.37 1.07,25.59 -0.53,47.97 6.4,60.77 6.93,12.79 15.99,14.39 15.99,14.39 0,0 -3.2,11.73 -10.66,15.99 -7.46,4.27 -19.19,9.6 -19.19,9.6"/>
    <path class="fil1 str0" d="M447.56 576.27l0 -8.39c0,-27.85 22.78,-50.64 50.64,-50.64l44.78 0c27.85,0 50.64,22.78 50.64,50.64l0 53.51"/>
    <path class="fil1 str0" d="M428.98 470.38c12.98,7.33 21.76,21.25 21.76,37.23 0,23.59 -19.12,42.71 -42.71,42.71 -23.59,0 -42.71,-19.12 -42.71,-42.71 0,-7.42 1.89,-14.39 5.22,-20.47"/>
    <path class="fil1 str0" d="M432.99 456.23c0,0 -2.4,-7.2 -13.92,-10.56 -11.52,-3.36 -20.63,-2.4 -30.23,4.8 -9.6,7.2 -15.36,14.88 -23.04,14.88 -7.68,0 -11.52,0 -11.52,0 0,0 5.76,13.92 12,19.68 6.24,5.76 37.91,3.84 47.51,-0.48 9.6,-4.32 19.2,-11.52 19.2,-11.52l17.76 22.08c0,0 6.24,-8.64 4.32,-20.64 -1.92,-12 -5.28,-15.84 -11.52,-17.28 -6.24,-1.44 -10.56,-0.96 -10.56,-0.96z"/>
    <path class="fil1 str0" d="M385.2 573.03l0 -21.67c0,-2.81 -0.21,-5.58 -0.59,-8.28m-22.17 -37.74c-9.81,-7.57 -22.09,-12.08 -35.34,-12.08l-62.9 0c-31.94,0 -58.1,26.16 -58.1,58.1l0 69.16"/>
    <path class="fil1 str0" d="M473.37 621.39l0 -2.81c0,-24.96 -20.42,-45.38 -45.38,-45.38l-44.18 0c-24.96,0 -45.38,20.42 -45.38,45.38l0 2.81"/>
    <line class="fil1 str0" x1="241.65" y1="568.78" x2="241.65" y2= "621.79" />
    <line class="fil1 str0" x1="350.49" y1="568.78" x2="350.49" y2= "588.05" />
    <line class="fil1 str0" x1="564.1" y1="568.78" x2="564.1" y2= "621.79" />
    <path class="fil1 str0" d="M564.06 422.46c3.06,6.26 4.77,13.31 4.77,20.76 0,26.2 -21.24,47.44 -47.44,47.44 -26.2,0 -47.44,-21.24 -47.44,-47.44 0,-4.69 0.68,-9.23 1.95,-13.51"/>
    <path class="fil1 str0" d="M457.4 427.79c6.33,0.86 12.46,1.3 18.32,1.25 24.23,-0.22 44.08,-8.94 56.57,-31.92 7.92,17.04 22.61,28.79 54.97,26.69"/>
    <path class="fil1 str0" d="M408.97 197.78c94.05,0 176.48,49.67 222.54,124.2 -21.33,-20.02 -50.02,-32.29 -81.59,-32.29 -28.67,0 -54.98,10.12 -75.54,26.99 -17.61,-14.54 -40.18,-23.27 -64.79,-23.27 -25.2,0 -48.25,9.15 -66.03,24.31 -20.75,-17.49 -47.54,-28.04 -76.8,-28.04 -30.16,0 -57.69,11.2 -78.69,29.66 46.35,-73.06 127.96,-121.57 220.9,-121.57z"/>
   </g>
  </g>
 </g>
</svg>
