<?xml version="1.0" encoding="UTF-8"?>
<!DOCTYPE svg PUBLIC "-//W3C//DTD SVG 1.1//EN" "http://www.w3.org/Graphics/SVG/1.1/DTD/svg11.dtd">
<!-- Creator: CorelDRAW 2021 (64-Bit) -->
<svg xmlns="http://www.w3.org/2000/svg" xml:space="preserve" width="1.90401in" height="1.90401in" version="1.1" style="shape-rendering:geometricPrecision; text-rendering:geometricPrecision; image-rendering:optimizeQuality; fill-rule:evenodd; clip-rule:evenodd"
viewBox="0 0 221.4 221.4"
 xmlns:xlink="http://www.w3.org/1999/xlink"
 xmlns:xodm="http://www.corel.com/coreldraw/odm/2003">
 <defs>
  <style type="text/css">
   <![CDATA[
    .str0 {stroke:#FEFEFE;stroke-width:4.65;stroke-linecap:round;stroke-linejoin:round;stroke-miterlimit:2.61313}
    .fil1 {fill:none}
    .fil0 {fill:url(#id0)}
   ]]>
  </style>
  <linearGradient id="id0" gradientUnits="userSpaceOnUse" x1="110.7" y1="221.4" x2="110.7" y2="0">
   <stop offset="0" style="stop-opacity:1; stop-color:#76A3DE"/>
   <stop offset="1" style="stop-opacity:1; stop-color:#B5DEFF"/>
  </linearGradient>
 </defs>
 <g id="Layer_x0020_1">
  <metadata id="CorelCorpID_0Corel-Layer"/>
  <g id="_3010260173856">
   <rect class="fil0" width="221.4" height="221.4" rx="23.44" ry="23.44"/>
   <g>
    <path class="fil1 str0" d="M133.95 124.88l15.11 9.74c2.87,1.85 6.74,1.01 8.59,-1.86l0 0c1.85,-2.87 1.01,-6.74 -1.86,-8.59l-48.84 -31.46"/>
    <path class="fil1 str0" d="M142.54 130.4c2.87,1.85 3.71,5.71 1.86,8.59l0 0c-1.85,2.87 -5.71,3.71 -8.59,1.86l-12.32 -7.94"/>
    <path class="fil1 str0" d="M131.05 137.68c2.87,1.85 3.71,5.71 1.86,8.59l0 0c-1.85,2.87 -5.71,3.71 -8.59,1.86l-10.91 -7.03"/>
    <rect class="fil1 str0" transform="matrix(0.391347 0.277945 -0.277945 0.391347 86.9218 120.358)" width="25.2" height="56.37" rx="12.6" ry="12.6"/>
    <path class="fil1 str0" d="M101.39 131.32l-0 0c-2.71,-1.93 -6.51,-1.28 -8.43,1.43l-6.72 9.47c-1.93,2.71 -1.28,6.51 1.43,8.43l0 0c2.71,1.93 6.51,1.28 8.43,-1.43l6.72 -9.47c1.93,-2.71 1.28,-6.51 -1.43,-8.43z"/>
    <path class="fil1 str0" d="M108.99 141.51l0 0c2.71,1.92 3.35,5.72 1.43,8.43l-4.14 5.83c-1.93,2.71 -5.72,3.36 -8.43,1.43l-0 0c-2.71,-1.93 -3.36,-5.72 -1.43,-8.43l4.14 -5.83c1.93,-2.71 5.72,-3.35 8.43,-1.43z"/>
    <path class="fil1 str0" d="M78.33 121.79l0 0c2.71,1.92 3.35,5.72 1.43,8.43l-4.14 5.83c-1.93,2.71 -5.72,3.36 -8.43,1.43l0 0c-2.71,-1.93 -3.36,-5.72 -1.43,-8.43l4.14 -5.83c1.93,-2.71 5.72,-3.35 8.43,-1.43z"/>
    <path class="fil1 str0" d="M61.68 70.31l16.39 8.23c1.11,0.56 1.57,1.93 1.01,3.04l-1.1 2.2 -19.83 39.48c-0.56,1.11 -1.93,1.57 -3.04,1.01l-16.39 -8.23"/>
    <circle class="fil1 str0" transform="matrix(0.403527 0.259945 -0.259945 0.403527 54.1967 109.674)" r="6.41"/>
    <path class="fil1 str0" d="M90.23 88.02c0,0 -5.93,-0.88 -12.26,-4.25"/>
    <path class="fil1 str0" d="M66.69 127.73c0,0 -5.48,-3.77 -7.76,-6.04"/>
    <path class="fil1 str0" d="M119.55 145.1c2.87,1.85 3.71,5.71 1.86,8.59l0 0c-1.85,2.87 -5.72,3.71 -8.59,1.86l-4.16 -2.68"/>
    <path class="fil1 str0" d="M106.95 92.7c0,0 -4.83,8.7 -10.55,12.31 -5.73,3.62 -9.63,2.29 -11.66,1.49 -2.03,-0.8 -2.75,-1.26 -2.75,-1.26 0,0 4.99,-10.26 8.25,-17.22 3.26,-6.96 8.81,-11.89 20.75,-13.02 11.95,-1.14 18.57,1.77 23.79,3.94 5.22,2.18 10.11,3.29 12.65,3.05 2.53,-0.24 3.24,-0.8 3.24,-0.8"/>
    <path class="fil1 str0" d="M166.5 113.3c0,0 -8.14,2.9 -9.98,11.41"/>
    <path class="fil1 str0" d="M138.8 100.39c0,0 -5.36,6.74 -9.8,6.51"/>
    <path class="fil1 str0" d="M164.04 65.3l-16.3 8.4c-1.11,0.57 -1.55,1.94 -0.97,3.05l1.13 2.18 20.25 39.26c0.57,1.11 1.94,1.55 3.05,0.97l16.3 -8.4"/>
    <circle class="fil1 str0" transform="matrix(-0.400753 0.264202 0.264202 0.400753 171.947 104.591)" r="6.41"/>
   </g>
  </g>
 </g>
</svg>
