<?xml version="1.0" encoding="UTF-8"?>
<!DOCTYPE svg PUBLIC "-//W3C//DTD SVG 1.1//EN" "http://www.w3.org/Graphics/SVG/1.1/DTD/svg11.dtd">
<!-- Creator: CorelDRAW 2021 (64-Bit) -->
<svg xmlns="http://www.w3.org/2000/svg" xml:space="preserve" width="62.1427mm" height="70.6528mm" version="1.1" style="shape-rendering:geometricPrecision; text-rendering:geometricPrecision; image-rendering:optimizeQuality; fill-rule:evenodd; clip-rule:evenodd"
viewBox="0 0 2853.58 3244.36"
 xmlns:xlink="http://www.w3.org/1999/xlink"
 xmlns:xodm="http://www.corel.com/coreldraw/odm/2003">
 <defs>
  <style type="text/css">
   <![CDATA[
    .str0 {stroke:#FEFEFE;stroke-width:4.59;stroke-miterlimit:22.9256}
    .str14 {stroke:#FEFEFE;stroke-width:4.75;stroke-linecap:round;stroke-linejoin:round;stroke-miterlimit:22.9256}
    .str11 {stroke:#FEFEFE;stroke-width:4.75;stroke-linecap:round;stroke-linejoin:round;stroke-miterlimit:22.9256}
    .str15 {stroke:#FEFEFE;stroke-width:4.75;stroke-linecap:round;stroke-linejoin:round;stroke-miterlimit:22.9256}
    .str12 {stroke:#FEFEFE;stroke-width:4.75;stroke-linecap:round;stroke-linejoin:round;stroke-miterlimit:22.9256}
    .str10 {stroke:#FEFEFE;stroke-width:4.75;stroke-linecap:round;stroke-linejoin:round;stroke-miterlimit:22.9256}
    .str9 {stroke:#FEFEFE;stroke-width:4.75;stroke-linecap:round;stroke-linejoin:round;stroke-miterlimit:22.9256}
    .str19 {stroke:#FEFEFE;stroke-width:4.75;stroke-linecap:round;stroke-linejoin:round;stroke-miterlimit:22.9256}
    .str13 {stroke:#FEFEFE;stroke-width:4.75;stroke-linecap:round;stroke-linejoin:round;stroke-miterlimit:22.9256}
    .str20 {stroke:#FEFEFE;stroke-width:7.2;stroke-linecap:round;stroke-linejoin:round;stroke-miterlimit:2.61313}
    .str2 {stroke:#FEFEFE;stroke-width:7.2;stroke-linecap:round;stroke-linejoin:round;stroke-miterlimit:2.61313}
    .str21 {stroke:#FEFEFE;stroke-width:7.2;stroke-linecap:round;stroke-linejoin:round;stroke-miterlimit:2.61313}
    .str28 {stroke:#FEFEFE;stroke-width:7.2;stroke-linecap:round;stroke-linejoin:round;stroke-miterlimit:2.61313}
    .str1 {stroke:#FEFEFE;stroke-width:7.2;stroke-linecap:round;stroke-linejoin:round;stroke-miterlimit:2.61313}
    .str27 {stroke:#FEFEFE;stroke-width:7.2;stroke-linecap:round;stroke-linejoin:round;stroke-miterlimit:2.61313}
    .str22 {stroke:#FEFEFE;stroke-width:7.2;stroke-linecap:round;stroke-linejoin:round;stroke-miterlimit:2.61313}
    .str24 {stroke:#FEFEFE;stroke-width:7.2;stroke-linecap:round;stroke-linejoin:round;stroke-miterlimit:2.61313}
    .str23 {stroke:#FEFEFE;stroke-width:7.2;stroke-linecap:round;stroke-linejoin:round;stroke-miterlimit:2.61313}
    .str25 {stroke:#FEFEFE;stroke-width:7.2;stroke-linecap:round;stroke-linejoin:round;stroke-miterlimit:2.61313}
    .str26 {stroke:#FEFEFE;stroke-width:7.2;stroke-linecap:round;stroke-linejoin:round;stroke-miterlimit:2.61313}
    .str17 {stroke:#FEFEFE;stroke-width:7.21;stroke-linecap:round;stroke-linejoin:round;stroke-miterlimit:2.61313}
    .str16 {stroke:#FEFEFE;stroke-width:7.21;stroke-linecap:round;stroke-linejoin:round;stroke-miterlimit:2.61313}
    .str18 {stroke:#FEFEFE;stroke-width:7.21;stroke-linecap:round;stroke-linejoin:round;stroke-miterlimit:2.61313}
    .str8 {stroke:#FEFEFE;stroke-width:7.51;stroke-linecap:round;stroke-linejoin:round;stroke-miterlimit:2.61313}
    .str5 {stroke:#FEFEFE;stroke-width:7.51;stroke-linecap:round;stroke-linejoin:round;stroke-miterlimit:2.61313}
    .str7 {stroke:#FEFEFE;stroke-width:7.51;stroke-linecap:round;stroke-linejoin:round;stroke-miterlimit:2.61313}
    .str6 {stroke:#FEFEFE;stroke-width:7.51;stroke-linecap:round;stroke-linejoin:round;stroke-miterlimit:2.61313}
    .str4 {stroke:#FEFEFE;stroke-width:7.51;stroke-linecap:round;stroke-linejoin:round;stroke-miterlimit:2.61313}
    .str3 {stroke:#FEFEFE;stroke-width:7.51;stroke-linecap:round;stroke-linejoin:round;stroke-miterlimit:2.61313}
    .fil14 {fill:none}
    .fil15 {fill:#FEFEFE}
    .fil12 {fill:#A8D4AF}
    .fil3 {fill:#81C391}
    .fil11 {fill:#55B365}
    .fil13 {fill:#2A4161;fill-rule:nonzero}
    .fil6 {fill:url(#id0)}
    .fil2 {fill:url(#id1)}
    .fil4 {fill:url(#id2)}
    .fil10 {fill:url(#id3)}
    .fil7 {fill:url(#id4)}
    .fil5 {fill:url(#id5)}
    .fil1 {fill:url(#id6)}
    .fil8 {fill:url(#id7)}
    .fil9 {fill:url(#id8)}
    .fil0 {fill:url(#id9)}
   ]]>
  </style>
  <linearGradient id="id0" gradientUnits="userSpaceOnUse" x1="1254.4" y1="1357.33" x2="1254.4" y2="948.74">
   <stop offset="0" style="stop-opacity:1; stop-color:#77BF8A"/>
   <stop offset="1" style="stop-opacity:1; stop-color:#A4D1A5"/>
  </linearGradient>
  <linearGradient id="id1" gradientUnits="userSpaceOnUse" xlink:href="#id0" x1="2313.73" y1="736.24" x2="2313.73" y2="549.1">
  </linearGradient>
  <linearGradient id="id2" gradientUnits="userSpaceOnUse" x1="679.59" y1="2515.71" x2="679.59" y2="0">
   <stop offset="0" style="stop-opacity:1; stop-color:#9ACDA3"/>
   <stop offset="1" style="stop-opacity:1; stop-color:#B0D7B6"/>
  </linearGradient>
  <linearGradient id="id3" gradientUnits="userSpaceOnUse" x1="788.74" y1="1705.11" x2="788.74" y2="1646.5">
   <stop offset="0" style="stop-opacity:1; stop-color:#79BA8B"/>
   <stop offset="1" style="stop-opacity:1; stop-color:#77C08D"/>
  </linearGradient>
  <linearGradient id="id4" gradientUnits="userSpaceOnUse" xlink:href="#id0" x1="1365.38" y1="1265.83" x2="1365.38" y2="1148.95">
  </linearGradient>
  <linearGradient id="id5" gradientUnits="userSpaceOnUse" xlink:href="#id0" x1="1304.19" y1="2146.93" x2="1304.19" y2="1356.7">
  </linearGradient>
  <linearGradient id="id6" gradientUnits="userSpaceOnUse" xlink:href="#id0" x1="2136.04" y1="882.74" x2="2136.04" y2="228.55">
  </linearGradient>
  <linearGradient id="id7" gradientUnits="userSpaceOnUse" xlink:href="#id3" x1="758.05" y1="2146.93" x2="758.05" y2="1750.67">
  </linearGradient>
  <linearGradient id="id8" gradientUnits="userSpaceOnUse" xlink:href="#id3" x1="733.08" y1="1750.99" x2="733.08" y2="1546.1">
  </linearGradient>
  <linearGradient id="id9" gradientUnits="userSpaceOnUse" xlink:href="#id0" x1="2215.77" y1="2146.93" x2="2215.77" y2="881.73">
  </linearGradient>
 </defs>
 <g id="Layer_x0020_1">
  <metadata id="CorelCorpID_0Corel-Layer"/>
  <g id="_2424919289424">
   <g>
    <path class="fil0" d="M1708.14 2137.63c0,0 -2.99,-38.83 14.94,-86.64 17.93,-47.8 17.92,-436.18 116.51,-627.38 98.59,-191.21 191.2,-233.03 191.2,-233.03l47.8 -20.91 -20.91 -47.8 47.8 -35.85c0,0 -74.68,-86.64 -89.62,-107.55 -14.94,-20.92 -23.9,-29.88 5.97,-35.85 29.87,-5.97 182.24,-32.86 247.96,-47.8 65.72,-14.94 92.62,-20.92 89.63,2.98 -2.98,23.9 -62.74,149.38 -62.74,149.38l80.66 -107.55c0,0 35.85,-5.98 32.86,17.92 -2.98,23.9 -86.64,131.45 -86.64,131.45l-2.99 56.76c0,0 14.94,26.89 38.84,35.85 192.98,72.37 296.25,414.6 313.69,606.47 11.95,131.45 5.97,209.13 23.9,256.93 17.92,47.8 32.86,71.7 23.9,92.61 -8.96,20.92 -1012.77,0 -1012.77,0zm371.07 -711.41l303.86 0 0 0.64c-17.89,27.61 -28.03,42.27 -30.3,44.21l-81.2 0c11.11,13.05 18.76,29.01 22.75,47.66l86.48 0c1.08,0.22 1.62,0.65 1.62,1.29 -19.41,29.11 -29.22,43.56 -29.65,43.56l-56.29 0c-1.18,14.99 -8.41,32.99 -21.45,54.02 -17.25,21.35 -33.75,35.15 -49.6,41.4 -29.44,14.13 -57.68,21.14 -84.64,21.14l0 0.65c0,2.16 6.58,10.89 19.84,26.2l150.09 181.04 0 8.52c0,0.86 -0.54,1.29 -1.62,1.29l-65.99 0c-118.72,-138.34 -178.13,-207.89 -178.13,-208.54l0 -41.95 0.65 -1.62c10.46,1.51 22.86,2.26 36.87,2.26 66.64,0 107.93,-21.67 124.22,-64.8 2.48,-6.36 3.77,-12.83 3.77,-19.63l-180.72 0c-0.86,0 -1.29,-0.43 -1.29,-1.18 20.06,-29.11 30.3,-43.67 30.73,-43.67l143.41 0 0 -0.65c-8.2,-16.6 -24.16,-29.54 -47.77,-38.82 -16.82,-5.5 -32.02,-8.2 -45.5,-8.2l-80.23 0 0 -1.62c19.41,-28.79 29.44,-43.24 30.09,-43.24z"/>
    <path class="fil1" d="M2179.24 882.74l0 -266.48c0,0 -49.26,0 -92.19,-26.52 -42.94,-26.52 -53.04,-131.34 -53.04,-131.34 0,0 65.67,-2.52 99.77,22.73 34.1,25.26 44.2,47.99 44.2,47.99l1.26 -132.61c0,0 -39.15,-37.89 -22.73,-98.51 16.42,-60.62 41.68,-69.46 41.68,-69.46 0,0 26.52,27.78 37.89,73.25 11.37,45.47 -29.04,97.24 -29.04,97.24l2.53 472.33 -30.31 11.37z"/>
    <path class="fil2" d="M2242.38 597.32l0 138.93c0,0 78.3,-12.63 108.61,-60.62 30.31,-47.99 34.1,-126.29 34.1,-126.29 0,0 -102.3,-6.31 -142.71,47.99z"/>
    <rect class="fil3" x="2050.95" y="1091.63" width="311.96" height="73.72" rx="36.86" ry="36.86"/>
    <path class="fil4" d="M341.19 2515.71l676.81 0c37.44,0 68.08,-30.64 68.08,-68.08l0 -1535.38 178.57 0 0 -0.01 0.99 0.01c51.66,0 93.55,-41.88 93.55,-93.55 0,-22.68 -8.07,-43.47 -21.5,-59.66l0 0 -585.01 -705.69 -0 0c-9.35,-30.88 -38.03,-53.36 -71.97,-53.36 -29.04,0 -54.24,16.47 -66.76,40.57l0 0 -592.27 718.25 -0.65 0.79 -0.32 0.39 0 0.01c-12.95,16.05 -20.71,36.47 -20.71,58.7 0,51.66 41.88,93.55 93.55,93.55l0.2 -0 179.36 0 0 1535.38c0,37.44 30.63,68.08 68.08,68.08zm157.55 -1934.96l402.4 0 0 0.86c-23.7,36.55 -37.13,55.98 -40.12,58.55l-107.53 0c14.71,17.27 24.85,38.41 30.13,63.11l114.52 0c1.43,0.28 2.14,0.86 2.14,1.71 -25.71,38.56 -38.7,57.69 -39.27,57.69l-74.54 0c-1.57,19.85 -11.14,43.69 -28.42,71.54 -22.85,28.28 -44.7,46.55 -65.69,54.84 -38.99,18.7 -76.4,27.99 -112.1,27.99l0 0.86c0,2.85 8.71,14.42 26.28,34.7l198.78 239.76 0 11.28c0,1.14 -0.72,1.71 -2.14,1.71l-87.39 0c-157.22,-183.21 -235.9,-275.31 -235.9,-276.17l0 -55.55 0.85 -2.14c13.85,2 30.27,3 48.84,3 88.25,0 142.94,-28.7 164.5,-85.82 3.28,-8.43 5,-16.99 5,-25.99l-239.33 0c-1.14,0 -1.71,-0.57 -1.71,-1.58 26.56,-38.55 40.12,-57.83 40.7,-57.83l189.92 0 0 -0.85c-10.85,-21.99 -31.99,-39.13 -63.26,-51.41 -22.28,-7.28 -42.41,-10.85 -60.26,-10.85l-106.24 0 0 -2.14c25.7,-38.13 38.98,-57.26 39.84,-57.26z"/>
    <path class="fil5" d="M987.14 2141.12c0,0 -1.87,-24.25 9.33,-54.11 11.2,-29.85 11.2,-272.43 72.77,-391.85 61.58,-119.42 119.42,-145.55 119.42,-145.55l29.86 -13.06 -13.06 -29.86 29.86 -22.39c0,0 -46.65,-54.11 -55.98,-67.18 -9.33,-13.06 -14.92,-18.66 3.73,-22.39 18.66,-3.73 113.83,-20.53 154.87,-29.86 41.05,-9.33 57.85,-13.06 55.98,1.87 -1.86,14.93 -39.18,93.3 -39.18,93.3l50.38 -67.17c0,0 22.4,-3.73 20.53,11.2 -1.86,14.93 -54.11,82.1 -54.11,82.1l-1.87 35.45c0,0 9.33,16.79 24.26,22.39 120.53,45.2 185.03,258.96 195.93,378.79 7.47,82.1 3.73,130.62 14.93,160.48 11.2,29.85 20.53,44.78 14.93,57.84 -5.6,13.06 -632.56,0 -632.56,0zm231.77 -444.34l189.78 0 0 0.4c-11.18,17.24 -17.51,26.4 -18.92,27.61l-50.71 0c6.94,8.15 11.72,18.12 14.21,29.77l54.01 0c0.68,0.13 1.01,0.4 1.01,0.81 -12.12,18.18 -18.25,27.21 -18.52,27.21l-35.16 0c-0.74,9.36 -5.25,20.61 -13.4,33.74 -10.77,13.34 -21.08,21.95 -30.98,25.86 -18.39,8.82 -36.03,13.2 -52.87,13.2l0 0.4c0,1.35 4.11,6.8 12.39,16.37l93.75 113.08 0 5.32c0,0.54 -0.34,0.81 -1.01,0.81l-41.22 0c-74.15,-86.41 -111.25,-129.84 -111.25,-130.25l0 -26.2 0.4 -1.01c6.53,0.95 14.28,1.42 23.03,1.42 41.62,0 67.41,-13.54 77.58,-40.48 1.55,-3.97 2.36,-8.01 2.36,-12.26l-112.87 0c-0.54,0 -0.81,-0.27 -0.81,-0.74 12.53,-18.18 18.92,-27.28 19.19,-27.28l89.57 0 0 -0.4c-5.12,-10.37 -15.09,-18.46 -29.84,-24.25 -10.5,-3.43 -20,-5.12 -28.42,-5.12l-50.1 0 0 -1.01c12.12,-17.98 18.39,-27.01 18.79,-27.01z"/>
    <path class="fil6" d="M1281.38 1357.34l0 -166.44c0,0 -30.77,0 -57.58,-16.56 -26.82,-16.56 -33.13,-82.04 -33.13,-82.04 0,0 41.02,-1.58 62.32,14.2 21.3,15.77 27.61,29.98 27.61,29.98l0.79 -82.83c0,0 -24.45,-23.67 -14.2,-61.53 10.25,-37.87 26.03,-43.38 26.03,-43.38 0,0 16.57,17.35 23.67,45.75 7.1,28.4 -18.14,60.74 -18.14,60.74l1.58 295.02 -18.93 7.1z"/>
    <path class="fil7" d="M1320.82 1179.07l0 86.77c0,0 48.9,-7.89 67.84,-37.86 18.93,-29.98 21.3,-78.88 21.3,-78.88 0,0 -63.89,-3.94 -89.13,29.98z"/>
    <rect class="fil3" x="1201.25" y="1487.8" width="194.84" height="46.04" rx="23.02" ry="23.02"/>
    <path class="fil8" d="M599.06 2144.01c0,0 -0.94,-12.16 4.68,-27.13 5.61,-14.97 5.61,-136.61 36.49,-196.5 30.88,-59.88 59.88,-72.98 59.88,-72.98l14.97 -6.55 -6.55 -14.97 14.97 -11.23c0,0 -23.39,-27.13 -28.07,-33.69 -4.68,-6.55 -7.48,-9.35 1.87,-11.23 9.36,-1.87 57.08,-10.29 77.66,-14.97 20.58,-4.68 29,-6.55 28.07,0.94 -0.94,7.48 -19.65,46.78 -19.65,46.78l25.26 -33.69c0,0 11.23,-1.87 10.3,5.62 -0.94,7.48 -27.14,41.17 -27.14,41.17l-0.93 17.78c0,0 4.68,8.42 12.16,11.23 60.44,22.67 92.78,129.85 98.25,189.95 3.74,41.17 1.87,65.5 7.48,80.47 5.61,14.97 10.29,22.45 7.48,29.01 -2.81,6.55 -317.2,0 -317.2,0zm116.22 -222.81l95.16 0 0 0.2c-5.61,8.65 -8.78,13.24 -9.49,13.84l-25.43 0c3.48,4.09 5.87,9.09 7.12,14.93l27.09 0c0.34,0.07 0.51,0.2 0.51,0.4 -6.08,9.12 -9.15,13.64 -9.28,13.64l-17.63 0c-0.37,4.7 -2.64,10.34 -6.72,16.92 -5.4,6.69 -10.57,11.01 -15.53,12.97 -9.22,4.42 -18.06,6.62 -26.51,6.62l0 0.21c0,0.68 2.06,3.41 6.21,8.21l47.01 56.7 0 2.67c0,0.27 -0.17,0.41 -0.51,0.41l-20.67 0c-37.18,-43.33 -55.79,-65.11 -55.79,-65.31l0 -13.14 0.2 -0.51c3.27,0.47 7.16,0.71 11.55,0.71 20.87,0 33.81,-6.79 38.9,-20.3 0.78,-1.99 1.18,-4.02 1.18,-6.15l-56.6 0c-0.27,0 -0.4,-0.13 -0.4,-0.37 6.28,-9.12 9.49,-13.67 9.62,-13.67l44.91 0 0 -0.2c-2.57,-5.2 -7.57,-9.25 -14.96,-12.16 -5.27,-1.72 -10.03,-2.57 -14.25,-2.57l-25.12 0 0 -0.51c6.08,-9.02 9.22,-13.54 9.42,-13.54z"/>
    <path class="fil9" d="M746.61 1750.99l0 -83.46c0,0 -15.43,0 -28.87,-8.31 -13.45,-8.31 -16.61,-41.13 -16.61,-41.13 0,0 20.57,-0.79 31.25,7.12 10.68,7.91 13.84,15.03 13.84,15.03l0.39 -41.53c0,0 -12.26,-11.87 -7.12,-30.85 5.14,-18.98 13.05,-21.75 13.05,-21.75 0,0 8.31,8.7 11.87,22.94 3.56,14.24 -9.1,30.45 -9.1,30.45l0.79 147.93 -9.49 3.56z"/>
    <path class="fil10" d="M766.39 1661.6l0 43.51c0,0 24.52,-3.95 34.02,-18.98 9.49,-15.03 10.68,-39.56 10.68,-39.56 0,0 -32.04,-1.98 -44.69,15.03z"/>
    <rect class="fil11" x="706.43" y="1816.41" width="97.7" height="23.09" rx="11.54" ry="11.54"/>
    <rect class="fil12" x="511.02" y="2137.63" width="2342.55" height="96.74"/>
   </g>
   <polygon class="fil13" points="246.76,2521.16 246.76,2541.79 613.49,2767.23 246.76,2992.66 246.76,3013.3 802.41,3013.3 802.41,2997.42 268.2,2997.42 636.51,2770.4 636.51,2764.05 268.2,2537.03 802.41,2537.03 802.41,2521.16 "/>
   <path id="_1" class="fil13" d="M405.52 2130.47l212.73 0c107.95,0 177.81,65.88 177.81,157.96 0,85.73 -60.32,135.73 -138.12,135.73l-252.42 0 0 15.87 252.42 0c91.28,0 152.41,-61.12 152.41,-150.81 0,-72.24 -38.9,-136.53 -116.69,-158.75l108.75 0 0 -15.88 -396.89 0 0 15.88z"/>
   <path id="_2" class="fil13" d="M419.81 1839.79l-14.29 0 0 126.21 -111.13 0 4.76 15.87 106.36 0 0 95.25 14.29 0 0 -95.25 294.49 0c79.38,0 103.99,-43.66 88.11,-142.08l-14.29 0c13.49,89.69 -2.38,126.21 -73.83,126.21l-294.49 0 0 -126.21z"/>
   <path id="_3" class="fil13" d="M405.52 1488.79l212.73 0c107.95,0 177.81,65.88 177.81,157.96 0,85.73 -60.32,135.73 -138.12,135.73l-252.42 0 0 15.87 252.42 0c91.28,0 152.41,-61.12 152.41,-150.81 0,-72.24 -38.9,-136.53 -116.69,-158.75l108.75 0 0 -15.88 -396.89 0 0 15.88z"/>
   <path id="_4" class="fil13" d="M405.52 1021.1l121.45 0c-76.99,30.16 -129.38,103.19 -129.38,191.3 0,115.1 89.69,207.18 206.38,207.18 116.68,0 206.38,-92.08 206.38,-207.18 0,-88.11 -52.39,-161.14 -129.39,-191.3l121.45 0 0 -15.87 -396.89 0 0 15.87zm390.54 191.3c0,107.16 -84.14,191.3 -192.09,191.3 -107.95,0 -192.1,-84.14 -192.1,-191.3 0,-107.16 84.14,-191.3 192.1,-191.3 107.95,0 192.09,84.14 192.09,191.3z"/>
   <polygon id="_5" class="fil13" points="802.41,920.14 802.41,904.26 222.95,904.26 222.95,920.14 "/>
   <polygon class="fil13" points="855.38,1457.04 841.09,1457.04 841.09,1754.71 1396.73,1754.71 1396.73,1738.83 1126.85,1738.83 1126.85,1461.01 1112.56,1461.01 1112.56,1738.83 855.38,1738.83 "/>
   <path id="_1_0" class="fil13" d="M999.84 1106.04l212.73 0c107.95,0 177.81,65.88 177.81,157.96 0,85.73 -60.32,135.73 -138.12,135.73l-252.42 0 0 15.87 252.42 0c91.28,0 152.41,-61.12 152.41,-150.81 0,-72.24 -38.9,-136.53 -116.69,-158.75l108.75 0 0 -15.88 -396.89 0 0 15.88z"/>
   <path id="_2_1" class="fil13" d="M991.91 830.44c0,72.23 38.89,136.53 116.68,158.75l-108.75 0 0 15.88 396.89 0 0 -15.88 -212.73 0c-107.95,0 -177.81,-65.88 -177.81,-157.96 0,-85.73 60.33,-135.73 138.12,-135.73l252.42 0 0 -15.88 -252.42 0c-91.28,0 -152.4,61.12 -152.4,150.82z"/>
   <path id="_3_2" class="fil13" d="M841.09 239.72l283.38 0c-78.59,28.58 -132.56,102.4 -132.56,191.3 0,115.1 89.69,207.18 206.38,207.18 116.68,0 206.38,-92.08 206.38,-207.18 0,-88.9 -53.98,-162.72 -132.56,-191.3l124.62 0 0 -15.87 -555.64 0 0 15.87zm549.29 191.3c0,107.16 -84.14,191.3 -192.09,191.3 -107.95,0 -192.1,-84.14 -192.1,-191.3 0,-107.16 84.14,-191.3 192.1,-191.3 107.95,0 192.09,84.14 192.09,191.3z"/>
   <g>
    <g>
     <line class="fil14 str0" x1="1291.41" y1="1971.38" x2="1366.1" y2= "1971.38" />
     <line class="fil14 str0" x1="1291.41" y1="1981.56" x2="1401.3" y2= "1981.56" />
     <line class="fil14 str0" x1="1291.41" y1="1993.45" x2="1447.9" y2= "1993.45" />
     <line class="fil14 str0" x1="1291.41" y1="2004.77" x2="1509.97" y2= "2004.77" />
     <line class="fil14 str0" x1="1291.41" y1="2016.22" x2="1568.86" y2= "2016.22" />
    </g>
    <g>
     <circle class="fil14 str1" cx="608.09" cy="1215.3" r="84.93"/>
     <polyline class="fil14 str2" points="608.09,1130.37 608.09,1215.3 645.53,1139.05 "/>
     <line class="fil14 str2" x1="693.02" y1="1215.3" x2="608.09" y2= "1215.3" />
    </g>
    <g>
     <g>
      <ellipse class="fil14 str3" cx="1193.86" cy="430.59" rx="46.78" ry="11.04"/>
      <path class="fil14 str4" d="M1240.63 505.48c0,0 0,0 0,0 0,6.1 -20.94,11.04 -46.77,11.04 -25.83,0 -46.78,-4.95 -46.78,-11.04 0,-0.28 0.05,-0.56 0.14,-0.85"/>
      <line class="fil14 str5" x1="1147.08" y1="430.59" x2="1147.08" y2= "504.39" />
      <line class="fil14 str5" x1="1240.63" y1="430.59" x2="1240.63" y2= "505.48" />
      <path class="fil14 str6" d="M1240.63 481.05c0,0 0,0 0,0 0,6.1 -20.94,11.04 -46.77,11.04 -25.83,0 -46.78,-4.95 -46.78,-11.04 0,-0.28 0.05,-0.56 0.14,-0.85"/>
      <path class="fil14 str7" d="M1240.63 458.24c0,0 0,0 0,0 0,6.1 -20.94,11.04 -46.77,11.04 -25.83,0 -46.78,-4.94 -46.78,-11.04 0,-0.28 0.05,-0.57 0.14,-0.85"/>
     </g>
     <path class="fil14 str8" d="M1131.71 472.16c-18.96,0 -34.32,-15.36 -34.32,-34.32 0,-14.9 9.5,-27.58 22.77,-32.33 0.71,-27.67 23.36,-49.88 51.2,-49.88 13.06,0 24.97,4.89 34.02,12.93 5.43,-3.6 11.95,-5.7 18.95,-5.7 18.96,0 34.32,15.37 34.32,34.32 0,2.46 -0.26,4.86 -0.75,7.17 0.48,-0.02 0.96,-0.03 1.44,-0.03 18.96,0 34.32,15.37 34.32,34.32 0,18.96 -15.36,34.32 -34.32,34.32"/>
    </g>
    <g>
     <polygon class="fil14 str9" points="1121.67,2973.92 1179.71,3007.43 1237.74,3040.94 1237.74,3107.95 1237.74,3174.97 1179.71,3208.48 1121.67,3241.98 1063.63,3208.48 1005.6,3174.97 1005.6,3107.95 1005.6,3040.94 1063.63,3007.43 "/>
     <polygon class="fil14 str10" points="1005.99,2772.85 1064.03,2806.36 1122.06,2839.86 1122.06,2906.88 1122.06,2973.89 1064.03,3007.4 1005.99,3040.91 947.95,3007.4 889.92,2973.89 889.92,2906.88 889.92,2839.86 947.95,2806.36 "/>
     <polygon class="fil14 str11" points="1123.74,2572.87 1181.78,2606.38 1239.81,2639.88 1239.81,2706.9 1239.81,2773.91 1181.78,2807.42 1123.74,2840.93 1065.7,2807.42 1007.66,2773.91 1007.66,2706.9 1007.66,2639.88 1065.7,2606.38 "/>
     <polygon class="fil14 str12" points="1355.14,2573.09 1413.17,2606.6 1471.21,2640.1 1471.21,2707.12 1471.21,2774.13 1413.17,2807.64 1355.14,2841.15 1297.1,2807.64 1239.06,2774.13 1239.06,2707.12 1239.06,2640.1 1297.1,2606.6 "/>
     <polygon class="fil14 str13" points="1240.19,2372.02 1298.23,2405.53 1356.26,2439.04 1356.26,2506.06 1356.26,2573.07 1298.23,2606.58 1240.19,2640.09 1182.15,2606.58 1124.11,2573.07 1124.11,2506.06 1124.11,2439.04 1182.15,2405.53 "/>
     <polygon class="fil14 str14" points="1007.95,2370.58 1065.99,2404.09 1124.02,2437.6 1124.02,2504.61 1124.02,2571.63 1065.99,2605.14 1007.95,2638.64 949.91,2605.14 891.88,2571.63 891.88,2504.61 891.88,2437.6 949.91,2404.09 "/>
     <g>
      <polygon class="fil14 str15" points="1124.79,2170.8 1182.82,2204.31 1240.86,2237.81 1240.86,2304.83 1240.86,2371.85 1182.82,2405.35 1124.79,2438.86 1066.75,2405.35 1008.71,2371.85 1008.71,2304.83 1008.71,2237.81 1066.75,2204.31 "/>
      <g>
       <g>
        <circle class="fil14 str16" cx="1124.79" cy="2284.53" r="14.45"/>
        <line class="fil14 str17" x1="1124.79" y1="2298.97" x2="1124.79" y2= "2339.58" />
        <line class="fil14 str17" x1="1132.99" y1="2329.43" x2="1124.79" y2= "2329.43" />
       </g>
       <polygon class="fil14 str18" points="1124.78,2217.13 1162.76,2239.05 1200.74,2260.98 1200.74,2304.83 1200.74,2348.68 1162.76,2370.61 1124.78,2392.53 1086.81,2370.61 1048.83,2348.68 1048.83,2304.83 1048.83,2260.98 1086.81,2239.05 "/>
      </g>
     </g>
     <circle class="fil15" cx="1005.62" cy="2368.25" r="16.22"/>
     <circle class="fil15" cx="1240.19" cy="2640.09" r="16.22"/>
     <circle class="fil15" cx="1122.06" cy="2839.86" r="16.22"/>
     <circle class="fil15" cx="1005.6" cy="3040.94" r="16.22"/>
     <g>
      <polygon class="fil14 str19" points="1125.14,1903.18 1183.18,1936.69 1241.21,1970.19 1241.21,2037.21 1241.21,2104.23 1183.18,2137.73 1125.14,2171.24 1067.11,2137.73 1009.07,2104.23 1009.07,2037.21 1009.07,1970.19 1067.11,1936.69 "/>
      <g>
       <polygon class="fil14 str20" points="1125.14,1947.97 1163.78,1970.28 1202.43,1992.59 1202.43,2037.21 1202.43,2081.83 1163.78,2104.14 1125.14,2126.46 1086.5,2104.14 1047.86,2081.83 1047.86,2037.21 1047.86,1992.59 1086.5,1970.28 "/>
       <g>
        <g>
         <path class="fil14 str21" d="M1169.13 2058.92c-8.61,16.31 -25.54,26.51 -43.98,26.51 -27.47,0 -49.74,-22.27 -49.74,-49.74 0,-27.47 22.27,-49.74 49.74,-49.74 27.15,0 49.29,21.78 49.73,48.92"/>
         <polyline class="fil14 str22" points="1150.43,2057.69 1174.31,2057.69 1174.31,2077.91 "/>
        </g>
        <g>
         <line class="fil14 str23" x1="1082.95" y1="2035.43" x2="1094.8" y2= "2035.43" />
         <line class="fil14 str24" x1="1155.48" y1="2035.43" x2="1167.33" y2= "2035.43" />
        </g>
        <g>
         <line class="fil14 str25" x1="1125.07" y1="1993.24" x2="1125.09" y2= "2005.09" />
         <line class="fil14 str26" x1="1125.19" y1="2065.76" x2="1125.21" y2= "2077.62" />
        </g>
        <g>
         <line class="fil14 str27" x1="1125.14" y1="2035.69" x2="1147.93" y2= "2014.15" />
         <line class="fil14 str28" x1="1125.14" y1="2035.69" x2="1109.59" y2= "2023.05" />
        </g>
       </g>
      </g>
     </g>
    </g>
   </g>
  </g>
 </g>
</svg>
