<?xml version="1.0" encoding="UTF-8"?><svg id="uuid-df45f5b3-35be-499f-9a4b-c8c4584f7c17" xmlns="http://www.w3.org/2000/svg" viewBox="0 0 300 284.24"><g id="uuid-6304fa1b-9b48-4356-82b7-25fb2aa55434"><g id="uuid-6c106b30-03a4-4270-b05c-035a5783480f"><path d="m285.08,117.94c-2.17-11.53-4.96-22.94-8.36-34.17-10.2-32.51-30.46-65.42-65.28-76.48-25.7-8.16-53.45-2.49-75.18,14.12-34.05,26.07-58.86,61.64-96.14,84.23C8.99,124.48-7.3,154.95,3.17,198.01c10.47,43.06,45.41,68.17,83.65,65.08,31.8-2.57,65.03.17,92.52,15.61,24.56,13.79,67.97,1.82,103.87-35.88,20.91-21.96,18.89-49.87,12.08-75.98-4.2-16.08-6.94-32.56-10.21-48.91Z" fill="#e6e7e8" stroke-width="0"/><path d="m285.08,117.94c-2.17-11.53-4.96-22.94-8.36-34.17-10.2-32.51-30.46-65.42-65.28-76.48-25.7-8.16-53.45-2.49-75.18,14.12-34.05,26.07-58.86,61.64-96.14,84.23C8.99,124.48-7.3,154.95,3.17,198.01c10.47,43.06,45.41,68.17,83.65,65.08,31.8-2.57,65.03.17,92.52,15.61,24.56,13.79,67.97,1.82,103.87-35.88,20.91-21.96,18.89-49.87,12.08-75.98-4.2-16.08-6.94-32.56-10.21-48.91Z" fill="#e6e7e8" isolation="isolate" opacity=".7" stroke-width="0"/></g><path d="m61.22,16.26s3.89-3.06,4.87-5.03c.83-1.66,1.46-4.04.59-5.81-.74-1.68-2.7-2.44-4.38-1.7-.12.05-.23.11-.34.18-2.39,1.49-2.65,6.56-2.03,9,.05.19,1.25,3.4,1.3,3.36Z" fill="#dcddde" isolation="isolate" opacity=".7" stroke-width="0"/><path d="m25.3,41.82c.16.15,2.93,2.15,2.95,2.11s1.54-4.7,1.29-6.89c-.22-1.87-1.01-4.15-2.72-5.19-1.55-.99-3.6-.54-4.59,1.01-.07.11-.13.22-.19.33-1.18,2.56,1.41,6.93,3.26,8.63Z" fill="#dcddde" isolation="isolate" opacity=".7" stroke-width="0"/><path d="m106.7,20.91s-14.22,14.68-14.12,32.71c.1,18.03,14.43,32.59,14.43,32.59,0,0,14.23-14.67,14.12-32.71s-14.43-32.59-14.43-32.59Z" fill="#dcddde" isolation="isolate" opacity=".7" stroke-width="0"/><path d="m86.42,64.42c.19-.2.36-.41.51-.64,1.03-1.57,1.92-3.85,1.25-5.73-.54-1.75-2.41-2.73-4.16-2.19-.12.04-.24.08-.36.14-1.94.91-2.88,4.01-3.08,6.54-.77-.17-1.47-.31-2.07-.42-.25-.57-.51-1.15-.77-1.73s-.47-1.2-.72-1.82c-.34-.9-.64-1.84-.95-2.79,1.12-.5,4.39-2.03,5.61-3.38s2.49-3.52,2.11-5.47c-.28-1.81-1.97-3.06-3.78-2.79-.12.02-.25.04-.37.08-2.71.83-4.29,5.63-4.34,8.15,0,.07,0,.61.09,1.25-.27-.93-.55-1.86-.79-2.82-.7-2.7-1.32-5.47-1.95-8.25-.13-.57-.27-1.15-.41-1.73.95-.42,4.51-2.05,5.81-3.46s2.49-3.52,2.11-5.47c-.28-1.81-1.97-3.06-3.78-2.79-.12.02-.25.04-.37.08-2.7.83-4.29,5.63-4.34,8.15,0,.08.05.72.12,1.44-.37-1.5-.75-3-1.18-4.47-.72-2.53-1.6-5.01-2.66-7.42.34-.14,4.56-1.97,5.98-3.54,1.25-1.4,2.49-3.52,2.1-5.47-.28-1.81-1.97-3.06-3.78-2.79-.12.02-.25.04-.37.08-2.7.83-4.29,5.63-4.34,8.15,0,.17.21,2.49.31,3.32,0-.03,0-.06,0-.08-1.09-2.34-2.38-4.58-3.87-6.69-1.32-1.89-2.75-3.7-4.28-5.43-1.4-1.66-2.78-3.01-4.01-4.23-.67-.66-1.3-1.25-1.89-1.79h.06s-1.31-3.14-1.42-3.32c-1.26-2.18-4.98-5.64-7.73-5.04-1.79.4-2.92,2.17-2.53,3.96.03.12.06.25.1.37.61,1.89,2.71,3.16,4.48,3.78s5.81.32,6.79.23c.6.58,1.24,1.2,1.93,1.9,1.2,1.25,2.55,2.67,3.91,4.3.37.44.74.92,1.1,1.39-.78-.66-1.88-1.53-1.99-1.6-2.12-1.35-7.02-2.71-9.18-.91-1.39,1.2-1.55,3.29-.35,4.68.09.11.19.2.29.3,1.41,1.4,3.86,1.56,5.72,1.29s5.4-2.49,6.15-2.93c.83,1.03,1.6,2.12,2.38,3.32,1.42,2.1,2.65,4.33,3.68,6.64.06.13.1.28.16.42-.33-.39-2.31-2.38-2.49-2.49-1.96-1.58-6.64-3.46-9.03-1.92-1.51,1.05-1.88,3.12-.83,4.62.07.1.15.21.24.3,1.25,1.54,3.66,1.98,5.54,1.91,2.17-.07,6.43-2.23,6.59-2.31.96,2.35,1.76,4.77,2.41,7.23.48,1.82.91,3.68,1.3,5.55-.44-.5-2.28-2.35-2.43-2.49-1.96-1.57-6.64-3.46-9.03-1.91-1.51,1.05-1.88,3.12-.83,4.62.07.1.15.21.24.3,1.25,1.54,3.66,1.98,5.54,1.91,2.12-.08,6.21-2.13,6.55-2.3l.55,2.56c.57,2.78,1.14,5.57,1.78,8.3.22.95.47,1.88.72,2.81-.69-.72-1.97-2.01-2.09-2.11-1.96-1.57-6.64-3.46-9.03-1.91-1.51,1.05-1.88,3.12-.83,4.62.07.1.15.21.24.3,1.25,1.54,3.66,1.98,5.54,1.9s5.36-1.71,6.34-2.18c.42,1.54.88,3.06,1.4,4.54.24.63.44,1.3.71,1.89l.4.95-.49-.07s-.04.88.04,2.31c-2.07-1.47-5.05-2.74-6.99-1.85-1.65.81-2.33,2.8-1.52,4.44.06.11.12.22.19.33.12.21.27.41.43.6.37,2.18,1.29,4.24,2.67,5.96.11.12,1.51,1.42,2.24,2.07-.71-.39-1.41-.76-2.14-1.18-1.05-.58-2.15-1.24-3.22-1.87l-1.66-1.05c-.56-.34-1.06-.74-1.6-1.11-.78-.56-1.56-1.18-2.33-1.79.66-1.05,2.54-4.15,2.82-5.93s.12-4.3-1.26-5.72c-1.21-1.38-3.31-1.51-4.69-.29-.1.09-.2.19-.29.29-1.81,2.16-.47,7.06.87,9.19,0,.07.37.49.76.99-.74-.62-1.48-1.25-2.21-1.91-2.07-1.87-4.15-3.84-6.18-5.81l-1.3-1.22c.56-.87,2.63-4.19,2.92-6.08s.12-4.3-1.26-5.73c-1.21-1.38-3.31-1.51-4.69-.29-.1.09-.2.19-.29.29-1.81,2.16-.47,7.06.83,9.19.05.07.45.57.9,1.13-1.14-1.05-2.28-2.08-3.45-3.07-1.99-1.71-4.1-3.29-6.3-4.72.21-.31,2.72-4.15,3.03-6.25.28-1.86.12-4.3-1.26-5.73-1.21-1.38-3.31-1.51-4.69-.29-.1.09-.2.19-.29.29-1.81,2.16-.47,7.06.83,9.19.09.15,1.54,1.95,2.07,2.57l-.07-.05c-2.2-1.35-4.51-2.51-6.92-3.45-2.14-.85-4.33-1.57-6.56-2.17-2.06-.57-3.98-.97-5.68-1.31-.92-.17-1.77-.32-2.56-.45h0s-2.83-1.9-3.02-1.99c-2.25-1.12-7.27-1.96-9.23.06-1.26,1.33-1.21,3.43.12,4.7.11.1.22.2.35.29,1.55,1.24,4,1.15,5.81.67s4.98-2.92,5.81-3.54c.83.15,1.66.32,2.66.51,1.66.38,3.6.83,5.63,1.44.55.16,1.12.36,1.66.54-1.01-.11-2.41-.23-2.54-.23-2.49.04-7.35,1.61-8.16,4.3-.48,1.77.56,3.6,2.34,4.08.12.03.24.06.36.08,1.95.38,4.08-.83,5.48-2.08s3.16-5.03,3.51-5.81c1.25.42,2.49.88,3.8,1.44,2.36.98,4.62,2.17,6.76,3.55.12.07.24.17.36.26-.49-.14-3.24-.71-3.44-.73-2.49-.23-7.47.83-8.59,3.38-.68,1.7.14,3.64,1.85,4.32.12.05.24.09.37.12,1.9.59,4.15-.37,5.68-1.47,1.76-1.26,4.15-5.41,4.21-5.56,2.1,1.44,4.1,3.01,6,4.7,1.4,1.25,2.78,2.57,4.15,3.91-.65-.17-3.21-.71-3.4-.72-2.49-.23-7.47.83-8.59,3.39-.68,1.7.15,3.64,1.86,4.31.12.05.24.09.36.12,1.9.59,4.15-.37,5.68-1.47,1.72-1.23,4-5.19,4.19-5.52.62.61,1.25,1.21,1.86,1.83,2.02,2.01,4.03,4.03,6.08,5.95.71.67,1.43,1.3,2.15,1.94-.97-.22-2.75-.59-2.91-.61-2.49-.23-7.47.83-8.59,3.39-.68,1.7.15,3.64,1.86,4.31.12.05.24.09.36.12,1.89.6,4.15-.37,5.67-1.46s3.53-4.39,4.08-5.32c1.21,1.05,2.43,2.07,3.69,3.01.55.39,1.08.83,1.66,1.18l1.62,1.08c1.13.71,2.18,1.35,3.25,1.98.53.32,1.05.61,1.58.91-.96-.37-2.49-.93-2.62-.97-2.44-.61-7.52-.35-9,2.04-.93,1.58-.41,3.62,1.18,4.55.11.07.23.12.34.18,1.79.87,4.15.26,5.81-.59,1.85-.94,4.63-4.38,4.98-4.8,1.3.74,2.56,1.44,3.75,2.08,3.19,1.71,5.98,3.07,8.14,4.09,7.03,6.08,16.91,6.74,16.91,6.74,0,0,.52-11.84-6.44-19.63-2.38-2.57-5.28-4.6-8.51-5.95Zm-12.54,11.55c.22-.49,1.9-4.25,2.02-6.37l1.16-.24c.71,3.74,2.2,7.29,4.36,10.42-1.28-.6-2.66-1.28-4.15-2.03-1.07-.56-2.22-1.15-3.39-1.79h0Z" fill="#dcddde" isolation="isolate" opacity=".7" stroke-width="0"/><path d="m138.23,62.16s-11.85.36-19.1,7.9-7.16,19.38-7.16,19.38c0,0,11.84-.37,19.1-7.9s7.16-19.38,7.16-19.38Z" fill="#dcddde" isolation="isolate" opacity=".7" stroke-width="0"/><polygon points="107.29 69.8 118.92 59.33 118.42 58.78 107.28 68.79 107.22 55.09 107.28 55.13 117.13 40.74 116.5 40.31 107.22 53.9 107.07 20.91 106.33 20.91 106.42 43.3 99.01 36.89 98.52 37.46 106.43 44.3 106.5 60.3 95.27 50.37 94.77 50.93 106.5 61.31 106.56 75.88 98.13 69.26 97.67 69.85 106.57 76.84 106.61 86.21 107.35 86.21 107.29 69.79 107.29 69.8" fill="#407bff" stroke-width="0"/><polygon points="96.56 73.83 95.83 73.75 94.89 82.03 89.89 76.45 89.9 76.45 88.63 66.42 87.89 66.52 89.02 75.48 76.61 61.6 76.05 62.1 84.48 71.51 79.14 71.58 79.16 72.33 85.14 72.25 91.05 78.86 82.7 78.86 82.7 79.61 91.71 79.6 97.09 85.61 91.2 85.96 91.25 86.7 97.72 86.31 101.3 90.32 101.85 89.82 95.55 82.78 96.56 73.83" fill="#407bff" stroke-width="0"/><polygon points="124.68 76.79 134.58 74.77 134.43 74.04 125.58 75.84 138.5 62.42 137.96 61.91 129.19 71.01 128.73 65.69 127.99 65.76 128.5 71.72 122.36 78.11 121.73 69.79 120.98 69.85 121.67 78.83 116.08 84.63 115.29 78.79 114.54 78.89 115.42 85.32 111.7 89.19 112.24 89.7 118.79 82.89 127.79 83.23 127.82 82.49 119.49 82.17 124.68 76.77 124.68 76.79" fill="#407bff" stroke-width="0"/><g id="uuid-cd7dd2a8-5f5b-47ac-9d23-d4b61ab4315c"><ellipse cx="129.74" cy="40.8" rx="7.03" ry="7.11" fill="#263238" stroke="#263238" stroke-linecap="round" stroke-linejoin="round"/><path d="m149.27,60.25s3.32-.14,4.15,5.75,4.3,21.24,4.59,23.39-1,4.74-4.15,5.75-4.88-2.01-5.17-3.45-3.06-18.93-3.06-18.93l3.65-12.52Z" fill="#263238" stroke="#263238" stroke-linecap="round" stroke-linejoin="round"/><path d="m116.94,74.56s-14.55,6.15-14.55,8.39,8.96,24.08,8.96,24.08l38.61-10.07-4.33-24.18s-5.75-7.17-28.69,1.79Z" fill="#407bff" stroke="#263238" stroke-linecap="round" stroke-linejoin="round"/><path d="m130.21,61.36s-4.15,2.58-7.47,4.44-8.3,4.45-8.3,9.63,3.74,25.7,3.74,27.85c-.07.96-.02,1.92.14,2.87,0-.43,25.26-8.76,25.26-8.76.78-3.3,1.74-6.56,2.87-9.76,1.3-3.16,0-5.89,1.44-11.05s4.15-8.61,3.01-12.46-1.44-3.73-5.6-3.88-11.07-.17-15.09,1.12Z" fill="#263238" stroke="#263238" stroke-linecap="round" stroke-linejoin="round"/><path d="m128.31,59.1s-1.87,1-2.59,5.6c-.47,3.67-.71,7.36-.71,11.05,0,0,7.75-4.3,8.9-4.45s9.48,3.32,9.48,3.32c-.68-3.8-1.64-7.55-2.87-11.2-1.72-4.61-10.48-6.33-12.2-4.32Z" fill="#fff" stroke="#263238" stroke-linecap="round" stroke-linejoin="round"/><path d="m126.88,57.95l.14.49c.56,1.94,2.64,9.14,3.88,12.71,1.44,4.15,3.59,5.89,3.59,5.89l2.15-8.59s-8.47-8.21-9.76-10.51Z" fill="#fff" stroke="#263238" stroke-linecap="round" stroke-linejoin="round"/><path d="m134.47,39.57s-7.03-1.15-9.48,8.04c-2.44,9.19,5.46,17.08,7.75,20.1s5.61,3.98,7.47,1c2.87-4.59,3.74-6.89,4.15-12.92s-.29-10.05-3.01-13.2c-1.78-1.91-4.27-3-6.88-3.01Z" fill="#fff" stroke="#263238" stroke-linecap="round" stroke-linejoin="round"/><path d="m141.38,42.59c-1.78-1.91-4.28-3.01-6.89-3.01,0,0-7.03-1.15-9.48,8.04-.67,2.61-.6,5.34.19,7.91.26-.66.65-1.17,1.25-1.17,1.72,0,1.87,2.44,2.44,2.3s2.87-2.15,2.44-4.02.14-2.72,3.16-2.72,3.73,1.29,4.73,1,1.73-2.3,2.73-2.3c.91.03,1.76.43,2.38,1.1-.22-2.62-1.25-5.11-2.95-7.13Z" fill="#263238" stroke="#263238" stroke-linecap="round" stroke-linejoin="round"/><path d="m128.89,57.52s-1.15-2.87-2.44-3.16-2.01.58-1.3,3.01,1.73,3.45,2.3,3.45.83-.83.83-.83" fill="#fff" stroke="#263238" stroke-linecap="round" stroke-linejoin="round"/><path d="m118.41,86.94s.71,4.6,3.88,6.64,7.47,1,7.47,1" fill="none" stroke="#263238" stroke-linecap="round" stroke-linejoin="round"/><path d="m134.47,77.05s2.01,7.61,1.58,10.9" fill="none" stroke="#263238" stroke-linecap="round" stroke-linejoin="round"/><path d="m91.58,75.1s1.74.72,3.06,5.23,4.79,12.79,5.66,15.99.58,7.27-3.2,8.3-7.85-9.3-8.43-10.17-2.03-9.01-1.3-13.37,2.62-6.55,4.21-5.98Z" fill="#fff" stroke="#263238" stroke-linecap="round" stroke-linejoin="round"/><path d="m70.89,90.2s-22.71,22.15-22.71,25.47,13.36,30.79,17.1,30.17,20.55-18.54,20.55-18.54l-14.95-37.1Z" fill="#407bff" stroke="#263238" stroke-linecap="round" stroke-linejoin="round"/><path d="m71.53,78.6c-4.31,3.82-8.39,7.89-12.21,12.21-5.09,5.95-4.65,15.99-3.06,22.81s4.51,26.16,8.14,26.89,6.54-6.98,12.94-12.46,11.49-10.17,11.92-13.81-.14-15.26.15-16.13c.69-4.28,1.08-8.6,1.16-12.94,0-4.21-3.2-8.86-6.39-9.88s-11.34,2.3-12.65,3.31Z" fill="#fff" stroke="#263238" stroke-linecap="round" stroke-linejoin="round"/><path d="m100.97,215.31s-4.7,9.67-11.43,15.82c-6.73,6.15-17.28,13.77-17.28,13.77,0,0,11.13,3.52,13.48,3.81s1.75,1.46-.88,2.64-5.86,2.05-13.19,2.05-12.01,0-12.31-1.76,4.4-6.15,7.91-9.67,16.99-25.5,18.16-26.67,9.38-4.98,15.53,0Z" fill="#fff" stroke="#263238" stroke-linecap="round" stroke-linejoin="round"/><path d="m85.74,248.71c-1.94-.24-9.82-2.67-12.54-3.51l-2.11,4.68c-3.23.52-6.51-.51-8.87-2.77-1.75,1.9-3.01,3.6-2.87,4.53.3,1.76,4.98,1.76,12.31,1.76s10.55-.88,13.19-2.05,3.23-2.35.89-2.64Z" fill="#263238" stroke="#263238" stroke-linecap="round" stroke-linejoin="round"/><path d="m185.03,215.31s4.69,9.67,11.43,15.82c6.74,6.15,17.29,13.77,17.29,13.77,0,0-11.14,3.52-13.48,3.81s-1.76,1.46.88,2.64,5.81,2.05,13.18,2.05,12.02,0,12.31-1.76-4.39-6.15-7.91-9.67-16.99-25.5-18.16-26.67-9.38-4.98-15.53,0Z" fill="#fff" stroke="#263238" stroke-linecap="round" stroke-linejoin="round"/><path d="m200.27,248.71c1.93-.24,9.82-2.67,12.54-3.51l2.11,4.68c3.23.52,6.51-.51,8.86-2.77,1.74,1.9,3.01,3.6,2.86,4.53-.29,1.76-4.98,1.76-12.31,1.76s-10.55-.88-13.18-2.05-3.22-2.35-.88-2.64Z" fill="#263238" stroke="#263238" stroke-linecap="round" stroke-linejoin="round"/><path d="m33.28,219.41s4.1,7.62,3.81,10.26c-.24,2.15-5.36,18.58-7.23,24.52-.25.79.19,1.63.98,1.87.19.06.39.08.58.06h0c.6-.05,1.1-.46,1.29-1.03l8.2-25.14s1.46-1.76,6.15-2.63c3.59-.68,21.46-1.52,29.61-1.88,3.13-.18,5.83,2.15,6.12,5.27v.12c.26,3.38,5.81,20.86,7.08,24.73.14.44.58.71,1.04.63h0c.51-.08.85-.56.76-1.07,0-.01,0-.03,0-.04-1-4.53-5.27-24.08-6.82-33.92,0,0-31.06,1.46-38.09-.3-4.23-1.06-8.28-2.74-12.01-4.98,0,0-1.75,0-1.46,3.52Z" fill="#263238" stroke="#263238" stroke-linecap="round" stroke-linejoin="round"/><path d="m30.66,167.85s-10.56,33.1-8.8,38.97,10.26,14.06,13.48,14.06,5.86-32.22,5.86-35.15-5.56-13.45-7.32-17.87-3.21,0-3.21,0Z" fill="#407bff" stroke="#263238" stroke-linecap="round" stroke-linejoin="round"/><path d="m88.33,217.36c-.11,3.32-.62,5.86-2.01,5.86-2.63,0-31.35,2.92-38.09,2.63s-11.72-3.76-11.72-8.74.29-26.96,5.27-29.9,31.35-3.22,37.5-3.22c7.57,0,7.9,14.63,8.22,19.59.09,1.43.98,8.55.81,13.78Z" fill="#407bff" stroke="#263238" stroke-linecap="round" stroke-linejoin="round"/><path d="m80.75,217.65s18.75.59,20.21-2.34,0-9.09-3.8-10.26-19.63-.29-19.63-.29l3.22,12.89Z" fill="#fff" stroke="#263238" stroke-linecap="round" stroke-linejoin="round"/><path d="m35.33,190.12c-1.12,3.92-1.61,7.98-1.46,12.05.29,6.45,2.05,12.9,10.8,18.17,8.74,5.27,37.5-.88,37.5-.88l-2.05-38.38s-19.04-2.34-29.59-.29c-10.55,2.05-14.89,8.16-15.2,9.33Z" fill="#263238" stroke="#263238" stroke-linecap="round" stroke-linejoin="round"/><path d="m172.67,55.06c-2.11,2.22-3.76,4.83-4.87,7.69-1.57,4.4-6.75,17.59-6.59,20.1s2.35,5.66,4.55,3.93,7.53-10.99,7.85-11.46.63-7.07.63-11.15.27-9.26-1.57-9.1Z" fill="#fff" stroke="#263238" stroke-linecap="round" stroke-linejoin="round"/><path d="m177.74,69.16c1.72-.33,40.98,8.3,40.98,12.73s-8.86,28.79-8.86,28.79l-37.65-9.97s.76-30.6,5.53-31.56Z" fill="#407bff" stroke="#263238" stroke-linecap="round" stroke-linejoin="round"/><path d="m191,50.04s-8.48-.95-14.45,2.04c-5.97,2.99-5.96,8.01-5.65,12.87s1.94,31.12,2.41,33,11.25,1.39,17.53,2.64,10.68-3.93,11.63-5.97,11.93-21.98,11.93-26.22-4.55-12.25-11-16.02c-3.72-2.24-8.12-3.07-12.41-2.35Z" fill="#fff" stroke="#263238" stroke-linecap="round" stroke-linejoin="round"/><polygon points="185.03 66.21 186.75 69.98 180 93.53 181.57 98.08 186.13 94.63 188.64 70.45 192.09 66.68 190.37 62.44 185.03 66.21" fill="#263238" stroke="#263238" stroke-linecap="round" stroke-linejoin="round"/><path d="m185.5,56.47c-.93,1.77-1.72,3.61-2.36,5.5-.42,2.07-.63,4.17-.62,6.28,0,0,5.02-2.36,6.44-2.36s4.24,6.44,4.24,6.44c0,0,4.24-6.29,4.87-10.8s-4.24-7.85-7.7-7.85c-2.01-.02-3.87,1.04-4.87,2.78Z" fill="#fff" stroke="#263238" stroke-linecap="round" stroke-linejoin="round"/><path d="m203.4,51.92s1.58-2.36,1.89-.16-1.57,3.92-2.67,4.55c-.57.39-1.32.39-1.89,0" fill="#fff" stroke="#263238" stroke-linecap="round" stroke-linejoin="round"/><path d="m187.39,42.81s-1.57-1.25-2.49,1.25.63,5.66.63,5.66l1.57-3.32" fill="#fff" stroke="#263238" stroke-linecap="round" stroke-linejoin="round"/><path d="m187.39,63.86c-.25.84.23,1.72,1.07,1.97.16.05.33.07.5.06,2.04.16,6.28-4.24,6.59-5.18s-8.16,3.15-8.16,3.15Z" fill="#fff" stroke="#263238" stroke-linecap="round" stroke-linejoin="round"/><path d="m194.77,33.24s-5.5,2.49-6.75,6.44-3.32,11.93-3.32,14.95.94,9.14,2.98,10.05,8.79-3.45,10.67-4.71,4.09-6.12,6.44-8.95,4.24-8.01,3.32-12.24-7.86-9.3-13.35-5.53Z" fill="#fff" stroke="#263238" stroke-linecap="round" stroke-linejoin="round"/><path d="m208.11,38.74c-.95-4.24-7.86-9.27-13.35-5.5,0,0-5.5,2.49-6.75,6.44-.6,1.87-1.37,4.65-2.02,7.38,1.07-1.66,2.85-4.53,2.96-5.18.16-.95.16-1.1,1.25-1.1s3.14,3.14,5.97,3.77,6.59.16,6.59,1.73-2.2,4.09-.79,4.87c1.1.61.12,2.73.22,3.65.78-1.33,1.66-2.6,2.62-3.81,2.35-2.82,4.24-8.01,3.3-12.24Z" fill="#263238" stroke="#263238" stroke-linecap="round" stroke-linejoin="round"/><path d="m187.54,48.47s5.5,2.67,8.16,3.61,5.34,2.03,4.39,3.76-4.08,2.49-5.96,1.73-1.41-4.71-2.49-4.87-1.88,1.89-3.92,1.89-4.24-3.14-3.93-5.34,3.75-.78,3.75-.78Z" fill="#fff" stroke="#263238" stroke-linecap="round" stroke-linejoin="round"/><line x1="200.57" y1="54.27" x2="204.19" y2="50.66" fill="none" stroke="#263238" stroke-linecap="round" stroke-linejoin="round"/><line x1="184.72" y1="48.31" x2="186.6" y2="44.07" fill="none" stroke="#263238" stroke-linecap="round" stroke-linejoin="round"/><path d="m228.57,81.61s-10.41,9.27-13.11,11.95-2.82,7.84-.26,8.99,10.67-3.6,11.95-4.63,4.76-15.68,1.42-16.32Z" fill="#263238" stroke="#263238" stroke-linecap="round" stroke-linejoin="round"/><path d="m254.61,104.78s13.99,13.99,11.19,18.46-29.66,18.47-29.66,18.47l-5.04-21.83,23.5-15.11Z" fill="#407bff" stroke="#263238" stroke-linecap="round" stroke-linejoin="round"/><path d="m236.66,80.72s-5.9-.51-8.09.9-3.73,14.53-4.15,22.36c-.42,7.84-1.41,14.12-.9,15.67s13.88,18.38,15.78,20.7,17.48-21.34,19.67-26.09.77-9.14-2.06-15.67-8.86-12.6-12.46-15.94c-2.09-1.94-5.03-2.66-7.79-1.93Z" fill="#263238" stroke="#263238" stroke-linecap="round" stroke-linejoin="round"/><path d="m236.53,96.26l-.09.5c-.17.92-.52,3.03-.83,5.41-.39,3.21-.26,7.47.77,7.47s14.52-9.77,14.77-18.63-13.59,1.52-14.62,5.24Z" fill="#fff" stroke="#263238" stroke-linecap="round" stroke-linejoin="round"/><path d="m235.89,78.79s-1.29,4.75-1.29,5.52c.1.91.27,1.82.51,2.7,0,0-2.18,3.47-1.93,3.85.31.38.65.72,1.02,1.03,0,0-.25,4.88.77,5.91s5.27.38,5.27.38c0,0-2.06,2.57.26,2.7s8.48-4.98,10.28-7.96,1.66-8.35,0-11.05-11.57-6.43-14.91-3.08Z" fill="#fff" stroke="#263238" stroke-linecap="round" stroke-linejoin="round"/><path d="m247.07,69.53s-9.9,1.29-11.69,5.14,2.31,8.61,5.27,9.26c1.6.38,3.24.55,4.88.51,0,0-3.08,2.7-1.15,3.32s2.82.26,2.82.9-1.93,2.7-.26,2.83,2.18-2.83,3.21-2.18-.38,3.21.13,3.32,5.4-4.98,7.47-10.41-.77-8.74-2.82-10.53-5.42-2.79-7.86-2.15Z" fill="#263238" stroke="#263238" stroke-linecap="round" stroke-linejoin="round"/><path d="m247.07,92.02s1.8-4.15,2.96-3.21.77,3.85-.51,4.88-3.73-.13-3.73-.13" fill="#fff" stroke="#263238" stroke-linecap="round" stroke-linejoin="round"/><polyline points="235.64 103.33 239.75 101.28 239.11 107.44" fill="#fff" stroke="#263238" stroke-linecap="round" stroke-linejoin="round"/><path d="m268.34,212.48s-7.39,14.55-7.1,17.19c.24,2.15,5.36,18.58,7.24,24.52.24.79-.21,1.63-1,1.88-.18.06-.38.08-.57.06h0c-.6-.05-1.1-.46-1.29-1.03l-8.19-25.14s-1.47-1.76-6.15-2.63c-3.6-.68-21.46-1.52-29.62-1.88-3.12-.17-5.83,2.16-6.11,5.27,0,.04,0,.08,0,.12-.27,3.38-5.81,20.86-7.08,24.73-.14.44-.58.71-1.04.63h0c-.51-.08-.85-.56-.76-1.07,0-.01,0-.03,0-.04,1-4.53,5.27-24.08,6.83-33.92,0,0,31.05,1.46,38.09-.3s15.31-11.92,15.31-11.92c0,0,1.74,0,1.45,3.52Z" fill="#263238" stroke="#263238" stroke-linecap="round" stroke-linejoin="round"/><path d="m273.3,164.24s8.09,33.79,5.9,39.51c-2.18,5.71-11.25,13.29-14.47,13.04s-3.49-32.57-3.27-35.49,6.54-13.03,8.62-17.32,3.21.27,3.21.27Z" fill="#407bff" stroke="#263238" stroke-linecap="round" stroke-linejoin="round"/><path d="m210.04,217.36c.1,3.32.62,5.86,2,5.86,2.64,0,31.35,2.92,38.09,2.63s11.69-3.76,11.69-8.74-.3-27-5.28-29.9-31.35-3.22-37.5-3.22c-7.57,0-7.91,14.63-8.22,19.59-.09,1.43-.97,8.55-.78,13.78Z" fill="#407bff" stroke="#263238" stroke-linecap="round" stroke-linejoin="round"/><path d="m259.74,190.11s-2.43,5.92-2.43,10.62-2.28,13.95-6.98,16.68-9.97,4.25-17.75,3.19-24.72-3.8-24.72-3.8c0,0,17.44-12.46,21.83-18.65,4.39-6.2,5.91-11.37,9.4-14.86s20.32-6.98,20.63,6.82Z" fill="#263238" stroke="#263238" stroke-linecap="round" stroke-linejoin="round"/><ellipse cx="155.39" cy="165.15" rx="93.22" ry="72.04" fill="#263238" stroke="#263238" stroke-linecap="round" stroke-linejoin="round"/><ellipse cx="155.39" cy="162.99" rx="93.22" ry="72.04" fill="#407bff" stroke="#263238" stroke-linecap="round" stroke-linejoin="round"/><polygon points="201.58 118.75 213.4 131.73 192.45 146.76 180.38 132.11 201.58 118.75" fill="#fff" stroke="#263238" stroke-linecap="round" stroke-linejoin="round"/><polygon points="137.62 119.87 118.27 129.82 135.41 150.83 155.3 137.56 137.62 119.87" fill="#fff" stroke="#263238" stroke-linecap="round" stroke-linejoin="round"/><polygon points="166.96 140.91 147.61 150.86 164.75 171.86 184.65 158.6 166.96 140.91" fill="#fff" stroke="#263238" stroke-linecap="round" stroke-linejoin="round"/><polygon points="164.8 142.44 143.96 148.67 156.95 172.46 178.94 163.07 164.8 142.44" fill="#fff" stroke="#263238" stroke-linecap="round" stroke-linejoin="round"/><path d="m139.93,108.07s3.76-1.4,3.76-.47,0,1.88-1.66,2.35-7.28-.71-5.87-1.41c1.2-.44,2.49-.6,3.77-.47Z" fill="#fff" stroke="#263238" stroke-linecap="round" stroke-linejoin="round"/><path d="m119.12,67.71s-4.87,1.72-7.32,4.74-3.59,10.9-4.15,14.35-3.16,16.51-1.72,18.09,16.79,6.89,19.81,7.76,6.64,2.15,8.62,2.01c1.44-.21,2.82-.75,4.02-1.58,0,0,3.45,1.58,4.3,1.58s2.01-1.58,1-3.16-3.8-3.89-5.38-3.89-7.39.87-7.39.87c0,0-9.91-5.02-12.78-7.03-1.8-1.28-3.48-2.72-5.02-4.3l5.89-18.38" fill="#263238" stroke="#263238" stroke-linecap="round" stroke-linejoin="round"/><path d="m138.29,107.61c-1.58,0-7.39.87-7.39.87,0,0-1.1-.55-2.66-1.36-1.21.82-2.14,2-2.66,3.37-.18.66-.29,1.34-.31,2.03l.45.13c3.01.83,6.64,2.15,8.62,2.01,1.44-.21,2.82-.75,4.02-1.58,0,0,3.45,1.58,4.3,1.58s2.01-1.58,1-3.16-3.8-3.89-5.38-3.89Z" fill="#fff" stroke="#263238" stroke-linecap="round" stroke-linejoin="round"/><path d="m72.54,81.94c-.44.13-3.78,3.78-4.07,8s2.91,11.19,3.49,12.35-.14,3.2,1.31,3.2,5.96-6.69,5.96-6.69c0,0,5.08.29,5.66-1.01s-4.07-8.58-5.08-11.63-4.8-4.94-7.28-4.22Z" fill="#fff" stroke="#263238" stroke-linecap="round" stroke-linejoin="round"/><path d="m72.25,79.76c.01,2-.18,3.99-.58,5.95-.58,2.03-.72,3.06,1.45,6.25,2.18,2.87,4.57,5.59,7.13,8.14,0,0,.29-3.32.44-5.23s3.05-3.06,3.63-3.93-3.2-1.45-4.65-4.07-1.45-7.12-3.49-7.56-3.16-1.59-3.93.44Z" fill="#fff" stroke="#263238" stroke-linecap="round" stroke-linejoin="round"/><path d="m91.73,70.89s4.07-1.16,3.32-5.23-8.14-7.12-16.13-6.39-11.63,5.96-12.36,11.19,4.79,10.31,5.37,11.19-.14,1.74,1.6,2.33c1.19.33,2.44.33,3.63,0,.88,1.26,2.42,1.89,3.93,1.6,2.49-.58,1.74-5.52,2.77-6.1s1.74-2.49,4.79-4.22,3.07-4.36,3.07-4.36Z" fill="#263238" stroke="#263238" stroke-linecap="round" stroke-linejoin="round"/><path d="m79.37,82.96s.29-2.33-2.62-2.62-2.18,2.49-1.59,3.78,2.61,2.33,2.61,2.33c0,0,.73,3.32,1.75,3.63s7.12,2.91,8.3,2.49,2.33-5.81,2.33-5.81c0,0,2.03-1.02,2.03-2.03s-.91-3.94-.91-4.63,1.6-2.77,1.89-4.36-1.45-4.8-1.45-4.8c0,0-.73,2.62-3.06,2.62-1.58-.04-3.14-.28-4.65-.72,0,0,1.16,3.05.29,4.36s-2.33,1.01-2.62,1.59-.14,3.2-.29,3.78-1.15,2.58-2.03.41Z" fill="#fff" stroke="#263238" stroke-linecap="round" stroke-linejoin="round"/><path d="m93.48,98.8s.72,5.81,2.18,8.14,7.56,11.34,7.56,11.34c0,0-.43,3.06,0,3.93.87,1.83,1.6,3.72,2.18,5.66,0,.58,1.16,1.02,1.3.15.1-.67.15-1.35.15-2.03l2.49,3.78s1.31,1.01,1.74.14.15-5.52.44-7.41-1.16-4.51-2.33-5.67-2.62-3.2-3.06-3.63-2.33-7.27-3.2-11.92-3.2-7.56-4.94-7.85" fill="#fff" stroke="#263238" stroke-linecap="round" stroke-linejoin="round"/><path d="m111.06,129.91c.44-.83.15-5.52.44-7.41s-1.16-4.51-2.33-5.67c-.84-.89-1.63-1.82-2.37-2.8-1.76.5-3.33,1.49-4.54,2.86l.95,1.4s-.43,3.06,0,3.93c.87,1.83,1.6,3.72,2.18,5.66,0,.58,1.16,1.02,1.3.15.1-.67.15-1.35.15-2.03l2.49,3.78s1.29.97,1.72.14Z" fill="#fff" stroke="#263238" stroke-linecap="round" stroke-linejoin="round"/><path d="m58.59,92.98c-1.9,1.5-3.23,3.61-3.78,5.96-1.01,4.07,2.33,20.64,3.2,25.43s5.23,20.76,6.54,21.8,16.57-.87,22.09-1.89,17.44-5.23,19.93-5.96,3.78-4.5,4.5-5.23,2.33-3.2,1.45-4.07-3.32,0-4.36,0-2.91-.14-4.94-.14c-2.07.06-3.85,1.48-4.36,3.49-.28,1.1-.77,2.14-1.45,3.05,0,0-14.95,2.03-18.16,2.03-2.09-.02-4.18-.16-6.25-.43,0,0-1.74-10.03-3.06-16.28s-2.49-11.05-3.49-12.65" fill="#fff" stroke="#263238" stroke-linecap="round" stroke-linejoin="round"/><path d="m108.15,129.03c-1.01,0-2.91-.14-4.94-.14-2.07.06-3.85,1.48-4.36,3.49-.28,1.1-.77,2.14-1.45,3.05l-1.05.14c.42.87.68,1.81.76,2.77.04,1.05-.02,2.1-.19,3.14,4.3-1.36,8.3-2.75,9.64-3.14,2.49-.72,3.78-4.5,4.5-5.23s2.33-3.2,1.45-4.07-3.34,0-4.36,0Z" fill="#fff" stroke="#263238" stroke-linecap="round" stroke-linejoin="round"/><path d="m98.32,156.41s3.75.31,4.98.31,9.83-.93,8.59-2.33-10.63-2.66-10.63-2.66l-2.94,4.68Z" fill="#fff" stroke="#263238" stroke-linecap="round" stroke-linejoin="round"/><polygon points="117.04 147.99 89.74 160.63 100.34 182.15 127.18 168.58 117.04 147.99" fill="#fff" stroke="#263238" stroke-linecap="round" stroke-linejoin="round"/><path d="m98.76,155.16s3.27,0,4.05.47,4.05,3.43,4.53,2.65-1.4-2.65-2.18-3.43-1.56-1.4-1.56-1.4" fill="#fff" stroke="#263238" stroke-linecap="round" stroke-linejoin="round"/><path d="m73.14,144.41l28.11,7.32-4.4,6.44-29.59-3.51s-7.02-9.67,5.88-10.26Z" fill="#fff" stroke="#263238" stroke-linecap="round" stroke-linejoin="round"/><path d="m53.24,145.64s-6.85,5.81-9.14,12.87-3.74,21.18-3.74,21.18c0,0-7.27,10.38-7.27,11.42s6.02,0,6.02,0l-5.81,9.97s0,8.3,4.57,12.66c4.27,4.06,10.15,5.96,15.99,5.19,4.98-.83,14.12-12.04,15.16-12.66s-2.49-10.17-3.32-13.7.83-6.02,1.87-6.64,7.06-4.36,8.3-7.06,1.04-7.27.62-10.8-5.61-15.78-10.17-19.52-8.72-6.23-13.08-2.91Z" fill="#fff" stroke="#263238" stroke-linecap="round" stroke-linejoin="round"/><path d="m57.39,144.6s-3.11,4.57-3.11,7.89,2.7,8.72,4.78,11.21c1.22,1.47,2.54,2.86,3.94,4.15l4.57-1.04.21,3.53s1.04-1.87,3.94-.62,4.78.42,4.78-.21c.99-4.02.99-8.23,0-12.25-1.66-7.27-3.53-8.51-6.23-11.21s-8.93-3.74-12.87-1.45Z" fill="#fff" stroke="#263238" stroke-linecap="round" stroke-linejoin="round"/><path d="m59.47,145.64s-2.28,3.94-1.04,7.06,5.19,6.85,8.3,9.55,7.06,5.61,7.06,5.61c1.42-4.64.9-9.66-1.45-13.91-3.94-7.47-11-9.76-12.87-8.3Z" fill="#fff" stroke="#263238" stroke-linecap="round" stroke-linejoin="round"/><path d="m77.53,126.74c.58,1.35,1.07,2.74,1.45,4.15v1.45s2.91,1.66,2.49,2.28-2.08,3.32-2.08,3.32c.23,2.28.16,4.59-.21,6.85-.62,2.7.21,3.94-2.08,3.94h-5.81s-.62,8.72-2.08,8.72-8.1-3.11-9.34-4.78-1.66-3.32-1.25-4.57c1.29-3.33,2.4-6.72,3.32-10.17.83-3.74,7.06-6.64,8.51-7.27s7.06-3.94,7.06-3.94Z" fill="#fff" stroke="#263238" stroke-linecap="round" stroke-linejoin="round"/><path d="m54.48,141.48s-4.98-.83-7.47-.42-5.61,3.94-5.61,7.47,2.7,5.61,7.06,6.02,7.27-3.32,7.27-5.4c0-2.61-.42-5.21-1.25-7.68Z" fill="#263238" stroke="#263238" stroke-linecap="round" stroke-linejoin="round"/><path d="m67.15,140.44s7.89-8.51,10.38-13.7,1.66-10.59-2.28-10.59-8.3-1.25-15.78,1.45-10.59,11.42-10.17,15.99,7.27,13.91,10.8,14.53,3.53-5.61,3.53-5.61l3.53-2.08Z" fill="#263238" stroke="#263238" stroke-linecap="round" stroke-linejoin="round"/><path d="m68.19,141.9s-1.87-4.15-4.15-2.91-.21,5.81,1.25,6.85,3.74-.62,3.74-.62" fill="#fff" stroke="#263238" stroke-linecap="round" stroke-linejoin="round"/><path d="m78.98,132.35s-.83,2.7-1.87,3.11" fill="none" stroke="#263238" stroke-linecap="round" stroke-linejoin="round"/><path d="m94.9,169.94s-1.59-1.06-1.8.32,1.38,2.87,1.38,2.87c0,0-2.02-2.23-2.13-.96s1.17,2.66,1.17,2.66c0,0-1.59-.75-1.59-.11s2.23,2.87,2.33,3.92,2.13-2.23,2.55-4.77c.18-1.57-.56-3.1-1.91-3.93Z" fill="#fff" stroke="#263238" stroke-linecap="round" stroke-linejoin="round"/><path d="m91.86,185.71c.5-1.84.85-3.71,1.04-5.61,0-1.66,1.87-4.57,2.7-6.23s-2.7-4.57-1.04-5.4,2.91.83,4.36,2.7,1.87,5.81.62,8.51c-1.17,2.5-2.71,4.81-4.57,6.85-.61.65-1.31,1.21-2.08,1.66l-1.04-2.49Z" fill="#fff" stroke="#263238" stroke-linecap="round" stroke-linejoin="round"/><path d="m93.43,181.72v-5.26c0-2.63,1.48-6.52,1.48-6.52.81-.11,1.55.46,1.66,1.27.03.2.01.41-.04.6-.14,1.71-.03,3.43.31,5.11" fill="#fff" stroke="#263238" stroke-linecap="round" stroke-linejoin="round"/><path d="m47.43,178.65s-2.91,4.15-1.45,8.72,22.22,32.18,25.12,32.18,23.88-27.2,25.12-28.86-4.15-5.81-4.15-5.81l-20.97,19.1s-5.61-22.42-7.89-26.58-7.68-4.57-7.68-4.57" fill="#fff" stroke="#263238" stroke-linecap="round" stroke-linejoin="round"/><path d="m147.84,90.68s2.87-3.16,5.88-3.74c3.01-.58,4.59,1.44,3.74,5.02s-3.59,4.45-5.17,4.31-4.15-.83-4.87-2.72c-.47-.95-.3-2.1.43-2.87Z" fill="#263238" stroke="#263238" stroke-linecap="round" stroke-linejoin="round"/><path d="m149.56,89.82s-6.17.83-7.61,1.87-4.74,6.6-4.74,7.32,2.01,1.44,3.01,1.44,3.6-3.45,3.6-3.45l-1.3,3.6s1.3-.15,1.44-.72,2.15-4.45,2.15-4.45c0,0,3.74.15,4.74-1.58s1.72-2.87-1.3-4.02Z" fill="#fff" stroke="#263238" stroke-linecap="round" stroke-linejoin="round"/><path d="m161.95,80.34s-1.73,5.81-1.73,9.42,2.48,15.24,2.48,15.24c-.34,1.97-1.2,3.81-2.49,5.34-2.04,2.2-1.41,5.18-.47,6.12s2.83,2.67,3.45,1.57.16-3.14.79-3.92,2.98-2.04,3.32-4.4-.16-9.58-.16-13.5,2.04-9.73-.16-13.81" fill="#fff" stroke="#263238" stroke-linecap="round" stroke-linejoin="round"/><path d="m167.31,103.14c-2.55-.51-3.95.36-4.7,1.29.07.36.12.56.12.56-.34,1.97-1.2,3.81-2.49,5.34-2.04,2.2-1.41,5.18-.47,6.12s2.83,2.67,3.45,1.57.16-3.14.79-3.92,2.98-2.04,3.32-4.4c.12-2.19.11-4.38-.02-6.56Z" fill="#fff" stroke="#263238" stroke-linecap="round" stroke-linejoin="round"/><polygon points="171.68 102.95 156.61 120.06 171.84 130.9 186.44 112.37 171.68 102.95" fill="#fff" stroke="#263238" stroke-linecap="round" stroke-linejoin="round"/><path d="m165.09,109.98s.16,5.34.16,6.13,1.73,1.73,1.89-.16c.03-1.05.13-2.1.32-3.14.16-.47,1.1-3.45-.16-5.66" fill="#fff" stroke="#263238" stroke-linecap="round" stroke-linejoin="round"/><path d="m207.48,68.41s-4.24,4.71-6.28,9.14-3.61,15.7-3.61,15.7c0,0-8.16,13.35-9.27,14.45s-.47.94-3.14,2.19-6.12,1.89-6.59,2.67-2.2,4.55-2.67,5.02.62,1.41,1.25.78,2.82-3.14,2.82-3.14l-2.67,6.28c.02.46.41.81.86.8.02,0,.05,0,.07,0,1.15-.21,2.27-.58,3.32-1.1,0,0,2.67-.63,3.61-1.89s4.4-8.01,4.4-8.01c0,0,9.14-5.81,12.4-9.73,2.55-3.1,4.57-6.6,5.97-10.36.47-1.57,6.28-18.99,6.12-21.83s-1.57-3.32-1.57-3.32" fill="#fff" stroke="#263238" stroke-linecap="round" stroke-linejoin="round"/><path d="m187.86,108.16c-.51.59-.5.67-2.67,1.66-2.67,1.26-6.12,1.89-6.59,2.67s-2.2,4.55-2.67,5.02.62,1.41,1.25.78,2.82-3.14,2.82-3.14l-2.67,6.28c.02.46.41.81.86.8.02,0,.05,0,.07,0,1.15-.21,2.27-.58,3.32-1.1,0,0,2.67-.63,3.61-1.89s4.4-8.01,4.4-8.01c0,0,.56-.36,1.48-.96-.84-1.02-1.96-1.75-3.23-2.11Z" fill="#fff" stroke="#263238" stroke-linecap="round" stroke-linejoin="round"/><path d="m250.15,113.1s-3.47,6.55-4.11,9.14-1.66,5.4-1.66,5.4c0,0-6.43-1.03-11.95-1.66s-13.36-2.06-15.3-2.44-5.52-1.42-6.3-.77-.26.51.65.9c.75.23,1.54.27,2.31.13,0,0-1.29.38-2.7.9s-3.99,1.41-4.37,1.93.51,2.32,1.93,2.32c1.07-.07,2.14-.07,3.21,0,.77.12,1.15.9,3.73.9s6.16-2.06,6.16-2.06c0,0,12.08,5.53,18.89,6.69s7.84-.38,10.67-2.57,11.05-15.67,10.41-18.37c-.42-1.69-1.11-3.3-2.06-4.76" fill="#263238" stroke="#263238" stroke-linecap="round" stroke-linejoin="round"/><path d="m224.53,124.81c-3.36-.55-6.31-1.09-7.4-1.3-1.93-.39-5.52-1.42-6.3-.77s-.26.51.65.9c.75.23,1.54.27,2.31.13,0,0-1.29.38-2.7.9s-3.99,1.41-4.37,1.93.51,2.32,1.93,2.32c1.07-.07,2.14-.07,3.21,0,.77.12,1.15.9,3.73.9s6.16-2.06,6.16-2.06c0,0,.95.43,2.45,1.08l.32-4.01Z" fill="#fff" stroke="#263238" stroke-linecap="round" stroke-linejoin="round"/><path d="m216.23,93.31s-6.04,2.96-8.35,4.98-8.1,15.03-8.22,15.93,4.37,1.42,4.88,1.16,9.64-10.8,11.95-12.6c1.31-.86,1.85-2.51,1.29-3.98" fill="#263238" stroke="#263238" stroke-linecap="round" stroke-linejoin="round"/><path d="m201.84,111.56c-1.91.4-3.8.92-5.66,1.54-1.54.65-5.14,5.27-4.24,5.53s3.32-2.7,3.32-2.7c-.85,1.21-1.59,2.5-2.18,3.85-.26,1.03-.51,3.32.51,2.96s3.08-3.21,3.08-3.21c0,0,2.57-1.54,4.63-1.54s3.47-3.85,3.47-3.85c0,0,1.66-1.66,1.03-3.47s-3.96.91-3.96.91Z" fill="#fff" stroke="#263238" stroke-linecap="round" stroke-linejoin="round"/><path d="m205.31,110.53c-1.03.04-2.02-.39-2.7-1.16-1.03-1.28-1.66,0-1.66,1.29.03.77.54,1.43,1.28,1.66,0,0-2.18,2.06-.9,2.7.86.34,1.85.2,2.57-.38" fill="#fff" stroke="#263238" stroke-linecap="round" stroke-linejoin="round"/><path d="m250.49,144.03s-6.37-1.21-8.65-1.66-9.71,2.58-11.83,3.32,0,1.37,2.28,1.82,6.82-.45,6.82-.45c0,0-4.98,2.12-3.79,2.43s3.64-.31,5.76-.46,4.24-2.13,4.24-2.13c0,0,10.17,4.98,11.38,4.98s3.03-3.64.45-5.16c-2.13-1.12-4.36-2.02-6.67-2.7Z" fill="#fff" stroke="#263238" stroke-linecap="round" stroke-linejoin="round"/><path d="m252.76,149.62c-3.98,3.01-7.51,6.59-10.46,10.61-4.4,6.22-5.16,18.8-4.24,22.42s1.51,7.88,5.91,10.8,7.58,4.09,15.16,0,11.53-17.74,10.8-28.24c-.73-10.5-7.13-17.75-10.46-18.65s-6.7,3.06-6.7,3.06Z" fill="#fff" stroke="#263238" stroke-linecap="round" stroke-linejoin="round"/><path d="m253.23,151.59s-2.73.31-4.09,2.13-.91,2.43,0,2.88c.58.37.96.98,1.05,1.66,0,0-3.18,5.16-1.51,6.21s9.09-2.43,11.07-4.98,1.06-6.83-.15-8.04-6.37.14-6.37.14Z" fill="#fff" stroke="#263238" stroke-linecap="round" stroke-linejoin="round"/><path d="m251.39,131.88c-.88,1.05-1.9,1.96-3.03,2.72-1.21.61-2.72,1.21-1.51,2.13.69.51,1.35,1.06,1.97,1.66,0,0-1.52,4.98-.91,7.88.21,1.43,1.53,2.41,2.95,2.21.12-.02.25-.04.37-.08,0,0-.46,7.58-1.06,9.86s2.28,2.12,4.55.76,2.58-6.98,3.49-11.07,6.37-8.94,2.58-13.5-9.4-2.57-9.4-2.57Z" fill="#fff" stroke="#263238" stroke-linecap="round" stroke-linejoin="round"/><path d="m276.11,126.72c-5.61-5.76-14.12-4.4-15.31-4.09,0,0-4.73-1.15-7.47-.7s-3.76,8.3-2.09,12.67c.6,1.57,1.72,2.88,3.18,3.7-.27-.24-1.89-1.77-.33-2.98.93-.76,2.03-1.28,3.21-1.51,0,0-1.32,4.34-.76,5.1,2.31,3.07-8.07,17.56-8.48,17.33,0,0,3.03,1.71,6.83,3.53,8.38,4.03,18.27-4.57,21.38-11.83,2.47-5.73,4.86-16.09-.14-21.23Z" fill="#263238" stroke="#263238" stroke-linecap="round" stroke-linejoin="round"/><polygon points="194.46 148.33 186.8 180.37 202.47 187.5 208.39 157.39 194.46 148.33" fill="#fff" stroke="#263238" stroke-linecap="round" stroke-linejoin="round"/><polygon points="194.99 151.65 188.63 178.26 201.65 184.19 206.57 159.16 194.99 151.65" fill="#263238" stroke="#263238" stroke-linecap="round" stroke-linejoin="round"/><polygon points="208.39 157.39 229.8 158.43 225.62 189.24 202.47 187.5 208.39 157.39" fill="#fff" stroke="#263238" stroke-linecap="round" stroke-linejoin="round"/><polygon points="214.69 171.07 216.25 171.14 216.4 170.14 214.87 170.03 214.69 171.07" fill="#263238" stroke-width="0"/><polygon points="218.3 178.07 218.55 176.55 216.39 176.45 216.15 177.92 218.3 178.07" fill="#263238" stroke-width="0"/><polygon points="214.48 166.71 214.67 165.64 212.72 165.51 212.52 166.63 214.48 166.71" fill="#263238" stroke-width="0"/><polygon points="215.44 166.76 216.92 166.83 217.08 165.82 215.62 165.72 215.44 166.76" fill="#263238" stroke-width="0"/><polygon points="214.29 173.41 215.87 173.52 216.1 172.09 214.53 172.02 214.29 173.41" fill="#263238" stroke-width="0"/><polygon points="219.72 169.41 219.97 167.93 217.73 167.82 217.51 169.26 219.72 169.41" fill="#263238" stroke-width="0"/><polygon points="213.29 162.32 215.22 162.41 215.51 160.75 213.59 160.65 213.29 162.32" fill="#263238" stroke-width="0"/><polygon points="217.59 162.52 217.85 160.87 216.47 160.8 216.19 162.45 217.59 162.52" fill="#263238" stroke-width="0"/><polygon points="213.12 163.27 212.89 164.57 214.83 164.7 215.06 163.35 213.12 163.27" fill="#263238" stroke-width="0"/><polygon points="216.78 167.78 215.27 167.71 215.03 169.09 216.55 169.2 216.78 167.78" fill="#263238" stroke-width="0"/><polygon points="217.45 163.47 216.02 163.4 215.78 164.77 217.23 164.87 217.45 163.47" fill="#263238" stroke-width="0"/><polygon points="219.01 173.74 219.26 172.24 217.06 172.14 216.83 173.59 219.01 173.74" fill="#263238" stroke-width="0"/><polygon points="210.23 174.08 208.65 173.97 208.44 175.13 210.03 175.2 210.23 174.08" fill="#263238" stroke-width="0"/><polygon points="209.87 176.15 208.27 176.07 208.06 177.34 209.63 177.46 209.87 176.15" fill="#263238" stroke-width="0"/><polygon points="209.47 178.4 207.89 178.29 207.69 179.44 209.27 179.51 209.47 178.4" fill="#263238" stroke-width="0"/><polygon points="209.1 180.46 207.52 180.38 207.29 181.66 208.86 181.78 209.1 180.46" fill="#263238" stroke-width="0"/><polygon points="210.63 171.84 209.03 171.76 208.81 173.02 210.4 173.14 210.63 171.84" fill="#263238" stroke-width="0"/><polygon points="211.4 167.53 209.78 167.45 209.57 168.71 211.17 168.81 211.4 167.53" fill="#263238" stroke-width="0"/><polygon points="212.17 163.22 210.54 163.14 210.32 164.39 211.94 164.5 212.17 163.22" fill="#263238" stroke-width="0"/><polygon points="211 169.76 209.4 169.65 209.19 170.82 210.8 170.89 211 169.76" fill="#263238" stroke-width="0"/><polygon points="211.77 165.44 210.16 165.33 209.95 166.51 211.56 166.58 211.77 165.44" fill="#263238" stroke-width="0"/><polygon points="220.67 163.61 218.4 163.51 218.18 164.94 220.43 165.09 220.67 163.61" fill="#263238" stroke-width="0"/><polygon points="208.7 182.72 207.13 182.61 206.82 184.37 208.38 184.53 208.7 182.72" fill="#263238" stroke-width="0"/><polygon points="217.21 171.19 219.41 171.29 219.57 170.36 217.36 170.21 217.21 171.19" fill="#263238" stroke-width="0"/><polygon points="215.85 179.81 218 179.91 218.15 179 216 178.85 215.85 179.81" fill="#263238" stroke-width="0"/><polygon points="216.53 175.5 218.7 175.6 218.85 174.69 216.69 174.54 216.53 175.5" fill="#263238" stroke-width="0"/><polygon points="215.73 174.46 214.13 174.35 213.94 175.38 215.57 175.46 215.73 174.46" fill="#263238" stroke-width="0"/><polygon points="217.84 180.86 215.71 180.76 215.48 182.23 217.59 182.38 217.84 180.86" fill="#263238" stroke-width="0"/><polygon points="215.33 183.18 215.02 185.2 217.09 185.41 217.43 183.33 215.33 183.18" fill="#263238" stroke-width="0"/><polygon points="212.13 168.89 214.08 169.02 214.32 167.66 212.36 167.58 212.13 168.89" fill="#263238" stroke-width="0"/><polygon points="212.33 162.27 212.63 160.6 211 160.52 210.71 162.2 212.33 162.27" fill="#263238" stroke-width="0"/><polygon points="217.88 166.87 220.12 166.98 220.27 166.04 218.03 165.88 217.88 166.87" fill="#263238" stroke-width="0"/><polygon points="218.55 162.56 220.83 162.67 221.1 161.04 218.8 160.92 218.55 162.56" fill="#263238" stroke-width="0"/><polygon points="215.42 176.4 213.79 176.32 213.54 177.72 215.2 177.84 215.42 176.4" fill="#263238" stroke-width="0"/><polygon points="212.82 176.28 210.82 176.19 210.59 177.53 212.58 177.66 212.82 176.28" fill="#263238" stroke-width="0"/><polygon points="213.38 178.67 213.21 179.68 214.9 179.77 215.06 178.79 213.38 178.67" fill="#263238" stroke-width="0"/><polygon points="214.75 180.71 213.04 180.63 212.79 182.05 214.53 182.17 214.75 180.71" fill="#263238" stroke-width="0"/><polygon points="209.83 181.84 211.84 181.99 212.08 180.59 210.06 180.5 209.83 181.84" fill="#263238" stroke-width="0"/><polygon points="212.43 178.61 210.42 178.46 210.23 179.55 212.24 179.64 212.43 178.61" fill="#263238" stroke-width="0"/><polygon points="211 175.24 212.99 175.33 213.17 174.29 211.19 174.15 211 175.24" fill="#263238" stroke-width="0"/><polygon points="209.65 182.78 209.33 184.62 211.35 184.83 211.68 182.92 209.65 182.78" fill="#263238" stroke-width="0"/><polygon points="214.38 183.11 212.63 182.99 212.3 184.93 214.07 185.1 214.38 183.11" fill="#263238" stroke-width="0"/><polygon points="213.92 169.97 211.96 169.83 211.76 170.93 213.74 171.02 213.92 169.97" fill="#263238" stroke-width="0"/><polygon points="213.57 171.97 211.59 171.88 211.35 173.21 213.33 173.34 213.57 171.97" fill="#263238" stroke-width="0"/><path d="m253.52,177.07s-1.95.18-5.27,2.88-16.53,25.74-16.53,25.74c0,0-11.98-7.47-15.02-9.55s-5.46-5.91-7.13-8.19-1.98-2.58-4.25-2.73-3.94-1.66-4.24-.61.61,1.52,1.21,1.82c.53.2,1.09.31,1.66.31-1.43.22-2.89-.11-4.09-.91-2.28-1.36-2.88-1.66-2.88-.15s1.66,3.94,2.88,5.46,8.19,2.13,8.19,2.13c2.53,4.88,5.37,9.6,8.5,14.12,4.54,6.37,14.25,13.2,16.98,12.28s17.13-18.95,21.08-23.96,9.14-10.92,7.88-14.25" fill="#fff" stroke="#263238" stroke-linecap="round" stroke-linejoin="round"/><path d="m212.58,192.13c-1.19-1.49-2.21-3.01-3.04-4.15-1.66-2.28-1.98-2.58-4.25-2.73s-3.94-1.66-4.24-.61.61,1.52,1.21,1.82c.53.2,1.09.31,1.66.31-1.43.22-2.89-.11-4.09-.91-2.28-1.36-2.88-1.66-2.88-.15s1.66,3.94,2.88,5.46,8.19,2.13,8.19,2.13c0,0,.31.6.83,1.57.99-1.22,2.27-2.16,3.74-2.72Z" fill="#fff" stroke="#263238" stroke-linecap="round" stroke-linejoin="round"/></g></g></svg>